<?xml version="1.0" encoding="UTF-8" standalone="no"?>
<!-- Created with Inkscape (http://www.inkscape.org/) -->
<svg xmlns:inkscape="http://www.inkscape.org/namespaces/inkscape" xmlns:rdf="http://www.w3.org/1999/02/22-rdf-syntax-ns#" xmlns="http://www.w3.org/2000/svg" xmlns:cc="http://creativecommons.org/ns#" xmlns:dc="http://purl.org/dc/elements/1.1/" xmlns:sodipodi="http://sodipodi.sourceforge.net/DTD/sodipodi-0.dtd" xmlns:svg="http://www.w3.org/2000/svg" xmlns:ns1="http://sozi.baierouge.fr" xmlns:xlink="http://www.w3.org/1999/xlink" id="svg12257" sodipodi:docname="dancers.svg" viewBox="0 0 744.09 1052.4" sodipodi:version="0.32" inkscape:output_extension="org.inkscape.output.svg.inkscape" inkscape:version="0.46">
  <defs id="defs12259">
    <filter id="filter4850" height="1.3203" width="1.1597" y="-.16013" x="-.079826" inkscape:collect="always">
      <feGaussianBlur id="feGaussianBlur4852" stdDeviation="0.27763686" inkscape:collect="always"/>
    </filter>
    <filter id="filter4926" height="1.7687" width="1.1313" y="-.38434" x="-.065654" inkscape:collect="always">
      <feGaussianBlur id="feGaussianBlur4928" stdDeviation="0.60299971" inkscape:collect="always"/>
    </filter>
  </defs>
  <sodipodi:namedview id="base" bordercolor="#666666" inkscape:pageshadow="2" guidetolerance="10" pagecolor="#ffffff" gridtolerance="10000" inkscape:window-height="667" inkscape:zoom="0.31042861" objecttolerance="10" showgrid="false" borderopacity="1.0" inkscape:current-layer="layer1" inkscape:cx="372.04724" inkscape:cy="541.74885" showguides="true" inkscape:window-y="0" inkscape:window-x="44" inkscape:window-width="640" inkscape:guide-bbox="true" inkscape:pageopacity="0.0" inkscape:document-units="px"/>
  <g id="layer1" inkscape:label="Layer 1" inkscape:groupmode="layer">
    <g id="g3071">
      <path id="path7106" sodipodi:nodetypes="ccccc" style="fill:#bed2ff" d="m744.14-0.013417v211.11l-743.44 1.97-0.7-213.08 744.14-0.003417z"/>
      <path id="rect7110" sodipodi:nodetypes="cccccc" style="fill:#dfdfdf" d="m104.87 211.13h639.27l0.01 841.27c-39.76 0-74.31 0.3-111.81 0.3l-347.59-0.2-179.88-841.37z"/>
      <path id="path10408" sodipodi:nodetypes="cccssssssccc" style="fill:#f8dda6" d="m650.39 598.1c-24.59-34.33-17.67-45.34-12.28-93.81 11.53-42.87 38.82-83.17 29.82-104.67-0.68-1.37-3.84-2.8-9.23-4.03-2.04-0.47-4.52-0.88-7.01-1.27-10.37-1.64-23.95-2.4-35.41-1.1-14.64 1.65-3.95-17.45-8.8-18.98-7.41-2.33-32.61-3.09-31.47 1.28 0.89 3.44 1.39 18.31-7.69 17.6-26.34-2.06-43.59 27.13-37.37 74.06 10.85 44.39 70.96 74.01-4.07 129.52 0 0 0.22 1.1 123.51 1.4z"/>
      <path id="rect3782" sodipodi:nodetypes="ccccc" style="fill:#bdd2ff" d="m0 43.712l80.439-0.202 204.51 1009.1-284.95-0.2v-1008.7z"/>
      <path id="path7760" sodipodi:nodetypes="cssssssssssssssssssssssssssssssssssssssssssssssssssssssssssssssssssssssssssssssssssssssssssccsscssssssssssssssssssssssssssssssssssssc" style="fill:#efc993" d="m575.66 375.19c0.1-0.27 0.31-0.52 0.59-0.73 0.16-0.11 0.33-0.22 0.52-0.32 0.2-0.1 0.41-0.19 0.61-0.27 0.51-0.21 0.75-0.35 1.86-0.57 1.58-0.31 3.46-0.49 5.4-0.59 0.72-0.04 1.45-0.1 2.18-0.1 0.66 0.01 1.25 0 1.79 0 0.63 0.01 1.19-0.02 1.72-0.01 0.3 0.01 0.59 0.02 0.87 0.02 0.31 0 0.72 0.01 1.21 0.03 0.81 0.03 1.51 0.06 2.33 0.1 2 0.12 5.12 0.36 7.9 0.76 0.88 0.13 1.76 0.25 2.52 0.43 0.5 0.12 0.98 0.22 1.39 0.35 0.27 0.08 0.54 0.16 0.76 0.24 0.77 0.28 0.77 0.54 0.83 0.69 0.04 0.11 0.51 0.28 0.61 0.74 0.07 0.36 0.12 0.8 0.11 1.24 0 0.14 0 0.29-0.01 0.42-0.01 0.26-0.01 0.5-0.03 0.71-0.01 0.31-0.04 0.59-0.05 0.74-0.01 0.16-0.03 0.36-0.05 0.56-0.13 1.5-0.42 3.8-0.51 5.13-0.01 0.19-0.01 0.39-0.02 0.57-0.01 0.16-0.01 0.3-0.02 0.46 0 0.25 0.01 0.49 0.01 0.73 0 0.15 0.01 0.29 0.01 0.44s0.02 0.28 0.03 0.42c0.01 0.15 0.03 0.29 0.04 0.43s0.04 0.27 0.06 0.4c0.03 0.19 0.06 0.37 0.09 0.52 0.02 0.13 0.05 0.24 0.08 0.37 0.05 0.18 0.06 0.22 0.1 0.34 0.04 0.13 0.09 0.29 0.14 0.44 0.03 0.08 0.08 0.21 0.11 0.26 0.06 0.14 0.08 0.18 0.14 0.31 0.11 0.23 0.16 0.32 0.27 0.48 0.12 0.19 0.23 0.34 0.34 0.48 0.07 0.08 0.14 0.16 0.23 0.24 0.07 0.07 0.13 0.14 0.21 0.21 0.08 0.08 0.17 0.15 0.3 0.25 0.1 0.08 0.19 0.15 0.32 0.24 0.14 0.1 0.18 0.12 0.34 0.2 0.12 0.07 0.22 0.12 0.32 0.16 0.19 0.08 0.41 0.18 0.62 0.24 0.23 0.08 0.37 0.11 0.52 0.15 0.18 0.04 0.36 0.06 0.52 0.09 0.21 0.03 0.43 0.07 0.63 0.09 0.21 0.02 0.38 0.03 0.65 0.03 0.33 0 0.54 0.01 0.83 0 0.26-0.01 0.54-0.02 0.76-0.05 0.24-0.02 0.47-0.04 0.7-0.06 0.42-0.04 1.21-0.13 1.38-0.15 0.21-0.02 0.75-0.06 1.02-0.09 0.38-0.04 0.79-0.06 1.19-0.1 0.54-0.04 1.04-0.06 1.5-0.09 0.4-0.03 0.77-0.04 1.14-0.06 0.26-0.02 0.53-0.03 0.8-0.03 0.26-0.01 0.51-0.03 0.79-0.04 0.39-0.01 0.79-0.02 1.19-0.03 0.44-0.01 0.87-0.02 1.38-0.03 0.43-0.01 0.88-0.01 1.33-0.01 0.27 0 0.54 0 0.8-0.01 0.31 0 0.63 0.01 0.94 0.01 0.39-0.01 0.78 0.01 1.15 0.02 0.29 0 0.55 0.01 0.82 0.02 0.38 0 0.73 0.01 1.06 0.02 0.3 0 0.59 0.02 0.84 0.03 0.29 0.01 0.58 0.02 0.85 0.03h0.27c0.14 0 0.3 0.02 0.4 0.02s0.22 0.01 0.3 0.02c0.08 0 0.24 0.01 0.32 0.01 0.15 0.01 0.26 0.01 0.41 0.02 0.1 0 0.16 0.01 0.25 0.02h0.25c0.08 0.01 0.15 0.01 0.22 0.01 0.06 0 0.09 0.02 0.14 0.02 3.48 0.08 2.49 8.08 0.46 8.67-3.19 0.93-5.83 2.42-20.17 2.53-6.42 0.06-12.33-1.87-13.96-2.06-3.5-0.41-7.55-1.19-9.74-0.62-2.65 0.67-2.28 0.21 0.04-1.66 1.63-1.32 2.86-1.19 5.38-1.43 4.4-0.4 5.6-0.09 5.49-0.15-2.52-1.28-0.54-14.09-0.91-15.44-0.31-1.15-1.51 4.54-4.46 6.7-5.71 4.17-14.67-0.1-19-6.05-1.11-1.54 1.88 11.07-3.69 14.22-1.94 1.1 4.01-0.01 6.93 0.19 2.62 0.18 6.05 3.53 5.5 3.77-2.03-0.27-3.8-1.06-6.08-0.82-2.56 0.65-5.86 1.06-10.75 2.18-2.56 0.58-5.28 1.01-7.92 1.01-10.5 0.02-13.94-1.47-16.82-4.57-0.68-1.24 0.16-6.66 1-6.67 0.56-0.01 1.01-0.04 1.44-0.05 0.32 0 0.92-0.01 1.2-0.01 0.26-0.01 0.71-0.01 0.95-0.01h1.08c0.1 0 0.19-0.01 0.28-0.01 0.05 0 0.17 0.01 0.33 0.01h0.33 0.32 0.22 0.28c0.1 0 0.19 0 0.3 0.01h0.38 0.92c0.39 0.01 0.84 0.01 1.32 0.03 0.6 0.02 1.21 0.04 1.7 0.05 0.67 0.03 1.21 0.04 1.7 0.07 0.35 0.02 0.67 0.03 1 0.05 0.18 0.01 0.4 0.02 0.65 0.03 0.17 0.01 0.37 0.02 0.62 0.03 0.15 0.01 0.31 0.02 0.5 0.03 0.35 0.01 0.73 0.05 1.11 0.06 0.38 0.02 0.73 0.04 1.07 0.07l0.78 0.06c0.2 0.02 0.39 0.03 0.59 0.04 0.28 0.02 0.52 0.05 0.82 0.06 0.2 0.02 0.42 0.02 0.64 0.02 0.19 0 0.37-0.02 0.56-0.05 0.19-0.02 0.38-0.04 0.57-0.07 0.15-0.03 0.28-0.06 0.44-0.11 0.5-0.14 2.25-1.26 2.54-1.59 0.52-0.6 0.96-1.29 1.33-2.06 0.35-0.73 0.61-1.69 0.8-2.77 0.12-0.68 0.6-2.63 0.69-4.47 0.07-1.35 0.12-2.45 0.06-3.01-0.09-0.76-0.24-1.59-0.31-2.22-0.08-0.74-0.12-1.42-0.13-1.61z"/>
      <path id="path5890" sodipodi:nodetypes="cccccccccccccccccscscscccc" style="fill:#f8dda6" d="m584.05 178.32c0.63 1.89 1.04 3.71 4.81 6.23l4.29 1.26c-0.49 1.66 1.2 4.67 4.58 4.25 1.99 2.26 4 2.25 6 1.01 2.48 0.32 2.87 4.53 8.81-0.76 4.36 3.78 6.32 5.96 7.57 7.65-2.41 2.64-5.25 4.12-8.49 4.32-2.6-1.97-6.14-5.24-7.89-5.95-4.63-2.24-11.01-4.3-11.98 0.62l9.08 5.41 4.58 5.58c1.63 2.4 15 8.17 20.95 9.06l2.68 4.53 0.27 0.51c8.61 15.67 18.72 62.69 31.11 96.27-11 43.08-15.43 54.56-26.58 86.83 5.21 10.71 11.92 37 15.92 29.81 0.6-1.08-7.49 32.24 1.32 32.39 7.15-28.08 27.24-78.41 30.47-100.01 2.43-16.25 7.29-33.08 7.51-53.16-3.4-13.64-36.71-85.12-45.93-100.62-0.01-0.01-0.01-0.04-0.02-0.05-2.33-8.08-4.78-18.77-6.95-22.72-3.93-5.71-7.45-13.53-13.21-14.89-13.31-1.3-29.5-0.86-38.9 2.43z"/>
      <path id="path5892" sodipodi:nodetypes="cssssscscssss" style="fill:#efc993" d="m669.58 421.31c5.44-20.94 8.67-33.06 11.48-50.93 0.06-0.38 0.12-0.77 0.19-1.16 0.04-0.28 0.11-0.56 0.15-0.85 0.04-0.31 0.09-0.64 0.14-0.96 0.3-2.03 0.65-4.06 1.01-6.1 2.54-14.4 6.36-29.49 6.55-47.07-3.39-13.64-36.72-85.14-45.94-100.65-0.01-0.01-0.03-0.04-0.04-0.05-0.83-2.88 4.38 24.01 20.06 57.1 6.62 13.98 13.94 27.67 17.49 44.06 2.67 12.32-1.93 27.3-4.23 40-6.5 35.78-6.89 66.73-6.86 66.61z"/>
      <path id="path5526" sodipodi:nodetypes="cccccccccccccccccscscscccc" style="fill:#f8dda6" d="m604.2 178.32c-0.63 1.89-1.03 3.71-4.8 6.23l-4.3 1.26c0.49 1.66-1.19 4.67-4.57 4.25-2 2.26-4 2.25-6 1.01-2.49 0.32-2.87 4.53-8.82-0.76-4.35 3.78-6.32 5.96-7.57 7.65 2.42 2.64 5.25 4.12 8.5 4.32 2.59-1.97 6.13-5.24 7.88-5.95 4.64-2.24 11.02-4.3 11.99 0.62l-9.09 5.41-4.58 5.58c-1.62 2.4-14.99 8.17-20.95 9.06l-2.68 4.53-0.27 0.51c-8.61 15.67-18.72 62.69-31.1 96.27 11 43.08 15.42 54.56 26.57 86.83-5.21 10.71-11.92 37-15.91 29.81-0.61-1.08 1.27 34.51-7.54 34.67-7.15-28.09-21.03-80.69-24.26-102.29-2.42-16.25-7.28-33.08-7.5-53.16 3.39-13.64 36.7-85.12 45.92-100.62 0.01-0.01 0.01-0.04 0.02-0.05 2.33-8.08 4.78-18.77 6.95-22.72 3.94-5.71 7.45-13.53 13.21-14.89 13.32-1.3 29.5-0.86 38.9 2.43z"/>
      <path id="path7104" style="stroke:#000000;stroke-width:6.562;fill:none" d="m0.77174 862.01l149.39 0.31"/>
      <path id="path5487" style="stroke:#000000;stroke-width:5.55;fill:none" d="m0.49993 196.07l57.734 0.82"/>
      <g id="g11818" transform="matrix(.98756 -.15723 .15723 .98756 -419.34 -1043)">
        <path id="path11196" sodipodi:nodetypes="cccccccc" style="fill:#782c15" inkscape:connector-curvature="0" d="m275.62 1211.8h8.54l-1.71 175.5-1.17 211.3-1.17 211.4-7 221.8h-16.01l18.52-820z"/>
        <path id="path11200" sodipodi:nodetypes="ccccccc" style="fill:#8e4419" inkscape:connector-curvature="0" d="m275.62 1211.8c4.65 1.3 4.98 0 8.54 0 0.61 17 4.32 142.6 4.01 196.3 0.1 69.3-11.3 624.9-15.06 623.7h-15.04c0.09-109 7.17-175.6 8-284.6 0.66-105 9.55-535.4 9.55-535.4z"/>
        <path id="path11198" sodipodi:nodetypes="ccccccccc" style="fill:#aa5430" inkscape:connector-curvature="0" d="m281.34 1211.8l16.2 800-3.15 17.5-5.63 2.5h-15.65l-0.75-424.1-0.56-213.6 6.23-182.3h3.31z"/>
        <path id="path5802" sodipodi:nodetypes="csss" style="fill:#eb9749" inkscape:connector-curvature="0" d="m281.14 1211.8c0.03 6.6 7.02 820.1 7.57 820.1h15.63c0.03 0-23.2-820.1-23.2-820.1z"/>
        <path id="path11618" sodipodi:nodetypes="cccscscsssscsccscccssssccccccssc" style="fill:#cab79a" d="m281.37 1866c0.01-12.6 0-25.1-0.01-37.7-0.15-121.1-0.28-35.3-0.3-159.7-0.01-28.3 0.1-56.6 0.1-84.9-0.01-42-0.11-84.1-0.14-126-0.07-0.2-0.13-0.4-0.2-0.5-0.04-0.2-0.19-0.4-0.36-0.9 0.07 33.3 0.07 41.2 0.04 127.3-0.01 28.2 0 56.6-0.04 84.9-0.04 27.2-0.18 54.4-0.2 81.7-0.01 26 0.08 52 0.1 78 0.03 25.1 0.02 50.2 0.02 75.3-0.03 24-0.08 48-0.1 72-0.01 32.1-0.08 47.2-0.07 56.3 0.36 0 0.93 0 1.15 0.2-0.01-11.9 0-22.4 0-56.5-0.01-24 0-47.9 0-71.9 0-12.5 0.01-25.1 0.01-37.6zm-0.37-411.2c-0.05-0.2-0.07-0.4-0.12-0.6-0.01 0-0.01 0.1-0.02 0.1 0.03 0.3 0.07 0.7 0.12 0.9 0.01 0 0.01 0.1 0.02 0.1v-0.5zm0 2.1c-0.15-0.2-0.29-0.4-0.44-0.6 0.23 0.6 0.08 0.2 0.44 1.1v-0.5zm-0.44-0.6c-0.06-0.2-0.06-0.3-0.12-0.5v0.3c0.04 0 0.08 0.2 0.12 0.2z"/>
      </g>
      <path id="path5520" sodipodi:nodetypes="ccccccccccsccc" style="fill-rule:evenodd;fill:#f8dda6" d="m583.54 568.75l-144.65 42.46c-20.93 9.6-23.63 25.88-15.32 42.47 8.17 12.47 62.04 51.92 94.03 77.88l10.61 11.95c34.54 35.57 50.07 47.1 73.91 58.79 6.74 2.24 16.04-2.66 9.29-12.72l-33.18-25.76-9.26-17.41c-4.14-10.1-10.57-14.45-22.59-17.09-1.23-0.48-1.72-1.66-3.03-2.96-12.2-12.17-33.78-55.71-64.65-81.97 55.56 3.51 71.1 11.94 108.2 4.58l-3.36-80.22z"/>
      <path id="path4838" sodipodi:nodetypes="ccccssssccc" style="fill-rule:evenodd;fill:#efc993" d="m549.65 576.37l-110.76 34.84c-20.93 9.6-25.56 25.88-17.25 42.47 8.17 12.47 63.97 51.92 95.96 77.88 0.76 0.93-37.93-43.48-61.1-61.54-1.8-1.4-4.36-3.82-5.75-5.05-7.34-6.54-10.26-9.35-19.2-23.38-1.02-1.59-1.57-6.37 0.53-8.93 5.53-6.74 18.87-11.48 30.06-14.56 58.46-13.69 74.09-29.52 82.2-35.23l5.31-6.5z"/>
      <path id="path5453" sodipodi:nodetypes="ccssssccsssscssssc" style="fill:#f8dda6" d="m585.4 679.57c-0.65 42.21 10.06 109.11 10.96 118.77 2.48 29.84 3.26 68.22 8.67 113.99 0.6 5.08 4 18.53-2.01 19.81-25.85 5.51-8.5 27.18-3.5 35.94 4.45 7.79 3.98 44.82 4.48 50.22 0.41 4.5 0.4 6.1 0.6 9.5 1.5 3.2 6.18 6.2 12.92 2.1 1.59-1.6 3.17-9.2 4.08-13.8 1.26-6.3 6.04-32.24 6.94-40.04 1.33-11.49 0.38-20.86 0.09-34.7-0.16-7.56 0.31-17.36 1.09-28.6 2.69-38.54 9.04-93.94 6.28-133.5 8.85-32.08 15.28-84.44 21.24-124.58 0.42-2.82 0.84-5.2 1.26-7.89 0.44-2.78 2.61-28.21-8.13-48.68-0.99-1.88-45.01-24.13-66.14-5.47-11.22 9.9 0.73 60.56 1.17 86.93z"/>
      <path id="path4735" sodipodi:nodetypes="ccssssssssssssssssssssssssssssssssssssssssssssssssssssssssssssssssssssssssssssssssssssssssssssssssssssssssssssssssssssssscsssc" style="fill:#efc993" d="m634.61 693.84c-5.86 43.32-8.67 93.75-9.85 111.09-0.65 19.95 0.36 68.22 0.56 112.89 0.01 0.35 4.08-0.02 4.08-0.06 0-0.08 0.21-3.22 0.22-3.3 0.01-0.3 0.05-0.7 0.06-1.05 0.02-0.55 0.14-1.22 0.16-1.74 0.02-0.79 0.12-1.9 0.18-2.62 0.11-1.32 0.16-1.53 0.22-2.95 0.03-0.72 0.06-1.23 0.13-1.94 0.16-1.84 0.46-3.88 0.48-6.1 0-0.08 0.01-0.15 0.02-0.24 0.01-0.21 0.03-0.43 0.04-0.65 0.02-0.16 0.03-0.33 0.05-0.5 0.01-0.1 0.01-0.18 0.02-0.27 0.02-0.14 0.02-0.29 0.03-0.43 0.02-0.19 0.03-0.39 0.05-0.59 0.02-0.19 0.02-0.4 0.05-0.6 0.02-0.17 0.02-0.35 0.04-0.53 0.05-0.34 0.04-0.71 0.09-1.06 0.04-0.33 0.04-0.68 0.08-1.02 0.03-0.3 0.05-0.61 0.08-0.91 0.03-0.27 0.04-0.54 0.06-0.82 0.07-0.63 0.11-1.27 0.16-1.92 0.03-0.33 0.05-0.66 0.09-1 0.03-0.27 0.04-0.55 0.07-0.83 0.19-1.74 0.32-3.55 0.44-5.4 0.02-0.31 0.04-0.62 0.07-0.93 0.06-0.47 0.08-0.96 0.13-1.44 0.17-1.7 0.3-3.45 0.43-5.24 0.02-0.19 0.03-0.37 0.05-0.57 0.03-0.32 0.04-0.65 0.07-0.97 0.03-0.31 0.05-0.62 0.08-0.93 0.02-0.2 0.02-0.41 0.04-0.62 0.03-0.32 0.05-0.65 0.08-0.97 0.03-0.31 0.05-0.62 0.08-0.94 0.07-0.73 0.12-1.47 0.18-2.21 0.02-0.2 0.02-0.38 0.04-0.58 0.01-0.22 0.04-0.42 0.05-0.64 0.01-0.21 0.03-0.43 0.06-0.64l0.06-0.66c0.02-0.14 0.03-0.29 0.04-0.43 0.03-0.22 0.03-0.43 0.04-0.66 0.01-0.17 0.04-0.34 0.04-0.52 0.01-0.19 0.02-0.39 0.04-0.59 0.01-0.18 0.01-0.37 0.03-0.55 0.03-0.27 0.04-0.55 0.07-0.82 0.02-0.16 0.02-0.32 0.03-0.49 0.03-0.19 0.03-0.39 0.05-0.58 0.02-0.16 0.02-0.32 0.04-0.48 0.03-0.27 0.04-0.54 0.06-0.81 0.01-0.29 0.04-0.57 0.06-0.86 0.01-0.24 0.04-0.48 0.05-0.74 0.01-0.28 0.05-0.56 0.07-0.85 0.01-0.26 0.03-0.52 0.06-0.78 0.01-0.15 0.01-0.29 0.03-0.44 0.02-0.26 0.03-0.54 0.05-0.81 0.03-0.25 0.04-0.5 0.06-0.75 0.02-0.21 0.03-0.43 0.05-0.65 0.02-0.26 0.03-0.52 0.05-0.78 0.03-0.28 0.04-0.56 0.06-0.84 0.04-0.38 0.05-0.77 0.08-1.15 0.04-0.45 0.06-0.9 0.1-1.35 0.02-0.32 0.04-0.63 0.06-0.95 0.03-0.3 0.04-0.61 0.06-0.92 0.03-0.31 0.04-0.63 0.06-0.94 0.03-0.35 0.05-0.7 0.07-1.05 0.04-0.46 0.06-0.92 0.09-1.38 0.05-0.63 0.08-1.26 0.13-1.89 0.03-0.47 0.05-0.94 0.08-1.42 0.02-0.37 0.04-0.75 0.07-1.13 0.02-0.26 0.02-0.52 0.04-0.78 0.02-0.21 0.02-0.42 0.04-0.63 0.02-0.27 0.02-0.55 0.04-0.82 0.03-0.26 0.03-0.53 0.05-0.8 0.02-0.15 0.01-0.3 0.03-0.45 0.02-0.25 0.02-0.51 0.04-0.77 0.02-0.23 0.02-0.46 0.04-0.69 0.02-0.27 0.02-0.55 0.04-0.82 0.01-0.23 0.02-0.47 0.03-0.7 0.02-0.25 0.02-0.49 0.04-0.73 0.03-0.36 0.04-0.72 0.07-1.08 0.01-0.2 0.01-0.4 0.02-0.6s0.01-0.39 0.03-0.59c0.02-0.27 0.02-0.54 0.04-0.81 0.01-0.2 0.01-0.4 0.02-0.6 0.02-0.19 0.02-0.39 0.03-0.59 0.01-0.26 0.04-0.52 0.05-0.78 0.01-0.36 0.02-0.72 0.04-1.08 0.02-0.32 0.03-0.65 0.05-0.98 0.01-0.18 0-0.37 0.01-0.56 0.02-0.3 0.02-0.6 0.04-0.9 0.02-0.28 0.02-0.57 0.04-0.85 0.01-0.22 0.01-0.43 0.02-0.65 0.02-0.32 0.02-0.65 0.04-0.97 0.01-0.25 0.01-0.5 0.02-0.75 0.02-0.37 0.03-0.75 0.04-1.12 0.02-0.34 0.02-0.69 0.04-1.03 0.01-0.34 0.02-0.68 0.03-1.01 0.02-0.36 0.02-0.72 0.03-1.08 0.02-0.31 0.01-0.63 0.03-0.94 0.02-0.54 0.02-1.09 0.04-1.63 0.01-0.29 0.01-0.57 0.02-0.86 0.01-0.37 0.01-0.73 0.02-1.09 0.04-1.01 0.03-2.03 0.06-3.03 0.01-0.4 0-0.79 0.01-1.18 0.01-0.3 0-0.61 0.01-0.92 0.01-0.42 0-0.85 0.01-1.27 0.01-0.32 0-0.64 0.01-0.95 0.01-0.54 0-1.07 0.01-1.6 0-0.43-0.01-0.86-0.01-1.28 0.01-0.44 0-0.87 0-1.3 0-0.48-0.01-0.95-0.01-1.43 0-0.29-0.01-0.59-0.01-0.89 0-0.56-0.01-1.13-0.02-1.69 0-0.61-0.02-1.23-0.03-1.83 0-0.58-0.03-1.15-0.04-1.73-0.01-0.59-0.03-1.18-0.05-1.77-0.02-0.85-0.06-1.69-0.09-2.52-0.02-0.73-0.06-1.46-0.09-2.17-0.04-1.05-0.1-2.08-0.16-3.1-0.05-0.91-0.12-1.8-0.18-2.68 8.85-32.08 15.28-84.44 21.24-124.58 0.42-2.82 1.32-4.8 1.33-7.52 0-3.47-0.6-4.99-1.42-8.32-0.74-2.98-19.42 33.33-22.54 55z"/>
      <g id="g4809" style="fill:#fff1fc" transform="matrix(.87135 0 0 .91938 100.94 109.06)">
        <path id="path5469" sodipodi:nodetypes="cssccsssc" style="fill:#fff1fc" d="m576.2 895.25c-29.67 5.99-9.76 29.57-4.01 39.1 5.1 8.47 4.19 48.77 4.39 54.62 0.18 5.22-0.28 7.11 1.44 10.33 1.72 3.4 7.09 6.8 14.82 2.2 3.32-2.13 3.65-9.93 4.68-14.87 1.43-6.8-10.3-93.54-20.7-91.54-0.06 0.01-0.1 0.03-0.16 0.05-0.16 0.04-0.3 0.07-0.46 0.11z"/>
        <path id="rect5471" sodipodi:nodetypes="ccccsc" style="fill:#fff1fc" d="m579.49 879.74l26.98-0.11c-0.15 3.4-0.44 6.81-0.59 10.21h-25.8c0.08-0.47 0.1-0.94 0.12-1.43 0.13-2.77-0.42-5.76-0.71-8.67z"/>
        <g id="g4799" style="fill:#fff1fc">
          <path id="path5474" sodipodi:nodetypes="ccccssssssc" style="fill:#fff1fc" d="m579.54 892.18l26.5 44.99c-0.1 1.53-0.21 3.25-0.6 6.32l-29.98-47.24c0.54-0.16 1.29-1.14 1.35-1.16 0.03-0.01 0.05-0.02 0.08-0.03 0.04-0.01 0.08-0.03 0.11-0.04 0.03-0.02 0.08-0.03 0.12-0.05 0.07-0.03 0.07-0.04 0.15-0.08l0.18-0.09c0.95-0.53 1.65-1.47 2.09-2.62z"/>
          <path id="path5476" sodipodi:nodetypes="ccccc" style="fill:#fff1fc" d="m568.1 926.8l34.08-39.38c1.48-0.37 0.54 2.4 3.7 2.42l-32.65 39.69c-1.09-1.56-3.29-1.95-5.13-2.73z"/>
        </g>
      </g>
      <g id="g4803" style="fill:#fff1fc" transform="matrix(-.44615 .47744 -.47744 -.44615 1249 871.37)">
        <path id="path4805" sodipodi:nodetypes="ccccssssssc" style="fill:#fff1fc" d="m579.54 892.18l30.64 47.51c-0.12 1.53-0.22 3.52-0.61 6.58l-34.11-50.02c0.54-0.16 1.29-1.14 1.35-1.16 0.03-0.01 0.05-0.02 0.08-0.03 0.04-0.01 0.08-0.03 0.11-0.04 0.03-0.02 0.08-0.03 0.12-0.05 0.07-0.03 0.07-0.04 0.15-0.08l0.18-0.09c0.95-0.53 1.65-1.47 2.09-2.62z"/>
        <path id="path4807" sodipodi:nodetypes="ccccc" style="fill:#fff1fc" d="m568.1 926.8l43.41-47.81c0.1 1.24 0.06 3.39 0.09 5.5l-38.37 45.04c-1.09-1.56-3.29-1.95-5.13-2.73z"/>
      </g>
      <g id="g4786" style="fill:#fff1fc" transform="matrix(.86781 0 0 .86781 88.876 124.8)">
        <path id="path5522" sodipodi:nodetypes="ccccc" style="fill-rule:evenodd;fill:#fff1fc" d="m588.4 777.6c7.14 5.2 18.49-3.07 10.7-14.66-18.27-21.18-38.24-37.45-35.17-57.21-1.18-24.78-26.16-9.27-40.01-12.31 11.05 12.23 40.56 64.75 64.48 84.18z"/>
        <path id="path5524" sodipodi:nodetypes="ccccc" style="fill-rule:evenodd;fill:#fff1fc" d="m522.26 691.67l-19.33 17.54-5.87-6.59 20.04-17.38c1.22 1.58 3.68 4.81 5.16 6.43z"/>
      </g>
      <path id="path4739" sodipodi:nodetypes="cscsscssss" style="fill:#efc993" d="m518.63 421.35c-5.73-22.09-9-34.38-11.91-53.93-2.43-16.25-7.52-33.1-7.74-53.18 1.04-4.19 4.98-13.79 10.03-25.63 11.36-26.62 29.7-64.27 36.09-75.02 0.01-0.01 0.02-0.04 0.03-0.05 0.84-2.88-4.38 24.01-20.05 57.1-6.63 13.98-13.94 27.67-17.5 44.06-2.67 12.32 1.93 27.3 4.24 40 6.49 35.78 6.84 66.77 6.81 66.65z"/>
      <path id="path4747" sodipodi:nodetypes="cccccccccccsccc" style="fill:#ffe9b5" d="m593.41 183.21c0.53 0.59 2.79 2.31-0.42 3.81 0 0-0.86 1.32-3.48 0.67-1.79 1.48-4.85 1.53-6.3 0.41-1.94 0.75-4.58 2.52-7.61 0.31-3.8 2.38-7.9 7.34-9.05 8.47 0.89 3.16 5.2 6.45 9.87 6.83 2.37 0.01 8.11-5.7 9.14-5.94 3.54-2 7.47-2.75 6.47 0.39-5.24 2.06-8.02 7.29-11.84 9.96-2.39 1.24-13.03 2.13-17.25 0.46 0 0-7.34-4.1-8.49-8.45-1.16-4.41 0.38-7.5 1.67-9.18 3.66-3.85 5.92-11.68 10.58-12.12 11.5-1.58 19.33-1.33 26.71 4.38z"/>
      <path id="path4928" sodipodi:nodetypes="cccccccccccccccccscscscccc" style="fill:#f8dda6" d="m267.42 59.776c0.54 1.329 0.91 2.623 3.74 4.273l2.71 0.74c-0.28 1.221 1.51 3.287 3.92 2.831 1.54 1.542 2.99 1.446 4.37 0.463 1.8 0.113 2.27 3.129 6.32-0.945 3.3 2.533 4.82 4.011 5.79 5.173-1.62 2.008-3.6 3.2-5.93 3.491-1.95-1.304-4.72-3.836-5.94-3.935-3.44-1.405-8.13-2.602-8.61 0.985l6.79 3.492 3.55 3.814c1.28 1.652 11.16 5.217 15.49 5.593l2.14 3.136 0.22 0.357c6.9 10.906 16.28 44.326 26.7 67.956-6 31.53-8.67 39.99-15.26 63.73 4.23 7.49 5.57 11.95 13.55 14.22 3.28 0.93 11.47 0.25 12.33-2.16 3.9-20.55 5.44-25.72 6.8-41.42 1.02-11.82 3.77-24.15 3.03-38.63-3.05-9.67-30.24-59.671-37.58-70.429-0.01-0.009-0.01-0.027-0.01-0.036-2.05-5.712-4.29-13.304-6.03-16.052-3.09-3.939-5.97-9.411-10.18-10.136-9.65-0.339-21.29 0.699-27.91 3.489z"/>
      <path id="path2940-7-0-0-2-5-4-6" sodipodi:nodetypes="cccsssssscccc" style="fill:#f8dda6" d="m364.42 358.35c-21.05-22.95-21.61-30.81-27.3-64.33-0.51-30.94 7.36-62.42-2.81-75.1-0.72-0.79-3.11-1.14-6.95-0.93-1.46 0.08-3.2 0.28-4.94 0.5-7.27 0.9-20.52 5-27.95 8.06-9.49 3.92-5.99-10.93-9.54-11.02-5.41-0.14-22.44 4.18-20.84 6.9 1.26 2.13 4.45 12-1.77 13.27-18.05 3.67-27.69 8.23-27.88 11.72 3.01 16.42-1.69 31.26 35.73 63.54 33.75 25.53 18.02 38.65 7.48 67.12 0 0 4.09 3.75 86.77-19.73z"/>
      <path id="rect3780" sodipodi:nodetypes="cssssssssssssssssssssssssssssssssssssssssssssssssssssssssssssccsscsssssssssssssssssssssssssc" style="fill:#efc993" d="m264.13 221.58c0.06-0.1 0.22-0.3 0.43-0.51 0.08-0.08 0.18-0.14 0.27-0.21 0.34-0.24 0.72-0.42 0.84-0.45 0.32-0.07 0.6-0.39 0.95-0.55s0.74-0.42 1.63-0.76c1.04-0.39 1.8-0.58 3.07-1.02 0.48-0.16 1.03-0.27 1.52-0.41 0.45-0.13 0.85-0.28 1.2-0.38 0.43-0.12 0.75-0.18 1.1-0.27 0.21-0.06 0.5-0.09 0.7-0.14 0.2-0.06 0.47-0.09 0.8-0.17 0.55-0.14 0.89-0.21 1.53-0.34 1.37-0.26 3.48-0.69 5.42-0.95 0.62-0.09 1.23-0.17 1.78-0.2 0.36-0.01 0.69-0.04 0.99-0.03 0.2 0 0.4 0 0.56 0.01 0.57 0.05 0.62 0.22 0.69 0.3 0.05 0.07 0.17 0.18 0.32 0.47 0.33 0.62 0.58 1.69 0.65 2.03 0.21 0.97 0.62 2.88 0.84 3.9 0.28 1.31 0.56 2.41 1 3.17 0.07 0.12 0.15 0.22 0.22 0.32 0.06 0.09 0.11 0.15 0.18 0.23 0.12 0.13 0.22 0.23 0.32 0.33 0.18 0.17 0.37 0.32 0.57 0.45 0.12 0.07 0.27 0.15 0.46 0.23 0.17 0.06 0.37 0.13 0.63 0.18 0.43 0.08 0.75 0.06 1.03-0.04 0.47-0.17 0.76-0.26 1.3-0.48 0.23-0.09 0.39-0.16 0.58-0.23 0.33-0.14 0.68-0.28 0.97-0.39 0.28-0.11 0.52-0.21 0.85-0.32 0.27-0.09 0.54-0.21 0.72-0.27 0.59-0.21 1.25-0.47 1.78-0.65 0.29-0.09 0.56-0.18 0.81-0.26 0.31-0.11 0.59-0.22 0.97-0.33 0.52-0.16 1.04-0.38 1.7-0.58 0.15-0.04 0.35-0.11 0.52-0.17 0.16-0.05 0.39-0.12 0.58-0.18 0.15-0.04 0.38-0.13 0.53-0.17 0.24-0.07 0.3-0.09 0.54-0.17 0.21-0.06 0.29-0.09 0.5-0.16 0.24-0.08 0.45-0.14 0.67-0.2 0.26-0.07 0.51-0.16 0.73-0.23 0.2-0.06 0.38-0.12 0.56-0.17 0.14-0.04 0.35-0.1 0.64-0.18 0.28-0.08 0.38-0.11 0.45-0.13 0.04-0.02 0.5 0.5 0.57 0.56 0.73 0.65 2.92 5.21 2.69 5.36-1.96 1.23-3.44 2.74-13.03 5.57-4.29 1.27-8.62 1.11-9.75 1.3-2.42 0.4-5.29 0.65-6.65 1.45-1.64 0.96-1.49 0.59-0.29-1.11 0.84-1.2 1.69-1.35 3.33-1.99 2.87-1.12 3.74-1.15 3.65-1.16-1.93-0.38-3.07-9.34-3.57-10.17-0.43-0.71-0.14 3.33-1.71 5.34-3.02 3.9-9.85 2.75-13.89-0.41-1.04-0.81 3.39 7.07 0.26 10.25-1.09 1.1 2.69-0.78 4.68-1.21 1.79-0.38 4.73 1.2 4.41 1.47-1.41 0.21-2.75 0.02-4.23 0.62-1.6 0.92-3.72 1.84-6.79 3.53-1.6 0.88-3.34 1.68-5.11 2.19-7.03 2.04-9.63 1.7-12.15 0.17-0.69-0.7-1.26-4.66-0.7-4.83 0.37-0.11 0.91-0.25 1.19-0.34 0.21-0.06 0.37-0.09 0.55-0.14 0.18-0.06 0.39-0.11 0.55-0.16 0.3-0.09 0.62-0.14 0.88-0.22 0.17-0.05 0.34-0.08 0.5-0.13 0.36-0.1 0.67-0.15 1.14-0.28 0.38-0.1 0.77-0.18 1.18-0.28 0.29-0.08 0.58-0.14 0.86-0.2 0.23-0.05 0.45-0.09 0.66-0.14 1.66-0.4 2.23-0.51 3.79-0.83 0.38-0.08 0.66-0.16 0.92-0.26 0.3-0.11 0.55-0.26 0.94-0.51 0.54-0.36 1.02-1.07 1.24-1.48 0.17-0.31 0.29-0.67 0.35-0.86 0.03-0.09 0.06-0.18 0.09-0.28 0.04-0.19 0.08-0.35 0.11-0.51 0.09-0.55 0.15-1.39 0.12-2.15-0.02-0.41-0.08-1.26-0.28-2.29-0.03-0.17-0.07-0.34-0.11-0.52-0.12-0.51-0.21-1-0.35-1.42-0.11-0.34-0.19-0.63-0.25-0.8-0.05-0.12-0.08-0.25-0.14-0.37-0.15-0.38-0.3-0.76-0.42-1.06-0.11-0.27-0.4-0.67-0.46-1.02-0.05-0.27 0.07-0.53 0.12-0.6z"/>
      <path id="path4930" sodipodi:nodetypes="cscscssssssssc" style="fill:#efc993" d="m339.3 232.99c3.9-20.55 5.44-25.72 6.8-41.42 1.02-11.82 3.77-24.15 3.03-38.63-3.05-9.67-30.24-59.671-37.58-70.429-0.01-0.009-0.01-0.027-0.01-0.036-0.73-2.04 4.27 17.081 17.04 40.215 5.39 9.77 11.28 19.3 14.57 30.96 2.47 8.75-0.17 19.75-1.26 29-3.24 27.41-3.07 48.36-2.74 50.23 0.01 0.05 0.01 0.1 0.01 0.13s-0.01 0.26 0 0.26 0.05-0.07 0.07-0.12c0.02-0.03 0.06-0.12 0.05-0.09-0.01 0.02 0.01-0.05 0.02-0.07z"/>
      <path id="path2983" sodipodi:rx="6.7984004" sodipodi:ry="7.8949165" style="stroke:#75591f;stroke-width:0.9;fill:#000000" sodipodi:type="arc" d="m17.106 562.88a6.7984 7.8949 0 1 1 -13.597 0 6.7984 7.8949 0 1 1 13.597 0z" transform="matrix(1.738 -2.3404 2.4308 1.1098 -1208.7 318.84)" sodipodi:cy="562.87732" sodipodi:cx="10.307253"/>
      <path id="path3952" sodipodi:nodetypes="ccssssccsssscsssc" style="fill:#f8dda6" d="m306.26 394.53c2.98 35.55 8.33 92.64 9.03 100.8 1.91 25.2 5.52 57.63 9.71 96.31 0.46 4.29 3.09 15.65-1.56 16.73-20.03 4.66-6.59 22.97-2.71 30.37 3.44 6.58 3.08 37.91 3.46 42.43 0.33 3.82 0.32 5.18 0.47 8.02 1.17 2.68 4.79 5.28 10.01 1.75 1.23-1.35 2.46-7.76 3.16-11.59 0.98-5.39 4.68-27.28 5.38-33.87 1.03-9.7 0.29-17.62 0.06-29.31-0.12-6.39 0.25-14.67 0.85-24.17 2.08-32.56 7-79.37 4.87-112.8 6.85-27.1 24.83-69.34 23.44-104.75-0.09-2.41-0.81-4.83-1.77-6.92-1.66-3.6-4.48-7.43-6.04-9.03-1.2-1.22-65.97-38.15-58.36 36.03z"/>
      <path id="path3954" sodipodi:nodetypes="cscssssssssssssssssssssssssssssssssssssssssssssssssssssssssssssssssssssssssssssssssssssssssssssssssssssssssssssssssssssssscssssss" style="fill:#efc993" d="m347.9 407.04c-2.62 21.15-7.45 43.98-9.46 62.3-1.47 13.39-0.49 24.37-0.66 30.55-0.5 16.86 2.78 58.64 2.94 96.39 0 0.29 3.15-0.03 3.15-0.05 0-0.07 0.17-2.73 0.17-2.8 0.01-0.25 0.04-0.58 0.05-0.88 0.01-0.46 0.11-1.03 0.12-1.47 0.02-0.67 0.1-1.6 0.14-2.21 0.09-1.12 0.13-1.3 0.17-2.49 0.02-0.62 0.05-1.04 0.1-1.65 0.13-1.55 0.36-3.27 0.38-5.15 0-0.07 0-0.13 0.01-0.2 0.01-0.18 0.02-0.37 0.04-0.55 0-0.14 0.02-0.28 0.03-0.42 0-0.09 0.01-0.16 0.02-0.23 0.01-0.12 0.01-0.25 0.02-0.37 0.02-0.16 0.03-0.32 0.04-0.49s0.01-0.34 0.04-0.51c0.02-0.15 0.01-0.3 0.03-0.45 0.04-0.29 0.03-0.6 0.07-0.9 0.03-0.28 0.03-0.57 0.06-0.86 0.03-0.25 0.03-0.51 0.06-0.77 0.02-0.22 0.03-0.46 0.05-0.68 0.05-0.54 0.08-1.08 0.12-1.63 0.02-0.28 0.04-0.56 0.07-0.84 0.02-0.23 0.03-0.47 0.06-0.71 0.14-1.47 0.24-3 0.34-4.56 0.02-0.26 0.03-0.52 0.05-0.78 0.04-0.41 0.06-0.81 0.1-1.22 0.13-1.44 0.23-2.92 0.34-4.43 0.01-0.16 0.02-0.31 0.03-0.48 0.03-0.27 0.03-0.55 0.06-0.82 0.02-0.26 0.03-0.52 0.06-0.78 0.01-0.18 0.02-0.35 0.03-0.53 0.03-0.27 0.04-0.55 0.06-0.82 0.03-0.26 0.04-0.53 0.06-0.79 0.06-0.62 0.1-1.25 0.14-1.87 0.02-0.17 0.02-0.33 0.03-0.49 0.02-0.18 0.03-0.35 0.04-0.54 0.01-0.18 0.03-0.36 0.05-0.54 0.02-0.19 0.03-0.37 0.05-0.56 0.01-0.12 0.02-0.25 0.03-0.37 0.02-0.18 0.02-0.36 0.03-0.55 0.01-0.14 0.03-0.29 0.03-0.44 0.01-0.16 0.01-0.33 0.03-0.5 0.01-0.15 0.01-0.31 0.03-0.46 0.02-0.23 0.03-0.46 0.05-0.69 0.01-0.14 0.01-0.28 0.03-0.42 0.01-0.16 0.01-0.33 0.03-0.49 0.01-0.14 0.02-0.27 0.03-0.4 0.02-0.23 0.03-0.46 0.04-0.69 0.02-0.24 0.04-0.48 0.05-0.72 0.01-0.21 0.03-0.41 0.04-0.63 0.01-0.24 0.04-0.47 0.06-0.72 0.01-0.22 0.02-0.44 0.04-0.66 0.01-0.12 0.01-0.24 0.02-0.37 0.02-0.22 0.03-0.45 0.05-0.68 0.02-0.21 0.02-0.43 0.04-0.64 0.02-0.18 0.02-0.36 0.04-0.55 0.02-0.22 0.02-0.43 0.04-0.65 0.02-0.24 0.03-0.48 0.05-0.72 0.03-0.32 0.04-0.65 0.06-0.97 0.03-0.38 0.04-0.76 0.07-1.14 0.02-0.27 0.03-0.53 0.05-0.8 0.02-0.26 0.03-0.52 0.05-0.78s0.03-0.53 0.05-0.8c0.02-0.29 0.03-0.59 0.05-0.88 0.03-0.39 0.05-0.78 0.07-1.17 0.04-0.53 0.06-1.06 0.1-1.59 0.02-0.4 0.03-0.8 0.06-1.2 0.02-0.32 0.03-0.64 0.06-0.95 0.01-0.23 0.01-0.45 0.03-0.67 0.01-0.17 0.01-0.35 0.02-0.53 0.02-0.23 0.02-0.46 0.04-0.69 0.02-0.22 0.02-0.45 0.04-0.68 0.01-0.12 0.01-0.25 0.02-0.37l0.03-0.66c0.01-0.19 0.01-0.39 0.03-0.58 0.01-0.23 0.01-0.46 0.03-0.69 0.01-0.2 0.01-0.4 0.03-0.6 0.01-0.2 0.02-0.41 0.03-0.62 0.02-0.3 0.03-0.6 0.05-0.91 0.01-0.16 0.01-0.33 0.02-0.5s0.01-0.33 0.02-0.5c0.01-0.23 0.01-0.46 0.03-0.69 0.01-0.17 0.01-0.34 0.02-0.5 0.01-0.17 0.01-0.33 0.02-0.5 0.01-0.22 0.03-0.44 0.04-0.66 0-0.3 0.01-0.61 0.03-0.91 0.01-0.27 0.02-0.55 0.04-0.83 0-0.15 0-0.31 0.01-0.47 0.01-0.25 0.01-0.51 0.03-0.76 0.01-0.24 0.01-0.48 0.03-0.72 0.01-0.18 0-0.37 0.01-0.55 0.02-0.27 0.02-0.55 0.03-0.82 0.01-0.21 0.01-0.42 0.02-0.63 0.02-0.32 0.02-0.64 0.03-0.95 0.02-0.29 0.02-0.58 0.03-0.87 0.01-0.28 0.01-0.57 0.03-0.85 0.01-0.31 0.01-0.61 0.02-0.91 0.01-0.27 0.01-0.53 0.02-0.8 0.02-0.46 0.02-0.92 0.03-1.37 0.01-0.25 0.01-0.49 0.02-0.74 0.01-0.3 0.01-0.61 0.02-0.92 0.02-0.85 0.02-1.71 0.04-2.56 0.01-0.33 0-0.66 0.01-0.99 0.01-0.26 0-0.52 0.01-0.78v-1.07c0.01-0.27 0-0.54 0.01-0.81 0.01-0.45 0-0.9 0.01-1.35 0-0.36-0.01-0.72-0.01-1.08 0.01-0.37 0-0.73 0-1.1v-1.2c0-0.25-0.01-0.5-0.01-0.76 0-0.47-0.02-0.95-0.02-1.42 0-0.52-0.02-1.04-0.02-1.55-0.01-0.49-0.02-0.98-0.03-1.46-0.01-0.5-0.03-1-0.04-1.5-0.01-0.71-0.05-1.43-0.07-2.13-0.02-0.62-0.05-1.23-0.07-1.83-0.03-0.89-0.08-1.76-0.13-2.62-0.03-0.77-0.09-1.52-0.13-2.27 6.75-22.25 24.08-55.26 23.12-85.86-0.13-4.19 1.22-8.21 1.14-12.38-0.06-3.28-0.38-5.43-0.82-7.76-0.73-3.94-1.17-4.47-2.2-6.79-1.52-3.39-3.24-5.15-4.51-6.67-1.74-2.1-14.89 23.69-17.82 47.3z"/>
      <g id="g14895" style="fill:#f1f1f1">
        <path id="path3958" sodipodi:nodetypes="cssccsssc" style="fill:#f1f1f1" d="m323.44 608.37c-20.03 4.66-6.59 22.97-2.71 30.37 3.44 6.58 2.82 37.89 2.96 42.43 0.12 4.05-0.19 5.53 0.97 8.02 1.17 2.68 4.79 5.28 10.01 1.75 2.24-1.69 2.46-7.76 3.16-11.59 0.96-5.28-6.95-72.66-13.98-71.1-0.03 0-0.07 0.02-0.1 0.03-0.11 0.04-0.21 0.06-0.31 0.09z"/>
        <path id="path3960" sodipodi:nodetypes="ccccsc" style="fill:#f1f1f1" d="m325.66 596.32l18.2-0.08c-0.1 2.64-0.29 5.28-0.39 7.93l-17.41-0.01c0.05-0.36 0.06-0.72 0.08-1.1 0.08-2.15-0.29-4.48-0.48-6.74z"/>
        <g id="g3962" style="fill:#f1f1f1" transform="matrix(.67495 0 0 .77678 -65.469 -87.039)">
          <path id="path3964" sodipodi:nodetypes="ccccssssssc" style="fill:#f1f1f1" d="m579.54 892.18l26.5 44.99c-0.12 1.52-0.21 3.25-0.6 6.32l-29.98-47.24c0.54-0.16 1.29-1.14 1.35-1.16 0.03-0.01 0.05-0.02 0.08-0.03 0.04-0.01 0.08-0.03 0.11-0.04 0.03-0.02 0.08-0.03 0.12-0.05 0.07-0.03 0.07-0.04 0.15-0.08l0.18-0.09c0.95-0.53 1.65-1.47 2.09-2.62z"/>
          <path id="path3966" sodipodi:nodetypes="ccccc" style="fill:#f1f1f1" d="m568.1 926.8l34.08-39.38c1.48-0.37 0.54 2.4 3.7 2.42l-32.65 39.69c-1.09-1.56-3.29-1.95-5.13-2.73z"/>
        </g>
      </g>
      <path id="path8533" sodipodi:nodetypes="cccccccccccccccccscscscccc" style="fill:#f8dda6" d="m189.04 84.835c0.32 1.397 0.75 2.672-0.62 5.644l-1.8 2.161c0.93 0.842 0.65 3.557-1.6 4.567-0.37 2.145-1.61 2.893-3.31 2.883-1.41 1.12-0.07 3.86-5.72 2.84-1.26 3.97-1.65 6.05-1.78 7.56 2.48 0.72 4.78 0.56 6.85-0.53 0.86-2.19 1.68-5.85 2.62-6.63 2.02-3.12 5.17-6.792 7.62-4.125l-3.56 6.755-0.73 5.15c-0.1 2.09-6.16 10.68-9.49 13.46l0.05 3.8 0.02 0.41c0.59 12.89 12.04 45.66 17.04 71.01 22.97 22.4 30.01 27.81 49.01 43.49 0.82 8.57 16.18 26.88 10.93 33.31-2.15 2.64-0.6 17.64-2.69 16.16-14.97-14.61-41.74-42.73-51.84-54.82-7.61-9.1-16.93-17.64-24.62-29.93-3.03-9.67-9.39-66.23-9.53-79.25-0.01-0.01-0.01-0.03-0.01-0.04-1.6-5.85-4.11-13.36-4.26-16.61 0.28-5-0.5-11.13 2.54-14.139 7.71-5.803 17.85-11.618 24.88-13.126z"/>
      <path id="path8535" sodipodi:nodetypes="cscscsssc" style="fill:#efc993" d="m230.1 270.55c-14.97-14.62-19.96-20.53-30.06-32.62-7.61-9.1-16.93-17.64-24.62-29.93-3.03-9.67-9.39-66.23-9.53-79.25-0.01-0.01-0.01-0.03-0.01-0.04-0.57-2.09 6.28 16.45 9.06 42.73 1.18 11.1 1.82 22.28 5.79 33.72 2.99 8.59 11.45 16.09 17.65 23.05 18.35 20.61 31.74 42.35 31.72 42.34z"/>
      <path id="path8539" sodipodi:nodetypes="cccccccccccsccc" style="fill:#ffe9b5" d="m183.44 91.758c0.56 0.142 2.61 0.248 1.3 2.444 0 0 0.01 1.14-1.81 1.811-0.47 1.611-2.28 2.882-3.6 2.8-0.85 1.237-1.71 3.357-4.42 3.277-1.3 2.95-1.74 7.58-1.96 8.72 1.81 1.53 5.71 1.75 8.66 0.08 1.42-0.96 2.53-6.69 3.05-7.25 1.3-2.63 3.34-4.676 4.02-2.39-2.29 3.35-1.84 7.6-3.04 10.74-0.92 1.71-6.71 5.76-9.84 7.03 0 0-6.39 1.28-8.18-0.57-2.87-2.95-3.22-5.3-3.3-6.95 0.13-3.83-1.21-9.38 1.4-11.531 6.22-5.6 11-8.626 17.72-8.211z"/>
      <path id="path4932" sodipodi:nodetypes="cccccccccccsccc" style="fill:#ffe9b5" d="m275.97 62.246c-0.38 0.436-1.99 1.695 0.34 2.746 0 0 0.64 0.944 2.52 0.449 1.3 1.053 3.52 1.057 4.55 0.235 1.41 0.522 3.33 1.773 5.5 0.152 2.76 1.68 5.77 5.219 6.61 6.025-0.62 2.291-3.69 4.704-7.06 5.02-1.71 0.035-5.91-4.03-6.65-4.194-2.58-1.407-5.42-1.913-4.67 0.347 3.8 1.434 5.86 5.18 8.65 7.069 1.73 0.872 8.8 0.868 12.09 0.12 0 0 5.97-2.613 6.38-5.154 0.66-4.058-0.39-6.185-1.28-7.588-2.3-3.057-4.38-8.376-7.75-8.649-8.31-1.023-13.96-0.768-19.23 3.422z"/>
      <path id="path5472" sodipodi:nodetypes="ccssssccsssscssscc" style="fill:#f8dda6" d="m304.92 419.27c-35.54-2.98-92.19-7.8-100.35-8.5-25.21-1.92-57.64-5.52-96.32-9.71-4.29-0.46-15.645-3.09-16.727 1.56-4.654 20.03-22.964 6.59-30.368 2.71-6.582-3.44-37.908-3.09-42.429-3.47-3.824-0.32-5.18-0.31-8.025-0.46-2.6755-1.17-5.281-4.79-1.7424-10.01 1.3424-1.23 7.7504-2.46 11.585-3.16 5.387-0.98 27.28-4.68 33.866-5.38 9.708-1.03 17.625-0.29 29.317-0.07 6.388 0.13 14.672-0.24 24.163-0.85 32.57-2.08 79.37-6.99 112.8-4.86 27.1-6.85 71.34-11.83 105.26-16.45 2.38-0.32 4.39-0.65 6.66-0.98 2.35-0.34 4.8-0.71 7.02-1.03 2.56-0.36 4.73-0.94 6.89-1.26 1.79 46.02 9.08 65.53-41.6 61.92z"/>
      <path id="path5475" sodipodi:nodetypes="ccssssssssssssssssssssssssssssssssssssssssssssssssssssssssssssssssssssssssssssssssssssssssssssssssssssssssssssssssssssssscsssss" style="fill:#efc993" d="m292.86 378.15c-36.6 4.54-79.21 6.72-93.86 7.63-16.86 0.5-57.64-0.28-95.38-0.44-0.3 0 0.02-3.15 0.05-3.15 0.07 0 2.72-0.17 2.79-0.17 0.25-0.01 0.59-0.04 0.89-0.05 0.46-0.01 1.03-0.11 1.46-0.12 0.67-0.02 1.61-0.1 2.21-0.15 1.13-0.08 1.3-0.12 2.5-0.16 0.61-0.02 1.04-0.05 1.64-0.1 1.56-0.13 3.28-0.36 5.15-0.38 0.07 0 0.14-0.01 0.2-0.01 0.18-0.01 0.37-0.02 0.56-0.04l0.42-0.03c0.08-0.01 0.15-0.01 0.23-0.02 0.11-0.02 0.24-0.01 0.36-0.02 0.16-0.02 0.33-0.03 0.49-0.04 0.17-0.01 0.34-0.02 0.51-0.04 0.15-0.02 0.3-0.01 0.45-0.03 0.29-0.04 0.6-0.03 0.9-0.07 0.28-0.03 0.57-0.03 0.86-0.06 0.25-0.03 0.51-0.04 0.77-0.06 0.23-0.02 0.46-0.03 0.69-0.05 0.53-0.05 1.08-0.08 1.63-0.12 0.27-0.02 0.56-0.04 0.84-0.07 0.23-0.02 0.46-0.04 0.7-0.06 1.47-0.14 3-0.25 4.57-0.34 0.26-0.02 0.52-0.03 0.78-0.06 0.4-0.04 0.81-0.06 1.22-0.09 1.44-0.14 2.91-0.24 4.42-0.34 0.16-0.01 0.31-0.02 0.48-0.04 0.27-0.02 0.55-0.03 0.82-0.05 0.26-0.03 0.53-0.04 0.79-0.06 0.17-0.02 0.35-0.02 0.52-0.03 0.27-0.03 0.55-0.04 0.82-0.07 0.27-0.02 0.53-0.03 0.8-0.06 0.62-0.05 1.24-0.09 1.87-0.14 0.16-0.01 0.32-0.01 0.49-0.02 0.18-0.02 0.35-0.04 0.53-0.04 0.19-0.01 0.37-0.03 0.55-0.05s0.37-0.03 0.55-0.05c0.12-0.01 0.25-0.02 0.37-0.03 0.18-0.02 0.36-0.02 0.55-0.03 0.15-0.01 0.29-0.03 0.44-0.03 0.16-0.01 0.33-0.02 0.5-0.03 0.16-0.01 0.31-0.01 0.47-0.03 0.23-0.02 0.46-0.03 0.69-0.05 0.13-0.02 0.27-0.01 0.41-0.03 0.16-0.01 0.33-0.02 0.5-0.03 0.13-0.02 0.26-0.02 0.4-0.03 0.23-0.03 0.45-0.03 0.69-0.05 0.24-0.01 0.47-0.03 0.72-0.05 0.21-0.01 0.41-0.03 0.62-0.04 0.24 0 0.48-0.03 0.72-0.05 0.22-0.01 0.44-0.02 0.66-0.04 0.13-0.01 0.25-0.01 0.37-0.03 0.23-0.02 0.46-0.02 0.69-0.04 0.21-0.02 0.42-0.03 0.63-0.04 0.18-0.02 0.37-0.03 0.55-0.04 0.22-0.02 0.44-0.02 0.66-0.04 0.23-0.02 0.47-0.03 0.71-0.05 0.32-0.03 0.65-0.04 0.97-0.06 0.38-0.03 0.76-0.04 1.14-0.07 0.27-0.02 0.54-0.03 0.8-0.06 0.26-0.01 0.52-0.02 0.78-0.04 0.27-0.02 0.53-0.03 0.8-0.05 0.3-0.02 0.59-0.03 0.89-0.05 0.38-0.03 0.77-0.05 1.16-0.07 0.53-0.04 1.06-0.06 1.59-0.1 0.41-0.02 0.81-0.04 1.21-0.06 0.31-0.02 0.63-0.03 0.95-0.06 0.22-0.02 0.44-0.01 0.66-0.03 0.18-0.01 0.36-0.01 0.53-0.03 0.23-0.01 0.46-0.02 0.69-0.03 0.23-0.02 0.45-0.03 0.68-0.04 0.13-0.01 0.25-0.01 0.38-0.02 0.22-0.01 0.43-0.02 0.65-0.03 0.19-0.02 0.39-0.02 0.58-0.03 0.23-0.02 0.47-0.02 0.7-0.03 0.2-0.02 0.39-0.02 0.59-0.03 0.21-0.01 0.41-0.02 0.62-0.03 0.3-0.02 0.61-0.03 0.91-0.05 0.17-0.01 0.34-0.01 0.5-0.02 0.17-0.01 0.34-0.01 0.5-0.02 0.23-0.02 0.46-0.02 0.69-0.03 0.17-0.01 0.34-0.01 0.51-0.02 0.16-0.01 0.33-0.01 0.49-0.02 0.22-0.01 0.44-0.03 0.67-0.04 0.3-0.01 0.6-0.01 0.9-0.03 0.28-0.02 0.56-0.02 0.83-0.04 0.16-0.01 0.32 0 0.47-0.01 0.26-0.01 0.51-0.02 0.77-0.03l0.72-0.03c0.18-0.01 0.36-0.01 0.54-0.02 0.28-0.01 0.55-0.01 0.82-0.03 0.21-0.01 0.42 0 0.64-0.01 0.31-0.02 0.63-0.02 0.95-0.04 0.28-0.01 0.58-0.01 0.86-0.02 0.29-0.02 0.57-0.02 0.86-0.03 0.3-0.01 0.6-0.01 0.91-0.02 0.26-0.01 0.53-0.01 0.8-0.02 0.45-0.02 0.91-0.02 1.37-0.03 0.24-0.01 0.49-0.01 0.73-0.02 0.31-0.01 0.61-0.01 0.92-0.02 0.85-0.03 1.71-0.02 2.56-0.04 0.33-0.01 0.67-0.01 1-0.01 0.25-0.01 0.51 0 0.77-0.01 0.36-0.01 0.72 0 1.08-0.01h0.8c0.45-0.01 0.9 0 1.35-0.01 0.36 0 0.72 0.01 1.09 0 0.36 0 0.73 0.01 1.09 0.01 0.41-0.01 0.81 0 1.21 0 0.25 0 0.5 0.01 0.75 0.01 0.48 0 0.95 0.01 1.43 0.02 0.52 0 1.03 0.01 1.55 0.02 0.48 0 0.97 0.02 1.45 0.03 0.51 0.01 1 0.03 1.5 0.04 0.72 0.01 1.43 0.05 2.13 0.07 0.62 0.02 1.23 0.04 1.84 0.07 0.88 0.03 1.76 0.08 2.62 0.12 0.76 0.04 1.51 0.09 2.26 0.14 27.1-6.85 71.34-11.83 105.26-16.45 2.38-0.32 4.39-0.65 6.66-0.98 2.35-0.34 4.8-0.71 7.02-1.03 2.56-0.36 4.73-0.94 6.89-1.26 3.6-0.51-30.05 17.88-53.66 20.8z"/>
      <g id="g14881" style="fill:#f1f1f1">
        <path id="path5477" sodipodi:nodetypes="cssccsssc" style="fill:#f1f1f1" d="m91.523 402.62c-4.654 20.03-22.964 6.59-30.368 2.71-6.582-3.44-37.889-2.83-42.429-2.96-4.056-0.12-5.528 0.19-8.025-0.97-2.6755-1.17-5.281-4.79-1.7424-10.01 1.6904-2.24 7.7504-2.46 11.585-3.16 5.284-0.96 72.655 6.95 71.104 13.97-0.008 0.04-0.024 0.07-0.037 0.11-0.035 0.11-0.056 0.21-0.088 0.31z"/>
        <path id="path5479" sodipodi:nodetypes="ccccsc" style="fill:#f1f1f1" d="m103.57 400.4l0.09-18.21c-2.65 0.1-5.288 0.3-7.933 0.4l0.003 17.41c0.363-0.05 0.727-0.06 1.108-0.08 2.15-0.09 4.472 0.28 6.732 0.48z"/>
        <g id="g5481" style="fill:#f1f1f1" transform="matrix(0 -.67495 -.77678 0 786.93 791.53)">
          <path id="path5483" sodipodi:nodetypes="ccccssssssc" style="fill:#f1f1f1" d="m579.54 892.18l26.5 44.99c-0.12 1.52-0.21 3.25-0.6 6.32l-29.98-47.24c0.54-0.16 1.29-1.14 1.35-1.16 0.03-0.01 0.05-0.02 0.08-0.03 0.04-0.01 0.08-0.03 0.11-0.04 0.03-0.02 0.08-0.03 0.12-0.05 0.07-0.03 0.07-0.04 0.15-0.08l0.18-0.09c0.95-0.53 1.65-1.47 2.09-2.62z"/>
          <path id="path5485" sodipodi:nodetypes="ccccc" style="fill:#f1f1f1" d="m568.1 926.8l34.08-39.38c1.48-0.37 0.54 2.4 3.7 2.42l-32.65 39.69c-1.09-1.56-3.29-1.95-5.13-2.73z"/>
        </g>
      </g>
      <path id="path5346" sodipodi:nodetypes="cccccccc" style="fill:#f9d095" d="m289.16 268.96c-2.98-3.32-5.86-6.7-8.34-10.27-0.82-1.56-1.78-3.11-1.95-4.89 1.2 0.62 1.35 1.85 2.16 2.7 2.17 3.23 6.92 6.7 9.63 9.66 2.02 1.85 2.14-17.76 3.03-16.41 2.06 4.17 0.43 25.31 0.13 24.24-1.57-1.67-3.14-3.33-4.66-5.03z"/>
      <g id="g13401" transform="translate(-143.31 138.01)">
        <path id="path2940-7-0-0-2-1-5-6-5" sodipodi:nodetypes="cssscssssssssssssssssss" style="fill:#000000" d="m541.79 283.68c5.17-2.82-11.91-38.38-19.44-49.86-2.83-4.32-25.26-34.46-26.21-36.38-0.92-1.87-3.95-20.27-4.21-22.11-2.95-21.36-5.68-46.51-11.15-54.08-3.52-6.41-12.28-20.8-18.06-29.65-2.19-3.355-4.35-6.894-5.8-9.292-0.16-0.256-6.35 1.766-6.63 1.851-0.57 0.175 0.88 1.751 1.86 3.862 1.16 2.488 3.31 5.732 4.81 9.5 11.1 27.879-44.8 38.739-52.64 22.889-2.02-4.07-7.14-13.53-8.05-15.87-0.81-2.1-1.6-4.24-1.68-4.22-0.91 0.24-6.1 1.82-6.45 2.05-0.08 0.06 0.51 1.35 0.57 1.56 5.56 18.89 6.85 31.21 6.77 36.74-0.06 4.45 0.25 8.15 1.06 11.69 2.87 12.67 12.08 23.39 33.5 59.31 3.49 5.85-21.83 7.64-38.69 15.96-12.84 6.33 22.62 77.32 36.53 58.72 18.98-25.37 2.73 30.95 21.11 7.42 23.42-29.98 39.2 23.23 55.52 2.21 18.2-23.45 35.06-11.09 37.28-12.3z"/>
        <path id="path9760" sodipodi:nodetypes="cscscssc" style="fill:#969696" d="m516.15 235.26c1.55 4.91 1.95 6.53 1.88 12.06-0.15 12.55-0.8 14.1-2.35 25.56 4.85-2.43 9.53-3.44 13.63-3.44 2.63 0.01 4.85 0.38 6.81 0.82-0.93-3.3-2.11-7.76-4.47-12.22-2.29-4.35-4.96-9.09-8.31-14.2-0.54-0.84-3.47-4.85-7.19-8.58z"/>
        <path id="path10094" style="fill:#969696" sodipodi:type="inkscape:offset" d="m276.09 369.44c-1.18 0.36-2.3 0.73-3.59 1.09-7.97 2.21-17.93 4.66-25.44 8.25-0.04 0.14-0.07 0.24-0.12 0.81-0.14 1.48 0.07 4.33 0.84 7.57 1.19 4.94 3.73 11.06 6.66 17.12 4.86-10.53 12.59-20.85 21.65-34.84z" inkscape:original="M 283.59375 363.125 C 283.02861 363.57162 282.40712 363.90657 281.75 364.25 C 279.17245 365.59711 275.76005 366.62818 271.71875 367.75 C 263.63615 369.99363 253.22846 372.51739 245.21875 376.46875 C 244.75463 376.69771 244.24871 377.3262 244.0625 379.34375 C 243.87629 381.3613 244.17468 384.36382 245 387.8125 C 246.65064 394.70985 250.26381 403.46025 254.65625 411.375 C 259.56726 397.09267 270.3511 384.82048 283.59375 363.125 z " transform="translate(151.77 -146.96)" inkscape:radius="-2.8740623"/>
      </g>
      <g id="g4379">
        <path id="path2963" sodipodi:rx="37.169235" sodipodi:ry="45.532314" style="fill:#f8dda6" sodipodi:type="arc" d="m223.02 176.1a37.169 45.532 0 1 1 -74.34 0 37.169 45.532 0 1 1 74.34 0z" transform="matrix(.70732 -.17685 .17685 .70732 106.05 99.376)" sodipodi:cy="176.09743" sodipodi:cx="185.84619"/>
        <path id="path5417" sodipodi:nodetypes="cssssssssscsccsssssssssscssssssssssssssssssccscssccsssssssssssccccsssssc" style="fill:#000000" d="m253.3 143.93c-5.38 1.16-13 4.7-17.07 8.02-7.63 6.21-12.58 15.78-12.78 24.72-0.06 2.52 0.15 6.03 0.46 7.8 0.78 4.37 0.57 7.15-0.67 8.96-1.33 1.95-2.53 2.48-4.52 1.98-1.85-0.45-2.53-1.57-1.92-3.17 0.4-1.08 0.36-1.09-0.77-0.22-0.66 0.51-1.47 1.77-1.82 2.81-0.79 2.4 0.54 5.81 2.74 6.95 0.52 0.27 1.23 0.71 1.55 1 0.19-0.72 4.68-4.69 5.3-4.27 0.26 0.17-0.04 0.93-0.63 1.68l-2.38 3.75c-1.34 2.44-2.23 2.71-2.61 3.72-0.61 1.62 1.15 8.21 4.11 10.19 0.78 0.52 2.67 1.94 4.57 3.33 2.36 1.73 4.73 3.42 4.99 3.3 0.09-0.04-0.49-1.22-1.31-2.62-1.58-2.69-2.21-6.32-1.38-8.01 0.33-0.68 0.41-0.46 0.46 1.22 0.04 1.46 0.5 2.87 1.58 4.86 3.26 6.02 7.74 7.68 17.65 6.56 4.26-0.48 4.34-0.78 3.81 0.67-0.01 0.05-0.02 0.09-0.03 0.13 17.86 0.48 7.91-15.72 7.02-16.89-0.86-1.14-3.33-0.32-2.14 0.14 1.93 0.75-2.15 1.32-5.68-1.85-1.6-1.44-4.9-7.04-3.72-7.5 0.63-0.25 1.75 0.17 3.32 1.25 5.47 3.76 5.58 3.81 5.57 2.76-0.01-0.53-0.6-0.85-0.46-0.5 0.28 0.66-0.38 0.22-0.8-0.31-0.21-0.27-6.06-6.01-7.38-9.5-2.37-6.28-0.46-13.41 4.66-17.44 1.18-0.93 1.18-0.92 0.97 0.47-0.12 0.77-0.78 2.44-1.46 3.71-0.77 1.44-0.97 2.28-0.55 2.23 3.17-0.32 5.62-1.01 11.39-3.19 3.66-1.39 7.71-2.85 8.99-3.25 4.29-1.34 8.56-5.24 9.89-9.05 0.37-1.09 0.82-2.04 0.99-2.12 0.46-0.21 3.49 4.21 4.61 6.74 1.01 2.27 11.34 26.66-2.02 42.78l-1.83 2.52c-0.76 0.73-3.18 3.04-2.29 2.91 2.93-0.41 4.93-0.79 7.85-1.85 5.25-2.08 9.73-6.39 10.63-7.23 3.47-3.23 5.77-6.55 6.24-9.8 0.27-1.87 0.09-2.9-0.98-5.3l-1.32-2.97c3.76-0.81 3.4-5.82 2.4-4.55-0.87 1.12-2.24 1.76-3.62 0.89-1.12-0.72-1.37-1.18-1.89-3.55-0.34-1.49 0.19-5.8 0.14-6.37-0.07-0.9-0.17-0.83-0.83 0.66-1.72 3.92-2.11 4.38-1.36 1.59 0.86-3.22 0.56-4.71-2.3-11.07-1.11-2.48-3.58-7.1-6.95-11.29-1.88-2.35-4.52-4.39-5.38-5.24-0.82-0.82-2.88-3.2-4.99-4.96-6.89-5.72-15.62-7.96-25.01-6.42-0.34 0.05-0.68 0.12-1.04 0.19zm-34.8 58.85c-0.02-0.26-0.16-0.12 0 0zm57.48-30.93c0.04 0.01-0.09 0.28-0.36 0.83-0.31 0.63-1.08 1.73-1.71 2.43-0.64 0.7-1.82 1.55-2.64 1.9-1.24 0.53-1.11 0.31 0.85-1.36 1.28-1.1 2.71-2.46 3.19-3.05 0.42-0.51 0.63-0.76 0.67-0.75z"/>
        <path id="rect3764-0-3" sodipodi:nodetypes="ccccc" style="fill:#4b3434" d="m262.74 182.24c-4.84-3.2-10.71-2.41-15.39 3.85l0.13 0.53c4.69-4.88 12.03-3.17 15.39-3.85l-0.13-0.53z"/>
        <path id="path2818-7-6-8" sodipodi:nodetypes="csssscsccc" style="stroke:#000000;stroke-width:.56549;fill:#ffffff" d="m264.02 192c-0.85-0.32-1.03-0.6-1.8-1.12-0.28-0.2-0.62-0.4-0.96-0.58-0.14-0.07-0.29-0.13-0.43-0.2-0.13-0.06-0.28-0.11-0.39-0.17-0.95-0.46-2.12-0.69-3.2-0.67-0.86 0-1.62 0.15-2.29 0.38-1.77 0.61-2.95 1.84-3.59 3.43 1.6 1.9 4.07 3.12 6.58 2.69 2.55-0.43 3.92-2.59 6.08-3.76z"/>
        <path id="path2820-8-6" sodipodi:rx="27.019947" sodipodi:ry="29.219727" style="fill:#5f2100" sodipodi:type="arc" d="m432.47 398.43a27.02 29.22 0 1 1 -54.04 0 27.02 29.22 0 1 1 54.04 0z" transform="matrix(-.10666 .017024 .012921 .094243 295.17 148.03)" sodipodi:cy="398.42923" sodipodi:cx="405.45203"/>
        <path id="rect4137-0-1" sodipodi:nodetypes="cssssccsccsscc" style="fill:#ffb0b0" d="m264.76 191.68c-0.17 0.15-0.56-0.28-0.72-0.31-0.17-0.05-0.36-0.15-0.67-0.38-0.57-0.45-1.12-0.83-1.66-1.18-0.31-0.21-0.7-0.36-1.01-0.52-0.43-0.24-0.9-0.36-1.32-0.5-0.1-0.03-0.16-0.07-0.25-0.1-0.04-0.01-0.08-0.03-0.11-0.04-3.86-1.38-6.71 0.33-8.21 3.97-1.34-1.03-1.11-4.23-0.82-4.85 0.41-0.74 2.22-2.67 4.86-2.97 2.37-0.28 3.43-0.25 5.55 0.68 0.97 0.43 2.55 1.4 3.76 2.73 0.86 1.18 0.93 2.68 0.6 3.47z"/>
        <path id="rect4137-0-2-9" sodipodi:nodetypes="cscscsscc" style="fill:#ff7f7f" d="m264.69 191.96c-0.54-0.1-0.79-0.14-1.36-0.6-4.43-3.65-10.27-3.09-12.28 1.77-0.19-0.15-0.33-0.33-0.43-0.5-0.53-1 0.53-2.22 1.14-3.06 0.86-0.99 1.62-1.86 3.53-2.23 0.94-0.18 2.05-0.22 3.92 0.27 1.02 0.26 2.75 1.12 3.67 1.71 1.49 0.97 2.15 1.9 1.81 2.64z"/>
        <path id="path2820-1-5-2" sodipodi:rx="26.728123" sodipodi:ry="29.219727" style="fill:#000000" sodipodi:type="arc" d="m432.18 398.43a26.728 29.22 0 1 1 -53.46 0 26.728 29.22 0 1 1 53.46 0z" transform="matrix(-.052488 .013253 .013143 .054051 273.17 165.6)" sodipodi:cy="398.42923" sodipodi:cx="405.45203"/>
        <path id="rect3616-0-8" sodipodi:nodetypes="ccccc" style="opacity:.84615;fill:#84543c" d="m258.92 191.46c-0.31-1.11-1.06-1.42-1.94-1.11l0.02 0.15c0.95-0.25 1.54 0.08 1.79 1.06l0.13-0.1z"/>
        <path id="rect3616-8-9-6" sodipodi:nodetypes="ccccc" style="opacity:.84615;fill:#83553d" d="m255.24 193.45c0.13 1.15 0.82 1.58 1.74 1.41l0.01-0.15c-0.98 0.1-1.51-0.32-1.6-1.33l-0.15 0.07z"/>
        <path id="path3670-1-02" sodipodi:rx="3.5987327" sodipodi:ry="4.1128373" style="fill:#ffffff" sodipodi:type="arc" d="m380.09 401.16a3.5987 4.1128 0 1 1 -7.19 0 3.5987 4.1128 0 1 1 7.19 0z" transform="matrix(-.12148 .018529 .016008 .11020 296.43 141.29)" sodipodi:cy="401.16293" sodipodi:cx="376.49597"/>
        <path id="rect3789-2-2-3-5" sodipodi:nodetypes="ccccc" style="stroke:#241f1c;stroke-width:.083810;fill:#241f1c" d="m264.6 190.86l-0.13 0.07c0.25 0.36-0.05 0.58-0.34 0.91 0.05 0.02 0.09 0.04 0.14 0.06 0.36-0.35 0.61-0.65 0.33-1.04z"/>
        <path id="rect3789-2-6-4-4-0" sodipodi:nodetypes="ccccc" style="stroke:#241f1c;stroke-width:.083810;fill:#241f1c" d="m263.95 190.52l-0.13 0.07c0.25 0.36-0.03 0.52-0.31 0.88 0.03 0.02 0.08 0.06 0.12 0.08 0.36-0.36 0.6-0.65 0.32-1.03z"/>
        <path id="rect3789-2-6-0-5-4-9" sodipodi:nodetypes="ccccc" style="stroke:#241f1c;stroke-width:.083810;fill:#241f1c" d="m263.4 190.09l-0.13 0.06c0.24 0.37-0.03 0.55-0.32 0.87l0.12 0.09c0.36-0.34 0.61-0.64 0.33-1.02z"/>
        <path id="rect3789-2-60-17-0-0" sodipodi:nodetypes="ccccc" style="stroke:#241f1c;stroke-width:.083810;fill:#241f1c" d="m262.78 189.66l-0.11 0.08c0.26 0.34 0 0.55-0.27 0.89l0.12 0.09c0.34-0.38 0.57-0.69 0.26-1.06z"/>
        <path id="rect3789-2-6-3-1-6-6" sodipodi:nodetypes="ccccc" style="stroke:#241f1c;stroke-width:.083810;fill:#241f1c" d="m262.12 189.26l-0.12 0.08c0.28 0.33 0.03 0.55-0.23 0.91l0.13 0.07c0.33-0.38 0.54-0.71 0.22-1.06z"/>
        <path id="rect3789-2-6-0-6-1-6-1" sodipodi:nodetypes="ccccc" style="stroke:#241f1c;stroke-width:.083810;fill:#241f1c" d="m261.49 188.96l-0.12 0.09c0.3 0.31 0.07 0.54-0.17 0.91l0.14 0.07c0.3-0.41 0.49-0.74 0.15-1.07z"/>
        <path id="rect3789-2-8-5-1-3" sodipodi:nodetypes="ccccc" style="stroke:#241f1c;stroke-width:.083810;fill:#241f1c" d="m260.83 188.64l-0.11 0.1c0.31 0.3 0.09 0.55-0.14 0.93l0.14 0.06c0.28-0.43 0.46-0.77 0.11-1.09z"/>
        <path id="rect3789-2-6-8-2-8-8" sodipodi:nodetypes="ccccc" style="stroke:#000000;stroke-width:.083810;fill:#000000" d="m260.14 188.38l-0.1 0.11c0.33 0.27 0.13 0.54-0.05 0.94l0.13 0.05c0.25-0.45 0.4-0.81 0.02-1.1z"/>
        <path id="rect3789-2-6-0-1-7-4-9" sodipodi:nodetypes="ccccc" style="stroke:#241f1c;stroke-width:.083810;fill:#241f1c" d="m259.38 188.17l-0.09 0.11c0.35 0.24 0.17 0.53 0.01 0.95l0.14 0.03c0.22-0.47 0.34-0.85-0.06-1.09z"/>
        <path id="rect3789-2-60-1-1-6-4" sodipodi:nodetypes="ccccc" style="stroke:#241f1c;stroke-width:.083810;fill:#241f1c" d="m258.62 188.01l-0.08 0.13c0.36 0.21 0.2 0.51 0.07 0.94l0.15 0.03c0.18-0.49 0.27-0.88-0.14-1.1z"/>
        <path id="rect3789-2-6-3-4-42-3-4" sodipodi:nodetypes="ccccc" style="stroke:#241f1c;stroke-width:.083810;fill:#241f1c" d="m257.91 187.96l-0.07 0.13c0.37 0.19 0.23 0.5 0.13 0.94l0.14 0.01c0.15-0.5 0.22-0.89-0.2-1.08z"/>
        <path id="rect3789-2-6-0-6-9-3-7-6" sodipodi:nodetypes="ccccc" style="stroke:#241f1c;stroke-width:.083810;fill:#241f1c" d="m257.17 187.94l-0.07 0.14c0.39 0.15 0.27 0.48 0.2 0.92h0.15c0.11-0.51 0.15-0.9-0.28-1.06z"/>
        <path id="rect3789-2-60-1-2-1-8-6" sodipodi:nodetypes="ccccc" style="stroke:#241f1c;stroke-width:.083810;fill:#241f1c" d="m256.47 187.96l-0.06 0.14c0.39 0.12 0.28 0.45 0.23 0.91l0.15-0.01c0.09-0.52 0.11-0.93-0.32-1.04z"/>
        <path id="rect3789-2-6-3-4-4-6-2-6" sodipodi:nodetypes="ccccc" style="stroke:#241f1c;stroke-width:.083810;fill:#241f1c" d="m255.72 188.08l-0.04 0.14c0.4 0.09 0.32 0.43 0.32 0.89l0.14-0.02c0.04-0.53 0.02-0.94-0.42-1.01z"/>
        <path id="rect3789-2-6-0-6-9-5-85-9-1" sodipodi:nodetypes="cccccc" style="stroke:#241f1c;stroke-width:.083810;fill:#241f1c" d="m255 188.21l-0.03 0.15c0.4 0.05 0.37 0.4 0.4 0.85l0.14-0.03c-0.01-0.53-0.06-0.93-0.51-0.97z"/>
        <path id="rect3789-2-60-1-2-9-6-3-4" sodipodi:nodetypes="ccccc" style="stroke:#241f1c;stroke-width:.083810;fill:#241f1c" d="m254.29 188.44l-0.02 0.15c0.41 0 0.39 0.37 0.46 0.83l0.13-0.05c-0.04-0.53-0.12-0.95-0.57-0.93z"/>
        <path id="rect3789-2-6-3-4-4-9-1-5-9" sodipodi:nodetypes="ccccc" style="stroke:#241f1c;stroke-width:.083810;fill:#241f1c" d="m253.65 188.76l-0.01 0.15c0.4-0.03 0.42 0.31 0.53 0.76l0.13-0.06c-0.1-0.53-0.21-0.91-0.65-0.85z"/>
        <path id="rect3789-2-6-0-6-9-5-8-8-9-6" sodipodi:nodetypes="ccccc" style="stroke:#241f1c;stroke-width:.083810;fill:#241f1c" d="m252.95 189.18l0.01 0.15c0.4-0.07 0.45 0.28 0.6 0.71l0.12-0.07c-0.14-0.52-0.29-0.89-0.73-0.79z"/>
        <path id="rect3789-2-60-1-2-9-8-2-4-7" sodipodi:nodetypes="ccccc" style="stroke:#241f1c;stroke-width:.083810;fill:#241f1c" d="m252.33 189.67l0.02 0.15c0.39-0.14 0.47 0.2 0.67 0.61l0.11-0.1c-0.19-0.48-0.38-0.83-0.8-0.66z"/>
        <path id="rect3789-2-6-3-4-4-9-6-7-0-8" sodipodi:nodetypes="ccccc" style="stroke:#241f1c;stroke-width:.083810;fill:#241f1c" d="m251.8 190.23l0.04 0.15c0.37-0.17 0.49 0.16 0.72 0.55l0.1-0.11c-0.24-0.46-0.45-0.8-0.86-0.59z"/>
        <path id="rect3789-2-6-0-6-9-5-8-9-9-7-8" sodipodi:nodetypes="ccccc" style="stroke:#241f1c;stroke-width:.083810;fill:#241f1c" d="m251.25 190.81l0.05 0.15c0.36-0.21 0.5 0.11 0.77 0.47l0.09-0.11c-0.28-0.45-0.53-0.75-0.91-0.51z"/>
        <path id="rect3789-2-60-1-2-9-8-6-5-6-2" sodipodi:nodetypes="ccccc" style="stroke:#241f1c;stroke-width:.083810;fill:#241f1c" d="m250.76 191.57l0.07 0.13c0.32-0.27 0.5 0.01 0.81 0.32l0.08-0.12c-0.34-0.39-0.63-0.65-0.96-0.33z"/>
        <path id="rect3789-2-6-3-4-4-9-6-6-4-3-9" sodipodi:nodetypes="ccccc" style="stroke:#241f1c;stroke-width:.083810;fill:#241f1c" d="m250.32 192.34l0.08 0.13c0.3-0.3 0.51-0.04 0.84 0.24l0.07-0.13c-0.37-0.36-0.67-0.59-0.99-0.24z"/>
        <path id="path5093" sodipodi:nodetypes="cccccccccc" style="fill:#ee6262" d="m264.95 210.35c0.39-0.71 1.73-0.17 3.38-1.83 1.27-1.13 2.27-1.77 3.37-1.85 1.14 0.03 1.81 0.85 2.73 0.79 0.79-0.38 0.77-1.17 1.78-1.81 1.12-0.67 2.04-0.52 3.49 0.05 1.69 0.88 3.33-0.42 3.93 0.28-0.1 0.8-0.69 1.91-1.27 2.54-3.97 4.77-8.22 5.63-14.41 4.17-1.23-0.35-2.59-1.22-3-2.34z"/>
        <path id="path5095" sodipodi:nodetypes="cscscsscc" style="opacity:.69048;filter:url(#filter4926);fill:#ff9d9d" transform="matrix(.52881 -.13222 .13222 .52881 60.022 145.08)" d="m342.79 211.93c0.39-0.36 4.16-0.47 7.21-0.15 1.87 0.19 3.5 0.26 3.98 0.2 0.57-0.01 2.29 0.07 4.26-0.2 2.95-0.4 6.3-0.53 6.6-0.07-1.33 1.54-4 2.59-7.13 3.1-1.65 0.27-2.41 0.42-3.61 0.36-5-0.25-9.68-0.84-11.31-3.24z"/>
        <path id="path5097" sodipodi:nodetypes="cccc" style="opacity:.69048;filter:url(#filter4850);fill:#ff9d9d" transform="matrix(.52881 -.13222 .13222 .52881 59.898 145.43)" d="m343.77 206.2c1.94-1.07 2.6-1.44 4.01-1.53 0.55-0.02 3.24 0.95 3.8 2.02-3.05 4.24-10.39 1.15-7.81-0.49z"/>
        <path id="path6282" sodipodi:rx="1.6995875" sodipodi:ry="2.3794224" style="fill:#fdc676" sodipodi:type="arc" d="m346.72 189.82a1.6996 2.3794 0 1 1 -3.4 0 1.6996 2.3794 0 1 1 3.4 0z" transform="matrix(-.084883 -.33950 .32809 -.082030 238.01 332.66)" sodipodi:cy="189.82152" sodipodi:cx="345.01627"/>
        <path id="path6454" sodipodi:rx="1.6995875" sodipodi:ry="2.3794224" style="fill:#fdc676" sodipodi:type="arc" d="m346.72 189.82a1.6996 2.3794 0 1 1 -3.4 0 1.6996 2.3794 0 1 1 3.4 0z" transform="matrix(-.084883 -.33950 .32809 -.082030 241.18 331.87)" sodipodi:cy="189.82152" sodipodi:cx="345.01627"/>
        <path id="path7841" sodipodi:nodetypes="cccc" style="opacity:.69048;filter:url(#filter4850);fill:#ff9d9d" transform="matrix(-.53237 .11707 .11707 .53237 438.66 56.501)" d="m343.77 206.2c1.94-1.07 2.6-1.44 4.01-1.53 0.55-0.02 3.24 0.95 3.8 2.02-3.05 4.24-10.39 1.15-7.81-0.49z"/>
        <path id="path6024" sodipodi:nodetypes="ccccc" style="fill:#4b3434" d="m270.85 179.74c2.89-5.03 8.49-6.96 15.48-3.46l0.12 0.54c-6.37-2.26-12.17 2.55-15.48 3.46l-0.12-0.54z"/>
        <path id="path6026" sodipodi:nodetypes="csssscsccc" style="stroke:#000000;stroke-width:.56549;fill:#ffffff" d="m274.09 189.04c0.61-0.67 0.65-0.99 1.1-1.81 0.16-0.3 0.37-0.63 0.6-0.94 0.09-0.13 0.2-0.25 0.3-0.38 0.08-0.11 0.19-0.22 0.27-0.32 0.64-0.84 1.58-1.57 2.56-2.04 0.77-0.39 1.51-0.59 2.22-0.69 1.85-0.24 3.46 0.33 4.74 1.45-0.58 2.42-2.23 4.62-4.67 5.36-2.48 0.76-4.66-0.55-7.12-0.63z"/>
        <path id="path6028" sodipodi:rx="27.019947" sodipodi:ry="29.219727" style="fill:#5f2100" sodipodi:type="arc" d="m432.47 398.43a27.02 29.22 0 1 1 -54.04 0 27.02 29.22 0 1 1 54.04 0z" transform="matrix(.10296 -.032645 .030739 .090021 226.52 163.72)" sodipodi:cy="398.42923" sodipodi:cx="405.45203"/>
        <path id="path6030" sodipodi:nodetypes="cssssccsccsscc" style="fill:#ffb0b0" d="m273.28 189.09c0.22 0.05 0.38-0.5 0.5-0.61 0.13-0.11 0.26-0.29 0.43-0.63 0.31-0.66 0.63-1.25 0.96-1.8 0.19-0.33 0.47-0.64 0.66-0.92 0.28-0.41 0.65-0.72 0.96-1.04 0.08-0.07 0.11-0.13 0.18-0.2 0.03-0.02 0.06-0.06 0.08-0.08 2.83-2.97 6.14-2.72 9.12-0.14 0.73-1.53-0.91-4.28-1.44-4.71-0.71-0.47-3.18-1.38-5.69-0.47-2.23 0.82-3.17 1.32-4.65 3.11-0.67 0.81-1.64 2.38-2.13 4.12-0.24 1.44 0.37 2.81 1.02 3.37z"/>
        <path id="path6032" sodipodi:nodetypes="cscscsscc" style="fill:#ff7f7f" d="m273.47 189.31c0.44-0.34 0.65-0.49 0.94-1.15 2.33-5.25 7.8-7.37 11.77-3.92 0.11-0.23 0.15-0.45 0.16-0.65 0.03-1.13-1.47-1.75-2.39-2.22-1.21-0.5-2.28-0.94-4.16-0.41-0.91 0.26-1.92 0.72-3.38 2-0.79 0.69-1.95 2.23-2.5 3.18-0.91 1.53-1.08 2.66-0.44 3.17z"/>
        <path id="path6034" sodipodi:rx="26.728123" sodipodi:ry="29.219727" style="fill:#000000" sodipodi:type="arc" d="m432.18 398.43a26.728 29.22 0 1 1 -53.46 0 26.728 29.22 0 1 1 53.46 0z" transform="matrix(.052854 -.011707 .012507 .054202 254.06 169.55)" sodipodi:cy="398.42923" sodipodi:cx="405.45203"/>
        <path id="path6036" sodipodi:nodetypes="ccccc" style="opacity:.84615;fill:#84543c" d="m278.4 186.28c-0.22-1.14 0.31-1.75 1.24-1.87l0.05 0.15c-0.96 0.19-1.34 0.75-1.13 1.74l-0.16-0.02z"/>
        <path id="path6038" sodipodi:nodetypes="ccccc" style="opacity:.84615;fill:#83553d" d="m282.58 186.4c0.4 1.09-0.02 1.78-0.92 2.04l-0.07-0.13c0.92-0.35 1.2-0.96 0.83-1.9l0.16-0.01z"/>
        <path id="path6040" sodipodi:rx="3.5987327" sodipodi:ry="4.1128373" style="fill:#ffffff" sodipodi:type="arc" d="m380.09 401.16a3.5987 4.1128 0 1 1 -7.19 0 3.5987 4.1128 0 1 1 7.19 0z" transform="matrix(.11687 -.037946 .035141 .10567 222.36 158.27)" sodipodi:cy="401.16293" sodipodi:cx="376.49597"/>
        <path id="path6042" sodipodi:nodetypes="ccccc" style="stroke:#241f1c;stroke-width:.083810;fill:#241f1c" d="m273.06 188.29h0.14c-0.05 0.43 0.31 0.49 0.71 0.65-0.03 0.05-0.06 0.09-0.09 0.12-0.48-0.15-0.84-0.31-0.76-0.77z"/>
        <path id="path6044" sodipodi:nodetypes="ccccc" style="stroke:#241f1c;stroke-width:.083810;fill:#241f1c" d="m273.49 187.69h0.14c-0.06 0.43 0.27 0.45 0.67 0.65-0.01 0.03-0.04 0.08-0.07 0.13-0.48-0.17-0.83-0.32-0.74-0.78z"/>
        <path id="path6046" sodipodi:nodetypes="ccccc" style="stroke:#241f1c;stroke-width:.083810;fill:#241f1c" d="m273.78 187.05l0.14 0.01c-0.05 0.43 0.28 0.47 0.69 0.63l-0.07 0.13c-0.48-0.14-0.84-0.3-0.76-0.77z"/>
        <path id="path6048" sodipodi:nodetypes="ccccc" style="stroke:#241f1c;stroke-width:.083810;fill:#241f1c" d="m274.14 186.4l0.14 0.01c-0.08 0.43 0.25 0.5 0.64 0.68l-0.07 0.13c-0.47-0.18-0.82-0.36-0.71-0.82z"/>
        <path id="path6050" sodipodi:nodetypes="ccccc" style="stroke:#241f1c;stroke-width:.083810;fill:#241f1c" d="m274.56 185.74l0.14 0.02c-0.1 0.42 0.22 0.51 0.61 0.71l-0.09 0.12c-0.46-0.2-0.8-0.39-0.66-0.85z"/>
        <path id="path6052" sodipodi:nodetypes="ccccc" style="stroke:#241f1c;stroke-width:.083810;fill:#241f1c" d="m274.98 185.18l0.15 0.03c-0.13 0.42 0.18 0.52 0.56 0.74l-0.09 0.12c-0.45-0.22-0.77-0.44-0.62-0.89z"/>
        <path id="path6054" sodipodi:nodetypes="ccccc" style="stroke:#241f1c;stroke-width:.083810;fill:#241f1c" d="m275.43 184.61l0.14 0.04c-0.14 0.4 0.17 0.52 0.54 0.77l-0.09 0.11c-0.45-0.25-0.77-0.48-0.59-0.92z"/>
        <path id="path6056" sodipodi:nodetypes="ccccc" style="stroke:#000000;stroke-width:.083810;fill:#000000" d="m275.93 184.07l0.14 0.05c-0.18 0.39 0.12 0.54 0.47 0.81l-0.1 0.11c-0.43-0.29-0.72-0.55-0.51-0.97z"/>
        <path id="path6058" sodipodi:nodetypes="ccccc" style="stroke:#241f1c;stroke-width:.083810;fill:#241f1c" d="m276.51 183.54l0.13 0.06c-0.2 0.37 0.09 0.54 0.42 0.85l-0.11 0.09c-0.4-0.33-0.68-0.61-0.44-1z"/>
        <path id="path6060" sodipodi:nodetypes="ccccc" style="stroke:#241f1c;stroke-width:.083810;fill:#241f1c" d="m277.12 183.06l0.13 0.07c-0.23 0.35 0.05 0.55 0.36 0.88l-0.12 0.08c-0.38-0.35-0.64-0.66-0.37-1.03z"/>
        <path id="path6062" sodipodi:nodetypes="ccccc" style="stroke:#241f1c;stroke-width:.083810;fill:#241f1c" d="m277.73 182.69l0.13 0.09c-0.25 0.33 0.01 0.54 0.3 0.89l-0.12 0.08c-0.36-0.38-0.6-0.7-0.31-1.06z"/>
        <path id="path6064" sodipodi:nodetypes="ccccc" style="stroke:#241f1c;stroke-width:.083810;fill:#241f1c" d="m278.39 182.34l0.12 0.09c-0.28 0.32-0.03 0.55 0.23 0.92l-0.12 0.07c-0.33-0.41-0.55-0.75-0.23-1.08z"/>
        <path id="path6066" sodipodi:nodetypes="ccccc" style="stroke:#241f1c;stroke-width:.083810;fill:#241f1c" d="m279.02 182.04l0.12 0.1c-0.3 0.29-0.05 0.53 0.2 0.92l-0.14 0.05c-0.31-0.42-0.51-0.77-0.18-1.07z"/>
        <path id="path6068" sodipodi:nodetypes="ccccc" style="stroke:#241f1c;stroke-width:.083810;fill:#241f1c" d="m279.74 181.81l0.11 0.11c-0.32 0.26-0.1 0.53 0.11 0.94l-0.14 0.04c-0.27-0.45-0.44-0.82-0.08-1.09z"/>
        <path id="path6070" sodipodi:nodetypes="cccccc" style="stroke:#241f1c;stroke-width:.083810;fill:#241f1c" d="m280.45 181.61l0.09 0.12c-0.34 0.23-0.15 0.52 0.03 0.94l-0.14 0.03c-0.23-0.48-0.37-0.86 0.02-1.09z"/>
        <path id="path6072" sodipodi:nodetypes="ccccc" style="stroke:#241f1c;stroke-width:.083810;fill:#241f1c" d="m281.18 181.49l0.09 0.13c-0.36 0.18-0.18 0.51-0.04 0.94l-0.14 0.02c-0.2-0.49-0.32-0.9 0.09-1.09z"/>
        <path id="path6074" sodipodi:nodetypes="ccccc" style="stroke:#241f1c;stroke-width:.083810;fill:#241f1c" d="m281.9 181.49l0.08 0.14c-0.38 0.15-0.24 0.46-0.13 0.91h-0.15c-0.15-0.51-0.22-0.9 0.2-1.05z"/>
        <path id="path6076" sodipodi:nodetypes="ccccc" style="stroke:#241f1c;stroke-width:.083810;fill:#241f1c" d="m282.71 181.56l0.06 0.14c-0.39 0.11-0.28 0.45-0.21 0.9l-0.15-0.01c-0.1-0.53-0.13-0.93 0.3-1.03z"/>
        <path id="path6078" sodipodi:nodetypes="ccccc" style="stroke:#241f1c;stroke-width:.083810;fill:#241f1c" d="m283.49 181.71l0.05 0.15c-0.41 0.05-0.34 0.39-0.33 0.84l-0.14-0.03c-0.04-0.52-0.03-0.92 0.42-0.96z"/>
        <path id="path6080" sodipodi:nodetypes="ccccc" style="stroke:#241f1c;stroke-width:.083810;fill:#241f1c" d="m284.21 181.98l0.04 0.15c-0.41 0.02-0.37 0.36-0.4 0.81l-0.14-0.05c0-0.52 0.05-0.91 0.5-0.91z"/>
        <path id="path6082" sodipodi:nodetypes="ccccc" style="stroke:#241f1c;stroke-width:.083810;fill:#241f1c" d="m284.97 182.25l0.02 0.16c-0.41-0.03-0.4 0.32-0.48 0.76l-0.13-0.06c0.05-0.52 0.14-0.91 0.59-0.86z"/>
        <path id="path6084" sodipodi:nodetypes="ccccc" style="stroke:#241f1c;stroke-width:.083810;fill:#241f1c" d="m285.75 182.7l-0.01 0.16c-0.4-0.1-0.44 0.23-0.58 0.65l-0.13-0.08c0.13-0.49 0.27-0.85 0.72-0.73z"/>
        <path id="path6086" sodipodi:nodetypes="ccccc" style="stroke:#241f1c;stroke-width:.083810;fill:#241f1c" d="m286.48 183.2l-0.01 0.15c-0.4-0.14-0.47 0.2-0.64 0.6l-0.12-0.1c0.16-0.48 0.34-0.82 0.77-0.65z"/>
        <path id="path10190" sodipodi:nodetypes="ccsc" style="fill:#969696" d="m291.42 174.34c-7.93-42.93-60.76-2.87-41.53-18.91 10.19-9.86 22.86-7.89 30.05 0.57 0.27 0.33 8.29 11.62 11.48 18.34z"/>
      </g>
      <path id="path13130" sodipodi:nodetypes="cccccccc" style="fill:#f9cf93" d="m590.74 456.96c-2.39-5.13-4.63-10.29-6.31-15.53-0.43-2.2-1.02-4.42-0.57-6.65 1.23 1.2 0.96 2.74 1.62 4.07 1.44 4.72 5.92 10.67 8.11 15.26 1.77 2.98 9.15-20.73 9.73-18.77 0.96 5.81-8.81 30.83-8.79 29.42-1.29-2.59-2.57-5.19-3.79-7.8z"/>
      <g id="g4454" transform="translate(-120)">
        <path id="path4459" sodipodi:nodetypes="cssssssssssssssssssssssssssssssssssssssssssssssss" style="fill-rule:evenodd;fill:#ff35ca" d="m682.41 392.74c-0.34-0.02-0.68-0.03-1.02-0.04-0.41-0.03-0.83-0.04-1.21-0.05-0.26-0.01-0.63-0.02-1.03-0.04-0.42-0.01-0.88-0.02-1.25-0.04-0.33-0.02-0.59-0.01-0.69-0.02h-0.64c-0.16 0-0.19 0-0.48-0.01h-0.51c-0.27-0.01-0.41-0.02-0.66-0.01h-0.61-0.51-0.4c-0.11-0.01-0.22 0-0.33 0-0.2-0.01-0.41 0-0.59 0h-0.45c-0.3 0-0.56 0.01-0.79 0.01-0.78 0-1.17 0-1.18 0.02-0.09 0.2-1.83 3.42-2.01 3.75-0.61 1.13-19.41 56.14-18.27 68.24 1.57 16.77 8.56 25.9 12.16 34.07 7.94 18.04 16.81 57.38 3.94 66.17-11.02 7.53-24.56 4.66-54.99 14.88-6.25 2.09-5.35 77.78 16.72 71.41 39.69-11.45 15.52 30.39 59.28 20.1 21.23-5 32.42 11.32 38.31 18.47 17.56 21.3 35.11 10.14 46.91 5.79 9.78-3.6 17.08-6.25 19.15-11.35 2.06-5.09 0.93-12.68-1.52-23.43-2.44-10.75-17.41-63.06-18.42-65.61-4.95-12.43-19.82-67.65-2.94-94.65 9.03-14.45 11.92-24.91 12.03-36.08 0.1-11.27-21.7-71.45-22.37-71.48-0.92-0.04-1.84-0.1-2.64-0.14-1.01-0.05-1.81-0.07-2.56-0.1-0.55-0.01-1.08-0.03-1.64-0.03-1.26-0.01-2.48-0.02-3.72-0.01-0.68 0.01-1.35 0.03-2.05 0.04-1.24 0.03-1.52 0.05-2.94 0.11-0.12 0.01-0.2 0.01-0.96 0.05-0.35 0.02 0.46 10.29 0.59 21.84 0.58 51.09-59.36 47.73-59.48 0-0.02-7.77 4.43-19.8 3.32-21.65-0.02-0.03-0.2-0.03-0.31-0.03-0.09-0.01-0.33-0.01-0.46-0.02-0.14-0.01-0.28-0.02-0.46-0.04-0.25-0.01-0.53-0.03-0.86-0.04-0.23-0.01-0.46-0.04-0.72-0.04-0.24-0.01-0.47-0.03-0.74-0.04z"/>
        <path id="path10201" sodipodi:nodetypes="ccssscscsssscc" style="fill-rule:evenodd;fill:#dc00a1" d="m665.89 572.7c-0.3-0.01-0.61 0.06-0.88 0.2-5.52 2.75-11.5 3.8-18.68 4.94-7.93 1.25-17.74 2.81-30.9 6.73-0.8 0.24-0.71 1.23-1.28 1.85-2.82 3.07-1.96 30.86 4.63 41.51 0.26 0.74 1.03 2.52 1.82 2.48s1.46-1.62 1.65-2.39c4.51-13.49 20.84-26.23 30.14-34.67 4.64-4.23 8.94-7.72 11.87-10.74 1.46-1.52 2.6-2.91 3.29-4.39 0.68-1.48 0.76-3.38-0.26-4.78-0.33-0.45-0.84-0.73-1.4-0.74z"/>
        <path id="path11147" sodipodi:nodetypes="cccc" style="fill:#dc00a1" d="m773.58 621.43c8.08 19.72 12.69 39.19 14.33 59.87-0.76 4.95-17.09 8.1-26.15 10.33 8.44-21.15 11.05-45.21 11.82-70.2z"/>
      </g>
      <g id="g4280">
        <g id="g3828" transform="matrix(-.76422 .10107 .10107 .76422 841.5 141.26)">
          <path id="path3830" sodipodi:rx="13.823542" sodipodi:ry="12.863573" style="fill:#f5d2a7" sodipodi:type="arc" d="m327.93 174.76a13.824 12.864 0 1 1 -27.65 0h13.82z" inkscape:transform-center-x="-2.4505398" inkscape:transform-center-y="-5.471436" transform="matrix(.12467 .89429 1.0778 -.13770 167.32 -42.35)" sodipodi:cy="174.75931" sodipodi:cx="314.10156" sodipodi:end="3.1415927" sodipodi:start="0"/>
          <path id="path3832" sodipodi:rx="13.823542" sodipodi:ry="12.863573" style="fill:#fae6cd" sodipodi:type="arc" d="m327.93 174.76a13.824 12.864 0 1 1 -27.65 0h13.82z" inkscape:transform-center-x="-0.053175965" inkscape:transform-center-y="-2.9930558" transform="matrix(.017954 .47548 .19157 -.022967 362.78 66.789)" sodipodi:cy="174.75931" sodipodi:cx="314.10156" sodipodi:end="3.1415927" sodipodi:start="0"/>
          <g id="g3834">
            <path id="path3836" sodipodi:nodetypes="csccscc" style="fill:#ffd138" d="m404.64 223.19c0.84 2.13 1.43 5.16 0.13 6.95-2.24 3.12-3.4-2.76-1.75-8.72l-3.66-0.82c-1.14 5.68-2.02 15.48 5.43 13.92 4.98-1.04 3.63-12.36 2.23-14.14-0.68 1.04-1.49 1.95-2.38 2.81z"/>
            <path id="path3838" sodipodi:rx="3.071898" sodipodi:ry="3.551882" style="fill:#ffd138" sodipodi:type="arc" d="m299.89 218.05a3.0719 3.5519 0 1 1 -6.14 0 3.0719 3.5519 0 1 1 6.14 0z" transform="matrix(-.68202 .069529 .068250 .66947 588.52 55.138)" sodipodi:cy="218.05388" sodipodi:cx="296.82214"/>
          </g>
        </g>
        <g id="g3821" transform="matrix(.74928 .051898 -.051898 .74928 336.69 162.59)">
          <path id="path3786" sodipodi:rx="13.823542" sodipodi:ry="12.863573" style="fill:#f5d2a7" sodipodi:type="arc" d="m327.93 174.76a13.824 12.864 0 1 1 -27.65 0h13.82z" inkscape:transform-center-x="-2.4505398" inkscape:transform-center-y="-5.471436" transform="matrix(.12467 .89429 1.0778 -.13770 167.32 -42.35)" sodipodi:cy="174.75931" sodipodi:cx="314.10156" sodipodi:end="3.1415927" sodipodi:start="0"/>
          <path id="path3790" sodipodi:rx="13.823542" sodipodi:ry="12.863573" style="fill:#fae6cd" sodipodi:type="arc" d="m327.93 174.76a13.824 12.864 0 1 1 -27.65 0h13.82z" inkscape:transform-center-x="-0.053175965" inkscape:transform-center-y="-2.9930558" transform="matrix(.017954 .47548 .19157 -.022967 362.78 66.789)" sodipodi:cy="174.75931" sodipodi:cx="314.10156" sodipodi:end="3.1415927" sodipodi:start="0"/>
          <g id="g3786">
            <path id="path3788" sodipodi:nodetypes="csccscc" style="fill:#ffd138" d="m404.64 223.19c0.84 2.13 1.43 5.16 0.13 6.95-2.24 3.12-3.4-2.76-1.75-8.72l-3.66-0.82c-1.14 5.68-2.02 15.48 5.43 13.92 4.98-1.04 3.63-12.36 2.23-14.14-0.68 1.04-1.49 1.95-2.38 2.81z"/>
            <path id="path3792" sodipodi:rx="3.071898" sodipodi:ry="3.551882" style="fill:#ffd138" sodipodi:type="arc" d="m299.89 218.05a3.0719 3.5519 0 1 1 -6.14 0 3.0719 3.5519 0 1 1 6.14 0z" transform="matrix(-.68202 .069529 .068250 .66947 588.52 55.138)" sodipodi:cy="218.05388" sodipodi:cx="296.82214"/>
          </g>
        </g>
        <path id="path7772" sodipodi:nodetypes="csssssc" style="fill:#f8dda6" d="m626.24 340.74c-0.78 10.19-13.83 44.46-35.81 43.15-21.1-1.25-33.86-36.19-34.16-46.63-0.2-7 0.64-18.62 6.1-27.95 6.26-10.72 17.9-18.72 29.19-18.56 12.09 0.18 23.63 9.63 29.61 21.3 4.48 8.73 5.87 21.46 5.07 28.69z"/>
        <path id="path5686" sodipodi:nodetypes="cssssscccsssssssssssssc" style="fill:#000000" d="m583 268.54c-14.04 16.09-36.05 11.94-27.52 64.61 0.4 2.49 0.72 3.42 0.77 3.55 0.03 0.05 0 0.04 0-0.29 0.01-0.93 1.96-5.68 4.2-7.5 4.62-3.76 9.92-6 18.88-8 12.46-2.78 21.13-6.24 25.88-10.33l1.65-1.42-1.44 2.08c-2.37 3.39-7.87 6.95-14.31 9.29-3.87 1.41-0.13 1.18 4.65-0.29 7.31-2.24 14.51-7.94 17.62-13.91 0.82-1.56 1.65-2.8 1.86-3.03 0.02-0.02 0.04 0.01 0.09 0.07 0.1 0.15 0.38 0.4 0.68 0.84 0.23 0.34 0.6 0.72 0.95 1.16 0.15 0.21 0.32 0.42 0.44 0.67 4.01 8.14 8.01 20.58 8.85 26.36 0.46 3.12-0.38 4.21 1.02 2.03 0.49-0.76 3.55-15.54 0.93-30.16-3.3-18.43-12.31-25.27-27.36-28.46-4.64-0.98-5.6-1.42-6.52-3-2.03-3.49-4.2-4.31-11.32-4.27z"/>
        <path id="path4834" sodipodi:nodetypes="ccs" style="fill:#ffcdcd" d="m622.68 347.12c0.36 2.62-3.66 12.07-9.99 5.86-5.23-7.78 7.99-20.72 9.99-5.86z"/>
        <path id="path4755" sodipodi:nodetypes="ccs" style="fill:#ffc9c9" d="m560.7 347.72c-0.01 2.64 5.24 11.47 10.68 4.48 4.15-8.41-10.67-19.47-10.68-4.48z"/>
        <g id="g7906" style="fill:#fdc676" transform="matrix(.78194 0 0 .78194 314.93 199.05)">
          <path id="path7908" sodipodi:rx="1.6995875" sodipodi:ry="2.3794224" style="fill:#fdc676" sodipodi:type="arc" d="m346.72 189.82a1.6996 2.3794 0 1 1 -3.4 0 1.6996 2.3794 0 1 1 3.4 0z" transform="matrix(0 -0.642 .62042 0 233.97 414.83)" sodipodi:cy="189.82152" sodipodi:cx="345.01627"/>
          <path id="path7910" sodipodi:rx="1.6995875" sodipodi:ry="2.3794224" style="fill:#fdc676" sodipodi:type="arc" d="m346.72 189.82a1.6996 2.3794 0 1 1 -3.4 0 1.6996 2.3794 0 1 1 3.4 0z" transform="matrix(0 -0.642 .62042 0 239.97 414.83)" sodipodi:cy="189.82152" sodipodi:cx="345.01627"/>
        </g>
        <path id="path7774" sodipodi:nodetypes="ccccc" style="fill:#39330e" d="m585.47 324.57c-5.01-5.46-12.52-6.3-20.25 0v0.7c7.31-4.59 15.87-0.21 20.25 0v-0.7z"/>
        <path id="path7776" sodipodi:nodetypes="csssscsccc" style="stroke:#000000;stroke-width:.72180;fill:#ffffff" d="m584.16 336.54c-0.96-0.67-1.09-1.06-1.88-1.96-0.28-0.32-0.64-0.68-1.01-1.01-0.15-0.13-0.32-0.25-0.47-0.38-0.14-0.11-0.31-0.22-0.44-0.33-1.03-0.86-2.4-1.51-3.75-1.82-1.07-0.27-2.04-0.32-2.95-0.24-2.38 0.21-4.22 1.37-5.51 3.13 1.4 2.85 4.07 5.13 7.32 5.38 3.29 0.25 5.65-2 8.69-2.77z"/>
        <path id="path7778" sodipodi:nodetypes="cssssccsccsscc" style="fill:#fab2b7" d="m585.17 336.37c-0.25 0.12-0.61-0.52-0.79-0.62-0.19-0.1-0.41-0.29-0.71-0.67-0.57-0.73-1.13-1.38-1.69-1.98-0.33-0.35-0.76-0.65-1.09-0.96-0.46-0.42-1.01-0.71-1.48-1.02-0.12-0.07-0.17-0.14-0.28-0.2-0.04-0.02-0.09-0.06-0.13-0.08-4.34-2.91-8.4-1.68-11.39 2.37-1.34-1.69-0.06-5.59 0.49-6.27 0.74-0.78 3.57-2.61 6.94-2.17 3.02 0.4 4.32 0.77 6.66 2.57 1.07 0.83 2.72 2.52 3.8 4.54 0.71 1.73 0.33 3.61-0.33 4.49z"/>
        <path id="path7780" sodipodi:nodetypes="cscscsscc" style="fill:#c83771" d="m585 336.69c-0.63-0.29-0.94-0.42-1.49-1.17-4.37-5.88-11.77-7-15.76-1.6-0.19-0.25-0.31-0.51-0.37-0.76-0.35-1.4 1.34-2.59 2.35-3.44 1.37-0.95 2.58-1.8 5.07-1.66 1.21 0.06 2.6 0.36 4.77 1.54 1.18 0.65 3.05 2.24 4 3.26 1.56 1.66 2.08 3.02 1.43 3.83z"/>
        <path id="path7818" sodipodi:nodetypes="ccccc" style="stroke:#241f1c;stroke-width:.10698;fill:#241f1c" d="m576.06 329.19l-0.12 0.15c0.45 0.28 0.22 0.65 0.01 1.2l0.18 0.04c0.28-0.62 0.43-1.11-0.07-1.39z"/>
        <path id="path7820" sodipodi:nodetypes="ccccc" style="stroke:#241f1c;stroke-width:.10698;fill:#241f1c" d="m575.1 329.11l-0.1 0.16c0.46 0.24 0.27 0.63 0.12 1.2l0.18 0.02c0.22-0.65 0.32-1.15-0.2-1.38z"/>
        <path id="path7822" sodipodi:nodetypes="cccccc" style="stroke:#241f1c;stroke-width:.10698;fill:#241f1c" d="m574.16 329.05l-0.08 0.17c0.49 0.19 0.33 0.61 0.23 1.18h0.18c0.16-0.66 0.22-1.17-0.33-1.35z"/>
        <path id="path7824" sodipodi:nodetypes="ccccc" style="stroke:#241f1c;stroke-width:.10698;fill:#241f1c" d="m573.22 329.11l-0.08 0.18c0.5 0.13 0.37 0.58 0.31 1.17l0.18-0.02c0.12-0.67 0.15-1.22-0.41-1.33z"/>
        <path id="path7826" sodipodi:nodetypes="ccccc" style="stroke:#241f1c;stroke-width:.10698;fill:#241f1c" d="m572.32 329.31l-0.06 0.19c0.51 0.08 0.43 0.51 0.42 1.1l0.18-0.04c0.05-0.68 0.03-1.19-0.54-1.25z"/>
        <path id="path7828" sodipodi:nodetypes="ccccc" style="stroke:#241f1c;stroke-width:.10698;fill:#241f1c" d="m571.33 329.61l-0.04 0.2c0.52 0.03 0.47 0.48 0.52 1.06l0.18-0.06c-0.02-0.68-0.09-1.19-0.66-1.2z"/>
        <path id="path7830" sodipodi:nodetypes="ccccc" style="stroke:#241f1c;stroke-width:.10698;fill:#241f1c" d="m570.4 330.03l-0.02 0.19c0.53-0.05 0.53 0.39 0.64 0.96l0.17-0.08c-0.09-0.66-0.22-1.16-0.79-1.07z"/>
        <path id="path7832" sodipodi:nodetypes="ccccc" style="stroke:#241f1c;stroke-width:.10698;fill:#241f1c" d="m569.58 330.56v0.2c0.51-0.1 0.55 0.34 0.72 0.9l0.16-0.1c-0.15-0.66-0.32-1.13-0.88-1z"/>
        <path id="path7834" sodipodi:nodetypes="ccccc" style="stroke:#241f1c;stroke-width:.10698;fill:#241f1c" d="m568.72 331.11l0.01 0.2c0.51-0.15 0.59 0.29 0.81 0.82l0.15-0.12c-0.21-0.63-0.43-1.09-0.97-0.9z"/>
        <path id="path7836" sodipodi:nodetypes="ccccc" style="stroke:#241f1c;stroke-width:.10698;fill:#241f1c" d="m567.87 331.89l0.05 0.19c0.47-0.24 0.62 0.17 0.91 0.65l0.13-0.13c-0.3-0.59-0.57-0.99-1.09-0.71z"/>
        <path id="path7838" sodipodi:nodetypes="ccccc" style="stroke:#241f1c;stroke-width:.10698;fill:#241f1c" d="m567.09 332.71l0.06 0.18c0.46-0.28 0.64 0.12 0.96 0.57l0.13-0.15c-0.34-0.55-0.65-0.93-1.15-0.6z"/>
        <path id="path7796" sodipodi:nodetypes="ccccc" style="stroke:#241f1c;stroke-width:.10698;fill:#241f1c" d="m584.53 334.68l-0.18 0.05c0.2 0.51-0.2 0.63-0.65 0.98 0.02 0.04 0.07 0.1 0.12 0.15 0.55-0.35 0.94-0.62 0.71-1.18z"/>
        <path id="path7798" sodipodi:nodetypes="ccccc" style="stroke:#241f1c;stroke-width:.10698;fill:#241f1c" d="m583.99 333.97l-0.18 0.04c0.18 0.53-0.21 0.68-0.68 0.98l0.12 0.15c0.57-0.32 0.96-0.61 0.74-1.17z"/>
        <path id="path7800" sodipodi:nodetypes="ccccc" style="stroke:#241f1c;stroke-width:.10698;fill:#241f1c" d="m583.35 333.26l-0.17 0.05c0.22 0.51-0.16 0.69-0.61 1.03l0.13 0.14c0.54-0.36 0.92-0.68 0.65-1.22z"/>
        <path id="path7802" sodipodi:nodetypes="ccccc" style="stroke:#241f1c;stroke-width:.10698;fill:#241f1c" d="m582.65 332.55l-0.17 0.06c0.25 0.5-0.13 0.7-0.56 1.05l0.14 0.14c0.52-0.38 0.88-0.72 0.59-1.25z"/>
        <path id="path7804" sodipodi:nodetypes="ccccc" style="stroke:#241f1c;stroke-width:.10698;fill:#241f1c" d="m581.97 331.98l-0.17 0.07c0.27 0.49-0.09 0.7-0.49 1.08l0.14 0.13c0.5-0.41 0.84-0.77 0.52-1.28z"/>
        <path id="path7806" sodipodi:nodetypes="ccccc" style="stroke:#241f1c;stroke-width:.10698;fill:#241f1c" d="m581.25 331.39l-0.16 0.08c0.29 0.47-0.07 0.71-0.46 1.11l0.15 0.12c0.48-0.44 0.81-0.82 0.47-1.31z"/>
        <path id="path7808" sodipodi:nodetypes="ccccc" style="stroke:#000000;stroke-width:.10698;fill:#000000" d="m580.48 330.85l-0.16 0.1c0.33 0.44 0 0.71-0.36 1.15l0.16 0.1c0.44-0.48 0.74-0.88 0.36-1.35z"/>
        <path id="path7810" sodipodi:nodetypes="ccccc" style="stroke:#241f1c;stroke-width:.10698;fill:#241f1c" d="m579.61 330.35l-0.15 0.12c0.35 0.4 0.04 0.7-0.28 1.17l0.16 0.08c0.41-0.52 0.68-0.95 0.27-1.37z"/>
        <path id="path7812" sodipodi:nodetypes="ccccc" style="stroke:#241f1c;stroke-width:.10698;fill:#241f1c" d="m578.71 329.92l-0.14 0.13c0.38 0.37 0.09 0.7-0.2 1.19l0.17 0.08c0.37-0.55 0.61-1.01 0.17-1.4z"/>
        <path id="path7814" sodipodi:nodetypes="ccccc" style="stroke:#241f1c;stroke-width:.10698;fill:#241f1c" d="m577.85 329.64l-0.14 0.14c0.41 0.35 0.14 0.69-0.12 1.2l0.17 0.06c0.34-0.57 0.55-1.04 0.09-1.4z"/>
        <path id="path7816" sodipodi:nodetypes="ccccc" style="stroke:#241f1c;stroke-width:.10698;fill:#241f1c" d="m576.93 329.38l-0.12 0.15c0.43 0.32 0.18 0.68-0.04 1.21l0.18 0.05c0.3-0.6 0.47-1.08-0.02-1.41z"/>
        <path id="path7794" sodipodi:nodetypes="ccccc" style="stroke:#241f1c;stroke-width:.10698;fill:#241f1c" d="m585.23 335.3l-0.18 0.05c0.19 0.52-0.24 0.69-0.7 1.01 0.05 0.05 0.1 0.09 0.15 0.12 0.56-0.32 0.96-0.62 0.73-1.18z"/>
        <path id="path4597" sodipodi:rx="27.019947" sodipodi:ry="29.219727" style="fill:#224476" sodipodi:type="arc" d="m432.47 398.43a27.02 29.22 0 1 1 -54.04 0 27.02 29.22 0 1 1 54.04 0z" transform="matrix(-.13735 -.011943 -.013178 .12070 636.54 291.99)" sodipodi:cy="398.42923" sodipodi:cx="405.45203"/>
        <path id="path4609" sodipodi:rx="27.019947" sodipodi:ry="29.219727" style="fill:#6e98d4" sodipodi:type="arc" d="m432.47 398.43a27.02 29.22 0 1 1 -54.04 0 27.02 29.22 0 1 1 54.04 0z" transform="matrix(-.11950 -.010391 -.011466 .10501 628.59 297.66)" sodipodi:cy="398.42923" sodipodi:cx="405.45203"/>
        <path id="path5381" sodipodi:rx="27.019947" sodipodi:ry="29.219727" style="fill:#99c4ff" sodipodi:type="arc" d="m432.47 398.43a27.02 29.22 0 1 1 -54.04 0 27.02 29.22 0 1 1 54.04 0z" transform="matrix(-.095041 -.0082642 -.0091188 .083520 617.75 305.39)" sodipodi:cy="398.42923" sodipodi:cx="405.45203"/>
        <g id="g4599" style="fill:#000000" transform="matrix(-.072334 .00063303 -.00090457 .067269 604.71 307.93)">
          <path id="path4601" sodipodi:rx="26.728123" sodipodi:ry="29.219727" style="fill:#000000" sodipodi:type="arc" d="m432.18 398.43a26.728 29.22 0 1 1 -53.46 0 26.728 29.22 0 1 1 53.46 0z" transform="matrix(.62712 0 0 .68217 143.94 130.48)" sodipodi:cy="398.42923" sodipodi:cx="405.45203"/>
          <path id="path4603" sodipodi:nodetypes="ccccc" style="opacity:.84615;fill:#000000" d="m382.91 397.29c4.84-12.93 13.84-15.96 23.6-11.45l-0.35 1.78c-10.63-3.9-17.81-0.53-21.79 10.89l-1.46-1.22z"/>
          <path id="path4605" sodipodi:nodetypes="ccccc" style="opacity:.84615;fill:#000000" d="m413.26 407.27c-4.84 12.93-13.83 15.96-23.6 11.46l0.36-1.78c10.62 3.89 17.81 0.52 21.79-10.89l1.45 1.21z"/>
        </g>
        <path id="path4607" sodipodi:rx="3.5987327" sodipodi:ry="4.1128373" style="fill:#ffffff" sodipodi:type="arc" d="m380.09 401.16a3.5987 4.1128 0 1 1 -7.19 0 3.5987 4.1128 0 1 1 7.19 0z" transform="matrix(-.15406 -.014469 -.014105 .13952 639.22 284.66)" sodipodi:cy="401.16293" sodipodi:cx="376.49597"/>
        <path id="path5602" sodipodi:nodetypes="ccccc" style="fill:#39330e" d="m598.24 324.53c5-5.46 12.51-6.3 20.25 0v0.71c-7.32-4.59-15.88-0.21-20.25 0v-0.71z"/>
        <path id="path5604" sodipodi:nodetypes="csssscsccc" style="stroke:#000000;stroke-width:.72180;fill:#ffffff" d="m599.55 336.5c0.95-0.67 1.08-1.06 1.87-1.95 0.29-0.33 0.64-0.68 1.02-1.01 0.15-0.14 0.32-0.26 0.47-0.38 0.14-0.12 0.3-0.23 0.43-0.33 1.03-0.87 2.4-1.52 3.75-1.83 1.07-0.27 2.05-0.31 2.96-0.23 2.38 0.2 4.22 1.36 5.5 3.12-1.4 2.86-4.07 5.13-7.31 5.38-3.3 0.25-5.65-2-8.69-2.77z"/>
        <path id="path5606" sodipodi:nodetypes="cssssccsccsscc" style="fill:#fab2b7" d="m598.53 336.33c0.26 0.12 0.61-0.52 0.79-0.62 0.2-0.1 0.41-0.29 0.71-0.67 0.57-0.73 1.13-1.37 1.69-1.98 0.33-0.35 0.77-0.65 1.09-0.95 0.46-0.43 1.01-0.72 1.49-1.02 0.11-0.08 0.16-0.15 0.28-0.21 0.03-0.02 0.08-0.05 0.12-0.08 4.34-2.91 8.4-1.67 11.4 2.38 1.33-1.7 0.05-5.59-0.49-6.27-0.74-0.79-3.57-2.61-6.95-2.17-3.02 0.39-4.32 0.76-6.66 2.57-1.06 0.82-2.71 2.51-3.8 4.54-0.71 1.72-0.33 3.6 0.33 4.48z"/>
        <path id="path5608" sodipodi:nodetypes="cscscsscc" style="fill:#c83771" d="m598.7 336.65c0.64-0.29 0.94-0.42 1.5-1.17 4.36-5.88 11.76-7 15.75-1.6 0.2-0.25 0.31-0.51 0.37-0.75 0.36-1.41-1.34-2.59-2.35-3.44-1.37-0.96-2.58-1.81-5.06-1.67-1.22 0.07-2.61 0.36-4.78 1.54-1.18 0.65-3.04 2.25-4 3.27-1.56 1.65-2.08 3.01-1.43 3.82z"/>
        <path id="path5610" sodipodi:nodetypes="ccccc" style="stroke:#241f1c;stroke-width:.10698;fill:#241f1c" d="m607.64 329.15l0.12 0.15c-0.45 0.28-0.21 0.66-0.01 1.21l-0.18 0.03c-0.28-0.62-0.43-1.11 0.07-1.39z"/>
        <path id="path5612" sodipodi:nodetypes="ccccc" style="stroke:#241f1c;stroke-width:.10698;fill:#241f1c" d="m608.6 329.07l0.11 0.17c-0.47 0.23-0.28 0.63-0.13 1.19l-0.18 0.02c-0.21-0.64-0.32-1.15 0.2-1.38z"/>
        <path id="path5614" sodipodi:nodetypes="cccccc" style="stroke:#241f1c;stroke-width:.10698;fill:#241f1c" d="m609.54 329.01l0.08 0.18c-0.48 0.18-0.33 0.6-0.23 1.18l-0.18-0.01c-0.16-0.65-0.22-1.17 0.33-1.35z"/>
        <path id="path5616" sodipodi:nodetypes="ccccc" style="stroke:#241f1c;stroke-width:.10698;fill:#241f1c" d="m610.48 329.07l0.08 0.18c-0.5 0.13-0.37 0.59-0.31 1.17l-0.18-0.02c-0.11-0.67-0.14-1.21 0.41-1.33z"/>
        <path id="path5618" sodipodi:nodetypes="ccccc" style="stroke:#241f1c;stroke-width:.10698;fill:#241f1c" d="m611.38 329.27l0.06 0.19c-0.51 0.08-0.42 0.51-0.42 1.1l-0.18-0.04c-0.05-0.68-0.02-1.19 0.54-1.25z"/>
        <path id="path5620" sodipodi:nodetypes="ccccc" style="stroke:#241f1c;stroke-width:.10698;fill:#241f1c" d="m612.37 329.57l0.04 0.2c-0.52 0.03-0.47 0.48-0.52 1.06l-0.17-0.05c0.01-0.68 0.08-1.19 0.65-1.21z"/>
        <path id="path5622" sodipodi:nodetypes="ccccc" style="stroke:#241f1c;stroke-width:.10698;fill:#241f1c" d="m613.3 329.99l0.02 0.2c-0.52-0.06-0.53 0.39-0.64 0.95l-0.17-0.08c0.09-0.66 0.22-1.15 0.79-1.07z"/>
        <path id="path5624" sodipodi:nodetypes="ccccc" style="stroke:#241f1c;stroke-width:.10698;fill:#241f1c" d="m614.12 330.52v0.2c-0.51-0.1-0.55 0.35-0.71 0.9l-0.16-0.1c0.14-0.65 0.31-1.13 0.87-1z"/>
        <path id="path5626" sodipodi:nodetypes="ccccc" style="stroke:#241f1c;stroke-width:.10698;fill:#241f1c" d="m614.99 331.07l-0.02 0.2c-0.5-0.15-0.59 0.29-0.8 0.82l-0.16-0.11c0.22-0.64 0.43-1.1 0.98-0.91z"/>
        <path id="path5628" sodipodi:nodetypes="ccccc" style="stroke:#241f1c;stroke-width:.10698;fill:#241f1c" d="m615.83 331.85l-0.04 0.19c-0.48-0.23-0.62 0.17-0.91 0.65l-0.14-0.13c0.3-0.58 0.58-0.99 1.09-0.71z"/>
        <path id="path5630" sodipodi:nodetypes="ccccc" style="stroke:#241f1c;stroke-width:.10698;fill:#241f1c" d="m616.61 332.67l-0.06 0.19c-0.46-0.28-0.64 0.11-0.96 0.56l-0.13-0.15c0.35-0.55 0.65-0.93 1.15-0.6z"/>
        <path id="path5632" sodipodi:nodetypes="ccccc" style="stroke:#241f1c;stroke-width:.10698;fill:#241f1c" d="m599.17 334.64l0.18 0.05c-0.19 0.52 0.21 0.63 0.66 0.99-0.03 0.03-0.08 0.09-0.13 0.14-0.55-0.34-0.94-0.62-0.71-1.18z"/>
        <path id="path5634" sodipodi:nodetypes="ccccc" style="stroke:#241f1c;stroke-width:.10698;fill:#241f1c" d="m599.71 333.93l0.18 0.05c-0.18 0.52 0.21 0.67 0.68 0.97l-0.12 0.15c-0.56-0.31-0.96-0.6-0.74-1.17z"/>
        <path id="path5636" sodipodi:nodetypes="ccccc" style="stroke:#241f1c;stroke-width:.10698;fill:#241f1c" d="m600.35 333.22l0.17 0.06c-0.22 0.5 0.16 0.68 0.61 1.02l-0.13 0.14c-0.54-0.35-0.92-0.68-0.65-1.22z"/>
        <path id="path5638" sodipodi:nodetypes="ccccc" style="stroke:#241f1c;stroke-width:.10698;fill:#241f1c" d="m601.05 332.51l0.17 0.07c-0.24 0.49 0.13 0.69 0.56 1.05l-0.14 0.13c-0.52-0.38-0.88-0.72-0.59-1.25z"/>
        <path id="path5640" sodipodi:nodetypes="ccccc" style="stroke:#241f1c;stroke-width:.10698;fill:#241f1c" d="m601.74 331.94l0.16 0.08c-0.27 0.48 0.09 0.69 0.5 1.08l-0.15 0.12c-0.5-0.41-0.83-0.76-0.51-1.28z"/>
        <path id="path5642" sodipodi:nodetypes="ccccc" style="stroke:#241f1c;stroke-width:.10698;fill:#241f1c" d="m602.45 331.35l0.16 0.09c-0.28 0.46 0.07 0.7 0.46 1.1l-0.14 0.12c-0.49-0.44-0.82-0.81-0.48-1.31z"/>
        <path id="path5644" sodipodi:nodetypes="ccccc" style="stroke:#000000;stroke-width:.10698;fill:#000000" d="m603.22 330.82l0.16 0.1c-0.33 0.43 0 0.7 0.36 1.14l-0.15 0.1c-0.45-0.47-0.74-0.88-0.37-1.34z"/>
        <path id="path5646" sodipodi:nodetypes="ccccc" style="stroke:#241f1c;stroke-width:.10698;fill:#241f1c" d="m604.1 330.31l0.15 0.12c-0.36 0.4-0.05 0.7 0.28 1.17l-0.17 0.09c-0.41-0.52-0.67-0.96-0.26-1.38z"/>
        <path id="path5648" sodipodi:nodetypes="ccccc" style="stroke:#241f1c;stroke-width:.10698;fill:#241f1c" d="m604.99 329.89l0.14 0.12c-0.38 0.38-0.09 0.7 0.2 1.2l-0.17 0.07c-0.37-0.55-0.61-1-0.17-1.39z"/>
        <path id="path5650" sodipodi:nodetypes="ccccc" style="stroke:#241f1c;stroke-width:.10698;fill:#241f1c" d="m605.85 329.61l0.14 0.13c-0.41 0.35-0.14 0.69 0.13 1.2l-0.18 0.06c-0.34-0.57-0.55-1.03-0.09-1.39z"/>
        <path id="path5652" sodipodi:nodetypes="ccccc" style="stroke:#241f1c;stroke-width:.10698;fill:#241f1c" d="m606.77 329.35l0.12 0.14c-0.43 0.32-0.18 0.68 0.04 1.21l-0.18 0.05c-0.29-0.6-0.47-1.08 0.02-1.4z"/>
        <path id="path5654" sodipodi:nodetypes="ccccc" style="stroke:#241f1c;stroke-width:.10698;fill:#241f1c" d="m598.47 335.27l0.18 0.04c-0.19 0.52 0.24 0.7 0.7 1.01-0.05 0.05-0.09 0.09-0.14 0.13-0.56-0.32-0.97-0.62-0.74-1.18z"/>
        <path id="path5656" sodipodi:rx="27.019947" sodipodi:ry="29.219727" style="fill:#224476" sodipodi:type="arc" d="m432.47 398.43a27.02 29.22 0 1 1 -54.04 0 27.02 29.22 0 1 1 54.04 0z" transform="matrix(.13735 -.011943 .013178 .12070 547.17 291.96)" sodipodi:cy="398.42923" sodipodi:cx="405.45203"/>
        <path id="path5658" sodipodi:rx="27.019947" sodipodi:ry="29.219727" style="fill:#6e98d4" sodipodi:type="arc" d="m432.47 398.43a27.02 29.22 0 1 1 -54.04 0 27.02 29.22 0 1 1 54.04 0z" transform="matrix(.11950 -.010391 .011466 .10501 555.11 297.62)" sodipodi:cy="398.42923" sodipodi:cx="405.45203"/>
        <path id="path5660" sodipodi:rx="27.019947" sodipodi:ry="29.219727" style="fill:#99c4ff" sodipodi:type="arc" d="m432.47 398.43a27.02 29.22 0 1 1 -54.04 0 27.02 29.22 0 1 1 54.04 0z" transform="matrix(.095041 -.0082642 .0091188 .083520 565.95 305.35)" sodipodi:cy="398.42923" sodipodi:cx="405.45203"/>
        <g id="g5662" style="fill:#000000" transform="matrix(.072334 .00063303 .00090457 .067269 579 307.9)">
          <path id="path5664" sodipodi:rx="26.728123" sodipodi:ry="29.219727" style="fill:#000000" sodipodi:type="arc" d="m432.18 398.43a26.728 29.22 0 1 1 -53.46 0 26.728 29.22 0 1 1 53.46 0z" transform="matrix(.62712 0 0 .68217 143.94 130.48)" sodipodi:cy="398.42923" sodipodi:cx="405.45203"/>
          <path id="path5666" sodipodi:nodetypes="ccccc" style="opacity:.84615;fill:#000000" d="m382.91 397.29c4.84-12.93 13.84-15.96 23.6-11.45l-0.35 1.78c-10.63-3.9-17.81-0.53-21.79 10.89l-1.46-1.22z"/>
          <path id="path5668" sodipodi:nodetypes="ccccc" style="opacity:.84615;fill:#000000" d="m413.26 407.27c-4.84 12.93-13.83 15.96-23.6 11.46l0.36-1.78c10.62 3.89 17.81 0.52 21.79-10.89l1.45 1.21z"/>
        </g>
        <path id="path5670" sodipodi:rx="3.5987327" sodipodi:ry="4.1128373" style="fill:#ffffff" sodipodi:type="arc" d="m380.09 401.16a3.5987 4.1128 0 1 1 -7.19 0 3.5987 4.1128 0 1 1 7.19 0z" transform="matrix(.15406 -.014469 .014105 .13952 544.49 284.63)" sodipodi:cy="401.16293" sodipodi:cx="376.49597"/>
        <path id="path5688" sodipodi:rx="26.173489" sodipodi:ry="15.301425" style="fill:#000000" sodipodi:type="arc" d="m620.92 276.82a26.173 15.301 0 1 1 -52.35 0 26.173 15.301 0 1 1 52.35 0z" transform="matrix(.99968 0 0 1.226 -1.8833 -67.314)" sodipodi:cy="276.82156" sodipodi:cx="594.74219"/>
        <path id="path11153" sodipodi:rx="26.173489" sodipodi:ry="15.301425" style="fill:#404040" sodipodi:type="arc" d="m620.92 276.82a26.173 15.301 0 1 1 -52.35 0 26.173 15.301 0 1 1 52.35 0z" transform="matrix(.61915 0 0 .75933 224.14 59.826)" sodipodi:cy="276.82156" sodipodi:cx="594.74219"/>
        <path id="path11399" sodipodi:nodetypes="csssss" style="fill:#414141" d="m612.41 285.68c-0.14-3.49-2.54 0.51-4.34 1.45-3.99 2.08-3.45 5.25-16.19 4.21-6.45-0.53-21.28 1.32-26.31 5.82-3.4 3.05-2.47 8.8 5.27 10.77 3.58 0.91 42.64 4.29 41.57-22.25z"/>
        <g id="g11651" transform="matrix(.93990 0 0 .93990 54.546 21.747)">
          <path id="path11637" sodipodi:nodetypes="cccccccccc" style="fill:#d65689" d="m558.64 364.18c0.76-0.81 2.35 0.35 5.05-1.29 2.04-1.07 3.57-1.59 5.05-1.33 1.48 0.42 2.1 1.72 3.32 1.94 1.17-0.24 1.4-1.28 2.94-1.79 1.7-0.51 2.86-0.02 4.57 1.21 1.93 1.71 4.52 0.54 5.07 1.66-0.39 1.02-1.52 2.28-2.49 2.92-6.79 4.96-12.67 4.7-20.32 0.75-1.51-0.87-3.02-2.46-3.19-4.07z"/>
          <path id="path11639" sodipodi:nodetypes="cscscsscc" style="opacity:.69048;fill:#dd61aa" d="m563.9 367.57c0.29-0.27 3.07-0.35 5.33-0.12 1.38 0.14 2.58 0.2 2.94 0.15 0.42-0.01 1.69 0.05 3.15-0.15 2.17-0.29 4.65-0.39 4.87-0.05-0.98 1.14-2.95 1.92-5.26 2.29-1.23 0.21-1.79 0.31-2.67 0.27-3.7-0.18-7.15-0.62-8.36-2.39z"/>
          <path id="path11641" sodipodi:nodetypes="cccc" style="opacity:.69048;fill:#dd61ab" d="m564.52 364.2c1.43-0.8 1.92-1.07 2.96-1.14 0.41-0.01 2.39 0.71 2.8 1.49-2.25 3.14-7.67 0.85-5.76-0.35z"/>
          <path id="path11643" sodipodi:nodetypes="cccc" style="opacity:.69048;fill:#dd61a9" d="m579.44 364.14c-1.44-0.79-1.92-1.07-2.96-1.13-0.41-0.02-2.4 0.7-2.81 1.49 2.25 3.14 7.67 0.85 5.77-0.36z"/>
        </g>
      </g>
      <path id="path11769" sodipodi:nodetypes="cccccccccccsccc" style="fill:#ffe9b5" d="m594.63 183.36c-0.53 0.6-2.79 2.31 0.41 3.81 0 0 0.87 1.32 3.49 0.67 1.79 1.48 4.85 1.53 6.3 0.41 1.94 0.75 4.58 2.52 7.61 0.31 3.79 2.38 7.9 7.34 9.05 8.48-0.9 3.16-5.2 6.44-9.87 6.82-2.37 0.01-8.11-5.7-9.14-5.94-3.55-1.99-7.47-2.75-6.47 0.4 5.24 2.05 8.02 7.28 11.84 9.95 2.38 1.24 13.02 2.14 17.25 0.46 0 0 7.34-4.1 8.49-8.45 1.16-4.41-0.38-7.5-1.68-9.17-3.65-3.85-5.91-11.69-10.57-12.13-11.5-1.57-19.33-1.33-26.71 4.38z"/>
    </g>
  </g>
  <metadata>
    <rdf:RDF>
      <cc:Work>
        <dc:format>image/svg+xml</dc:format>
        <dc:type rdf:resource="http://purl.org/dc/dcmitype/StillImage"/>
        <cc:license rdf:resource="http://creativecommons.org/licenses/publicdomain/"/>
        <dc:publisher>
          <cc:Agent rdf:about="http://openclipart.org/">
            <dc:title>Openclipart</dc:title>
          </cc:Agent>
        </dc:publisher>
        <dc:title>women dancing</dc:title>
        <dc:date>2011-08-16T21:09:10</dc:date>
        <dc:description>women warming up at dance practice</dc:description>
        <dc:source>https://openclipart.org/detail/155587/women-dancing-by-artmaker</dc:source>
        <dc:creator>
          <cc:Agent>
            <dc:title>Artmaker</dc:title>
          </cc:Agent>
        </dc:creator>
        <dc:subject>
          <rdf:Bag>
            <rdf:li>Dance</rdf:li>
            <rdf:li>ballet</rdf:li>
            <rdf:li>contemporary</rdf:li>
            <rdf:li>jazz</rdf:li>
            <rdf:li>movement</rdf:li>
            <rdf:li>music</rdf:li>
            <rdf:li>practice</rdf:li>
            <rdf:li>sports</rdf:li>
            <rdf:li>stretch</rdf:li>
            <rdf:li>tap</rdf:li>
            <rdf:li>warm up</rdf:li>
          </rdf:Bag>
        </dc:subject>
      </cc:Work>
      <cc:License rdf:about="http://creativecommons.org/licenses/publicdomain/">
        <cc:permits rdf:resource="http://creativecommons.org/ns#Reproduction"/>
        <cc:permits rdf:resource="http://creativecommons.org/ns#Distribution"/>
        <cc:permits rdf:resource="http://creativecommons.org/ns#DerivativeWorks"/>
      </cc:License>
    </rdf:RDF>
  </metadata>
</svg>