<?xml version="1.0" encoding="UTF-8"?>
<svg version="1.1" id="Layer_1" xmlns="http://www.w3.org/2000/svg" xmlns:xlink="http://www.w3.org/1999/xlink" x="0px" y="0px" viewBox="0 0 1203.121 1629.167" enable-background="new 0 0 1203.121 1629.167" xml:space="preserve">
<g>
	<path fill="#FF000A" d="M1167.132,402.738c1.317,2.049-0.504,4.975-2.845,5.009c-6.074,0.435-11.753-2.336-17.746-2.788   c3.589-2.359,7.946-3.063,11.85-4.751C1161.43,398.668,1165.105,400.283,1167.132,402.738z"/>
	<path fill="#FF000A" d="M1157.423,386.939c2.015,0.79,6.91,1.895,4.889,9.417c-0.074,0.263-0.767,2.713-0.916,2.713   c-3.761-0.544-15.376,4.729-17.323,5.513C1145.94,398.348,1152.54,390.333,1157.423,386.939z"/>
	<path fill="#FFFF01" d="M1162.81,555.602c-1.208,3.32-1.557,3.921-7.093,8.055c-21.255,14.987-46.753,22.933-71.941,25.509   c-17.466,1.78-20.672-3.79-23.288,5.788c-4.019,10.653-13.018,17.013-22.921,18.473c-4.895,0.727-9.457,0.469-19.624-5.066   l0.103-0.017c-0.572-0.338-4.706-2.215-4.253-5.69c0.006-0.052,0.75,0.034,0.956-0.309c0.859-0.195,1.769-0.561,2.565-0.733   c-1.757-0.698-3.675-0.675-5.518-0.698c-1.305,0.04-2.313,0.006-7.224-1.775c-2.536-1.225-3.904-4.603-3.647-5.633   c0.212-0.824,1.248-1.425,1.901-1.889c1.345-0.95,2.433-0.63,7.076-0.481c0.269-0.109,0.801-0.326,1.065-0.435   c-1.345-0.092-2.616,0.063-3.944-0.269c-1.488-0.372-2.822-1.162-4.282-1.534c-10.27-2.616-14.695-9.72-17.947-18.17   c-0.99-1.294-0.475-5.101-0.126-6.142c1.574-3.446,5.375-1.843,6.085-1.769c2.565,0.246,1.591-3.315,0.664-4.368   c-1.271-1.448-5.73-1.305-4.763-4.15c1.317-3.887,3.469-2.25,4.62-1.969c1.013,0.24,1.998-0.258,2.994-0.017   c3.526,0.864,3.566,4.23,5.456,3.114c-0.807-2.009-2.765-3.83-4.637-4.849c-2.164-0.561-3.028-0.756-3.624-0.893   c-4.185-23.087-5.604-26.179-2.651-28.732c2.496-1.843,5.925-1.185,8.667-0.275c0.658-0.149,1.334-0.286,2.015-0.412   c-6.641-8.478-8.095-14.151-8.902-15.914c-0.504-0.601-0.687-1.277-0.555-2.021c-1.254-9.222-6.778-30.804,1.838-42.711   c4.408-6.085,14.22-11.38,20.248-6.452c-0.011,0.04-0.029,0.074-0.046,0.109c0,3.389-0.12,5.221,1.277,7.848   c1.265,2.393,3.177,5.433,5.541,6.858c1.466,2.719,2.307,3.509,2.885,4.814c2.089,4.843,2.049,5.685,3.435,9.726   c0.819,2.387,2.181,4.454,3.103,6.766c0.006-0.006,0.023-0.017,0.029-0.023c2.61,7.465,1.534,7.402,10.522,11.993   c3.744,1.918,7.986,2.799,12.216,2.616c0.573,0.172,2.502-0.143,3.595-0.962c5.404,0.12,15.233-4.688,17.277-6.778   c7.391-7.528,1.277-25.915,19.017-25.285c5.089,0.177,9.331,5.032,10.974,8.822c6.578,16.315-0.796,29.138,20.511,43.702   c1.168,0.801,3.881,3.538,5.387,3.383c-0.132,0.011-0.269,0.029-0.401,0.04C1141.211,533.889,1155.299,541.995,1162.81,555.602z    M1048.215,584.769c-14.552-9.863-26.344-25.011-39.786-39.357C1014.577,558.047,1032.335,579.622,1048.215,584.769z    M1006.998,566.736c3.647,5.112,16.189,16.16,27.764,17.603C1013.787,572.163,1016.369,572.501,1006.998,566.736z"/>
	<path fill="#F3CBB2" d="M1062.59,461.782c2.656-1.706,7.471,1.82,4.047,7.018c-0.933,0.544-1.889,1.025-2.788,1.614   c0.967-0.057,2.044-0.572,2.971-0.006c0.676,0.83,0.344,2.084-0.676,2.439c-1.786,0.384-3.635-0.269-5.404,0.172   c-1.426,0.418-2.261,2.404-1.242,3.595c1.053,1.025,2.347,1.763,3.503,2.679c-1.214,0.595-2.473,1.62-3.898,1.191   c-1.775-0.756-2.227-2.828-3.12-4.333c-0.996-2.152-2.897-3.669-4.024-5.719c-0.647-1.082-0.366-2.822,0.956-3.229   c1.941-0.429,4.127,0.092,5.902-1.025C1060.409,465.016,1061.078,463.024,1062.59,461.782z"/>
	<path fill="#F3CBB2" d="M1190.431,486.283c-0.189-11.982-9.428-10.442-11.226-16.641c-6.005-18.468,7.797-33.849,5.564-47.193   c-1.454-8.449-9.159-6.658-16.149-6.114c-0.91,0.074-1.803,0.12-2.673,0.126c0.681-0.321,1.385-0.624,2.101-0.927   c0.281-2.742,0.218-5.501,0.08-8.249c-1.414,0.647-2.816,1.454-4.396,1.511c-6.114,0.338-11.798-2.347-17.769-3.074   c-2.605-0.424-5.135,0.395-7.659,0.83c1.505-0.927,3.274-1.248,4.883-1.946c1.963-7.276,7.018-13.247,12.88-17.792   c-0.2,0.155-5.484-1.78-7.694-4.242c-2.908-3.372-0.962-12.039-8.083-15.411c-12.783-6.16-23.156,3.4-34.445,7.499   c-23.145,8.301-47.714,0.733-72.347-4.202c-36.615-7.23-44.892-1.437-53.628,0.75c4.001-2.13,8.495-2.948,12.806-4.208   c-17.952-7.917-24.598-6.234-31.617-7.791c0.801-0.309,1.631-0.492,2.473-0.601c0.887-0.115,1.792-0.143,2.685-0.137   c15.502-0.344,26.018,7.265,28.079,8.335c10.327-1.076,20.191-0.572,25.978,0.475c-0.292-0.819-0.361-1.597-0.882-2.318   c-15.279-21.118-32.098-13.934-44.297-10.636c-3.876,1.105-7.82,1.82-11.793,2.244c-8.948,0.95-18.073,0.412-27.003-0.515   c-29.441-3.458-59.192-1.734-88.662-4.734c7.608,4.133,15.411,8.026,22.463,13.092c-4.814-1.975-25.148-14.701-47.257-20.935   l-1.151,6.4c7.677,10.722,18.101,15.405,32.092,24.45c56.645,35.773,67.441,39.803,72.107,53.84   c3.681,10.825,0.842,22.818-4.849,32.413c-10.333,17.477-51.333,54.51-105.67,73.985l1.362,3.761   c12.503,2.433,15.359-1.797,33.81-2.673c2.896-0.218,5.707,0.561,8.524,1.122c17.134-9.131,97.324-47.354,113.261-44.566   c2.748,0.498,5.536,2.296,6.268,5.129c0.67,2.015-0.172,4.059-0.882,5.936c3.309-0.956,6.715-1.448,10.11-2.009   c-2.845-15.903-6.641-38.235,8.587-47.995l-0.029-0.04c7.339-5.576,13.888-4.002,17.094-1.179l-0.046,0.052   c0.029,0.017,0.063,0.034,0.086,0.046c-0.303,1.941-0.824,3.961-0.092,5.879c1.488,4.534,5.673,7.316,8.255,11.157   c8.524,12.468,3.738,31.13,29.676,33.575c0.985-0.034,1.952-0.229,2.736-0.842c-6.744-3.114-14.455-17.019-13.596-29.934   c0.721-16.504,17.391-26.459,27.163-21.851c2.754,1.265,5.118,5.604,0,8.438c0.796-1.345,2.238-2.564,2.044-4.271   c-0.521-4.316-8.77-4.986-14.769-1.775c-11.197,5.616-17.649,21.089-7.453,39.551c4.511,7.522,6.595,10.161,15.101,7.511   c15.954-4.94,10.642-15.187,15.039-23.259c5.301-9.755,25.257-13.31,29.041,13.882c1.677,12.016,1.328,21.41,19.366,33.22   c8.095,5.295,30.214,14.901,37.782,32.716c11.65-12.09,20.523-23.362,23.356-37.187   C1189.361,508.225,1190.734,497.257,1190.431,486.283z M905.364,399.458c-3.652-3.263-1.929-17.065,7.184-20.683   C910.493,382.451,904.373,385.92,905.364,399.458z M898.552,379.13c-10.791,8.049-7.425,14.849-6.852,17.992   c-2.204-1.82-2.444-4.917-2.204-7.557c1.174-11.392,20.729-23.11,40.324-20.952c1.546,0.229,3.246,0.292,4.54,1.305   C927.804,369.782,913.418,368.368,898.552,379.13z M935.899,382.084c-0.527,2.021-1.557,3.864-2.078,5.891   c-2.788,10.007,0.498,30.403,13.573,49.06c1.597,2.61,3.876,4.769,5.249,7.522C937.776,434.092,923.23,394.003,935.899,382.084z    M935.406,364.08c3.269-5.295,17.769-6.995,23.517-0.733C951.435,362.191,951.172,358.894,935.406,364.08z M1048.232,492.374   c-4.139-8.719-8.507-19.962-2.759-28.142c1.815-2.57,4.591-4.94,7.894-4.957c-1.477,1.128-3.303,1.752-4.58,3.137   c-3.441,3.521-4.849,8.747-4.105,13.567c0.618,4.391,4.666,17.208,8.707,19.32c4.024,2.175,11.581-2.118,12.165-10.859   c-2.198,1.065-4.625,1.254-6.984,0.71c-0.029,0.458-0.086,1.362-0.115,1.815c-0.67-0.338-1.574-0.469-1.74-1.317   c-0.252-1.242,0.968-2.479,2.21-2.376c2.026,0.023,4.316,0.767,6.12-0.555c0.149-0.424,0.447-1.276,0.595-1.7   C1070.724,492.597,1054.123,505.18,1048.232,492.374z M1067.673,473.265c-1.866,2.158-5.032,0.189-7.179,1.689   c1.465,1.769,3.658,2.651,5.461,4.019c-5.421,5.724-8.844,4.213-11.707-1.655c-1.059-2.456-3.521-4.03-4.305-6.623   c-1.734-6.663,5.622-5.25,7.562-5.856c1.969-1.237,2.645-3.99,4.986-4.746c3.629-1.322,9.24,2.891,4.522,9.051   C1067.845,470.311,1068.921,471.966,1067.673,473.265z M1169.983,420.863c0.91,0.052,1.568-0.618,2.296-1.088   c-1.466-0.55-3.023-0.847-4.351-1.66c1.666,0.063,3.458,0.046,5.009,0.779c0.847,1.511-1.059,2.96-2.45,3.005   c-3.217,0.195-6.583,0.458-9.698-0.469C1163.835,421,1166.914,421.109,1169.983,420.863z M1156.599,423.771   c0.172,2.301,0.069,4.849,1.609,6.766c1.334,1.975,3.778,2.513,5.719,3.675C1158.505,434.974,1154.074,428.602,1156.599,423.771z    M1169.256,456.023c-2.158,1.534-4.631,2.965-5.667,5.547c-1.523,3.011-0.469,6.932,2.221,8.913   c1.431,1.093,3.292,1.276,4.912,1.998c-5.381,0.435-8.014-2.193-9.497-7.184c-14.787,1.059-23.053,6.131-26.087,7.242   C1140.175,458.588,1154.721,451.111,1169.256,456.023z M1165.415,494.567c-6.469,0.361-13.069-0.853-18.92-3.647   c-0.905-0.315-0.229-1.912,0.658-1.603c21.473,1.466,30.672-10.075,30.878-11.569   C1176.875,486.249,1173.944,494.24,1165.415,494.567z"/>
	<path fill="#F3CBB2" d="M988.004,502.054c0.59,1.878,1.162,3.767,1.872,5.616c-1.5,1.025-3.148,1.786-4.763,2.588   c-14.586,6.509-24.089,20.059-37.078,28.875c-8.552,5.999-18.301,9.926-27.392,14.993c-23.631,12.531-38.057,24.307-59.032,28.423   c5.186-10.568,11.695-27.947,5.862-38.149c-1.654-3.194-4.522-5.501-7.585-7.265c23.86-11.443,74.505-33.724,99.739-41.303   c2.267-0.613,14.025-4.723,16.899,1.351c6.143,12.434-36.036,11.443-43.015,38c1.523-2.233,2.582-4.751,4.225-6.904   c10.23-13.905,28.291-17.391,35.561-21.124c1.901-0.905,3.114-3.097,5.352-3.229C981.798,503.468,984.907,502.776,988.004,502.054z   "/>
	<path fill="#043031" d="M920.379,421.675c-6.372-8.719-15.829-12.731-37.903-27.409c-51.773-32.47-58.66-37.198-60.784-44.388   l1.151-6.4c-8.306-2.341-16.859-3.772-24.936-3.372c-21.301-0.864-42.207,7.494-55.878,26.82   c-11.461,18.439-14.157,36.506-25.165,58.448c-4.5,10.356-14.529,28.102-14.603,28.279c3.818-0.761,31.428-10.041,64.625-23.568   c32.081-14.283,35.246-22.177,42.585-27.22c-16.04,22.16-65.844,38.234-84.169,45.087c-88.353,30.18-87.443,21.032-113.456,39.002   c2.427-3.314,6.417-6.12,11.398-8.598l-4.82-9.102c-14.22-18.594-30.094-52.323-35.607-71.775   c-1.786-5.593-3.297-11.266-4.889-16.91c-0.24-0.103-0.475-0.2-0.721-0.298h-0.006c-12.462-4.952-30.535-2.673-39.7,7.173   c-0.492,3.217,3.023,48.046,16.006,101.028c12.823,50.571,13.109,71.374,44.177,66.697c55.992-12.491,78.444-10.831,241.389-63.148   c24.753-7.453,39.946-11.438,47.577-18.261c7.499-6.371,6.343-8.026,9.778-13.189c-0.756,4.024-2.622,7.482-5.479,10.539   c-13.739,14.741-50.302,20.254-95.303,35.716c-6.234,2.026-12.663,3.532-18.782,5.862c1.568,1.563,2.484,3.601,3.652,5.45   c1.259,1.998,2.988,3.664,4.551,5.415c1.883,2.107,3.538,4.019,5.885,5.576c2.198,1.454,4.614,2.565,7.098,3.429   c8.318,3.126,14.14,4.889,18.685,5.77l-1.362-3.761c-0.183,0.069-0.372,0.132-0.561,0.2c0.315-0.63,0.721-1.248,1.46-1.408   c37.799-13.917,76.08-41.835,94.003-61.843c1.855-2.072,3.492-4.059,4.889-5.936C925.366,453.464,930.031,433.789,920.379,421.675z   "/>
	<path fill="#F3CBB2" d="M906.097,1445.735c55.591-24.971-16.487,109.906-55.391,59.444c-21.536-27.827-16.71-35.344-16.315-41.343   C856.001,1455.73,880.559,1456.44,906.097,1445.735z"/>
	<path fill="#F3CBB2" d="M903.669,1400.694c6.017,11.455,15.359,20.889,20.299,26.82c-8.598,4.837-36.735,15.766-71.431,21.227   c-5.301,0.95-10.693,1.294-15.983,2.318c-0.263-0.074-0.796-0.218-1.059-0.292c1.391-46.392-8.455-75.839-26.098-108.658   c-10.682-20.036-63.531-108.366-69.783-118.573c-6.154-9.915-14.037-21.501-19.143-30.088c-2.032-3.423-3.629-6.366-4.5-8.541   c3.91-0.67,7.969-0.87,11.701-2.307c1.958-0.635,1.998-3.131,3.274-4.351c0.235-0.223,1.311-0.263,1.654-0.361   c1.746-0.487,3.561-1.322,5.261-1.878c6.526-2.13,21.399-4.98,36.603-7.556c21.318-3.618,43.278-6.715,43.747-6.589   c1.168,1.689,2.026,4.185,3.246,6.4C864.673,1272.383,868.812,1329.057,903.669,1400.694z"/>
	<path fill="#6B6A66" d="M904.494,1517.693c-1.981,0.595-3.023,2.187-4.093,3.824c-4.688,7.139-3.641,6.011-6.829,14.231   c-5.559,14.317-2.857,7.322-5.398,15.496c-5.415,28.182-1.351,33.598-20.597,41.835c-4.23,1.694-14.895,6.097-20.454,6.663   c0.538-0.057,1.729-1.443,2.198-1.792c20.809-15.502,14.077-53.084,39.191-77.064   C892.718,1516.869,899.073,1515.564,904.494,1517.693z"/>
	<path fill="#BDEAFF" d="M848.799,537.432c38.028-3.068,11.77,63.136-19.383,76.028c-6.824,2.96-20.786,1.397-27.959,0.04   c17.54-28.846,21.656-51.842,21.719-72.674C831.746,539.9,840.207,538.159,848.799,537.432z"/>
	<path fill="#F3CBB2" d="M862.55,1529.864c-7.585,8.295-16.979,14.661-24.77,22.738c-8.782,8.232-16.767,17.718-27.501,23.505   c-1.78,0.864-14.094-12.554-6.137-36.489c0.292-1.122,1.185-1.889,1.964-2.662c9.114-8.53,12.296-20.408,16.762-29.029   c3.383-6.675,6.377-13.607,7.946-20.958C834.476,1504.956,851.999,1517.613,862.55,1529.864z"/>
	<path fill="#043031" d="M824.762,1131.026l-6.234-36.214c-0.074-0.595-8.781-69.777-8.781-87.947   c-4.351-59.41-3.309-159.304,4.368-184.95c11.403-46.157,46.066-96.064,37.233-142.273c-3.498-15.176-13.149-31.766-16.212-40.375   c-0.658-1.855-1.025-3.807-1.643-5.673c-0.183-0.561-0.389-1.116-0.635-1.66c-0.595-1.328-4.654-11.85-5.141-15.691   c-0.023-0.023-0.046-0.046-0.069-0.069c-14.157,2.026-26.74-1.082-29.762-1.219c-18.771-1.173-20.694-2.45-31.113-8.249   c-13.264-8.06-29.728-8.215-53.8-13.779c-12.388-2.204-22.011-9.909-43.931-10.064c-1.151-0.029-2.25-0.338-3.326-0.653   c0.166,0,0.326,0.006,0.492,0.006l0.011-0.75c-4.814,2.004-11.197,3.154-14.243,3.166c-2.731,0.126-5.433-0.344-8.112-0.767   c-1.065,0-2.656,3.904-3.149,4.711c-22.973,37.313-66.709,59.845-105.853,81.226c-0.521,0.286-1.036,0.567-1.557,0.847l1.448,2.65   c0.544,4.368-0.126,8.759-0.498,13.115c-0.406,2.902-0.567,21.794-0.12,25.154c2.124-2.857,2.845-6.423,4.385-9.583   c5.948-13.161,15.634-25.005,19.418-27.913c-0.309,1.958-4.935,36.672-4.975,39.024c2.645-3.337,4.276-7.396,7.316-10.436   c3.526-3.481,6.537-7.614,10.882-10.144c6.177,40.232-23.23,73.836-25.079,77.311c9.898-5.353,20.551-26.854,25.646-34.491   c-1.351,14.5-4.11,20.088-3.32,26.637c2.255-3.733,4.74-14.42,7.923-22.177c1.317,3.687,1.397,13.104,6.887,24.164   c1.534,3.017,2.656,6.377,5.164,8.77c-0.109-3.04-8.06-51.292-10.104-65.003c2.725,1.946,20.757,18.731,29.31,34.119   c8.421,18.605,7.774,24.089,9.302,34.176c5.112,30.037-9.131,186.971-10.779,243.238c-1.002,50.033,3.177,57.395,2.089,91.639   c-0.321,8.318-3.618,42.637-5.994,54.492c-0.492,3.234-1.122,6.532-0.796,9.812c2.467,2.061,6.864,1.191,17.345-0.55   c2.971-0.498,6.44-1.059,10.487-1.649c0.773-2.776,1.322-5.61,1.969-8.415c0.08,5.879-1.654,11.609-3.732,17.134   c7.997,2.393,45.27,5.101,74.231,2.576c4.024-0.246,8.02-0.813,12.045-1.076c4.339-0.235,8.701-0.87,12.829-2.255   c5.267-1.46,0.074-17.185-0.258-18.485c-2.044-7.826-4.9-9.709-3.629-27.736c0.916,1.895,0.469,4.007,0.372,6.034   c-0.223,3.263,1.448,13.802,4.345,20.494c2.112,4.998,2.702,10.436,3.354,15.777c0.034,0.011,0.08,0.029,0.12,0.046   c1.797-0.281,3.458-1.191,5.192-1.729c8.472-2.628,23.145-5.381,38.212-7.934c23.505-3.996,47.966-7.522,51.367-9.4   c1.769-5.37-0.338-10.974-1.156-16.321C823.846,1138.136,825.42,1134.593,824.762,1131.026z"/>
	<path fill="#BDEAFF" d="M822.478,540.815c-2.158,21.129-3.372,35.315-21.845,72.548c-20.402-1.597-20.431-1.162-32.871-8.163   c-17.242-9.835-41.612-9.045-63.572-16.035c-7.808-2.416-14.512-6.629-37.983-6.95l0.011-0.75c1.603-0.67,3.034-1.431,4.105-2.278   c-11.798,2.467-20.517,8.959-43.913-4.728c5.456-0.532,11.054,0.464,16.43-0.721c-10.568-1.523-21.307-0.887-31.926-1.78   c-9.033-0.824-17.511-5.232-18.164-14.186c8.289-0.922,99.865-19.217,125.231-27.203c3.068-0.939,52.145-16.006,55.517-16.504   c0.784-0.349,1.574-0.681,2.37-0.996c0,0.143,0.057,0.286,0.183,0.412c1.964,1.906,3.166,4.603,4.837,6.784   c2.714,3.532,5.851,7.7,9.806,9.898C800.386,535.904,811.406,539.07,822.478,540.815z"/>
	<path fill="#F3CBB2" d="M772.525,1552.327c7.39-10.505,13.344-6.698,19.246-7.419c-3.555,3.063-6.778,6.795-8.203,11.346   c-1.591,5.948,0.177,12.382,3.704,17.305c-13.865,3.532-20.271-0.441-25.326-7.728c-0.773-1.454-1.603-2.92-1.849-4.551   c-0.469-3.412,0.922-7.385,4.288-8.787C766.926,1551.073,769.863,1551.612,772.525,1552.327z"/>
	<path fill="#6B6A66" d="M684.658,1187.648c0,0,27.18-2.553,30.89-2.536c-2.416,13.676-8.673,37.971-20.672,45.459   c-2.656-3.148-5.547-5.032-9.045-27.667c-0.298-1.935-0.332-3.944-0.67-5.862C684.618,1193.951,684.091,1190.768,684.658,1187.648z   "/>
	<path fill="#BDEAFF" d="M700.509,355.264c-1.923-1.906-3.589-4.042-5.41-6.028c-7.98-8.988-16.762-17.208-24.965-25.978   c-37.238-40.221-60.446-53.164-102.527-74.254c-1.992-1.025-2.364-1.305-5.192-2.318c0.052-0.681,0.115-1.357,0.177-2.027   c0.132,0.034,0.269,0.069,0.406,0.109c17.334,4.751,66.657,28.777,99.333,53.359c2.152-2.187,3.418-5.003,4.454-7.848   c0.006,0.006,0.011,0.017,0.011,0.023C679.987,310.87,690.909,332.813,700.509,355.264z"/>
	<path fill="#BDEAFF" d="M669.328,452.96c4.202,1.196,7.03,4.791,9.944,7.803c-17.214,5.793-41.08,10.173-56.027,17.592l-4.82-9.102   c0.286-0.006,0.853-0.023,1.133-0.029c-27.57-37.931-49.128-104.416-42.299-127.882c2.089-7.413,2.158-15.313,5.112-22.492   c4.803-12.417,5.908-25.99,4.488-39.156c9.669,3.274,23.385,7.036,33.706,20.465c6.452,8.346,12.794,17.449,14.186,28.188   c-0.967-1.454-8.095-13.521-15.737-17.786c2.141,2.92,23.923,21.776,21.547,53.817c-0.412,6.297-1.174,12.829,1.156,18.874   c-10.024-2.444-20.248,0.527-30.369-0.252c-2.479-0.16-4.832-1.03-7.259-1.443c10.184,7.482,37.41-3.584,43.822,8.598   c3.12,5.839,3.045,12.686,5.123,18.88c5.301,14.357,10.035,29.069,17.866,42.316c-3.246-0.744-6.595-0.698-9.875-0.206   c-13.333,1.946-23.001-4.391-26.596-5.753c0.784,0.927,1.677,1.786,2.713,2.462C651.33,457.196,662.859,451.541,669.328,452.96z"/>
	<path fill="#F3CBB2" d="M670.467,187.895c0.681,3.212,2.353,6.635,0.985,9.886c-1.328,2.599-4.024,4.047-5.971,6.12   c-13.029,13.104-14.02,38.395-14.712,40.845c-2.668-1.632-5.473-3.011-8.306-4.316c-1.895-23.831-8.747-50.525-11.151-54.956   c0,3.131,0.922,6.148,1.506,9.199c3.211,14.953,6.085,29.974,8.541,45.07c-4.5-1.895-8.856-4.133-13.39-5.954   c-5.227-2.33-10.636-4.202-15.943-6.32c-0.074-0.578-4.992-38.2-5.599-40.158c-1.179,9.944,2.004,29.55,4.333,39.711   c-28.806-9.749-57.864-13.854-58.442-13.974c8.478-2.484,16.739-5.633,25.108-8.455c4.975-1.838,10.47-3.017,14.443-6.772   c3.469-3.315,4.717-8.112,6.572-12.382c3.435-8.392,8.81-15.932,11.369-24.696c6.589-22.108-12.285-26.539-0.95-54.149   c0.401,24.055,18.324,40.885,24.461,42.791c1.643,0.613,3.16-0.458,4.54-1.231c3.956,18.032,15.846,35.298,21.708,39.94   c-2.65-5.879-12.096-14.81-22.017-43.535c-0.189,1.294-0.069,3.011-1.511,3.618c-1.838,0.79-3.715-0.395-5.101-1.523   c-17.809-14.878-22.395-36.929-18.737-45.27c2.725-6.183,10.367-9.257,14.535-3.206c1.254,1.786,0.939,4.15,1.998,6.039   c3.601,7.923,8.278,15.29,12.76,22.732c5.547,8.117,13.464,6.56,13.275,1.546c-0.292-15.577-10.236-30.856-6.801-46.776   c1.168-5.65-0.275-11.524-2.982-16.521c0.029-0.263,0.092-0.796,0.126-1.065c6.789,6.938,17.397,19.435,14.724,28.777   c-0.83,1.465-2.009,2.897-1.906,4.683c0.092,1.969-0.515,4.122,0.601,5.908c0.006-0.046,0.011-0.097,0.023-0.143   c0.029,0.057,0.057,0.109,0.092,0.16c-0.046,0.006-0.092,0.006-0.137,0.011c0.08,0,1.803,3.486,1.838,3.561   C680.554,148,666.952,174.396,670.467,187.895z M634.894,136.333c-0.137-6.211-2.084-12.651-6.446-17.208   c-1.798,1.34-3.023,3.234-4.379,4.975c-0.492,3.263,0.338,6.681,2.032,9.497C629.318,132.355,632.244,134.851,634.894,136.333z    M622.037,121.369c3.091-2.17,6.148-8.77,3.103-12.004c0.223,2.044,0.332,4.11-0.212,6.12c-0.927-1.54-1.843-3.223-3.647-3.87   c0.441-3.32,1.036-5.576-6.028-7.951c0.882-1.465,1.981-3.023,3.71-3.538c2.141-0.372,4.477,0.681,5.581,2.565   c0.796,1.219,0.693,2.736,0.922,4.116c1.849-6.515-5.622-9.577-9.079-6.366c-5.587,4.574-3.103,21.851,6.377,32.642   c-1.093-2.816-10.081-14.294-7.763-28.663c2.072,0.59,4.248,1.672,5.29,3.658c0.79,1.838-0.447,3.589-1.569,4.946   c1.328-0.114,3.005-0.601,3.835,0.819C624.573,116.063,622.655,118.988,622.037,121.369z"/>
	<path fill="#F3CBB2" d="M668.875,1230.605c1.374,5.925-6.658,13.195-14.277-1.941c4.271,1.34,7.585,2.874,11.306-2.095   C667.135,1227.692,668.452,1228.911,668.875,1230.605z"/>
	<path fill="#BDEAFF" d="M663.844,276.815c0.841,5.799,1.454,12.331-2.015,17.449c-24.341-17.574-71.088-43.644-98.692-50.079   c-0.166-0.046-0.338-0.08-0.504-0.12c-0.704-15.267-6.211-18.359-8.93-24.244c-1.46-2.799-3.675-4.402-5.702-4.591l0.029-0.355   c17.855,1.609,55.878,10.184,92.681,27.862C656.911,250.539,659.916,254.243,663.844,276.815z"/>
	<path fill="#F3CBB2" d="M658.239,1215.618c3.211,1.883,5.862,5.312,5.822,9.171c-0.04,2.479-3,3.658-5.124,3.16   c-3.578-0.801-6.32-3.435-9.108-5.633c-5.478-4.431-7.516-11.644-8.604-18.313c0.366-0.126,1.105-0.378,1.471-0.504   C641.443,1211.514,650.791,1218.876,658.239,1215.618z"/>
	<path fill="#F3CBB2" d="M653.957,1193.945c2.267,9.268,8.953,25.463-4.007,19.67c-3.916-1.786-7.413-6.251-6.12-10.705   C646.99,1199.704,650.339,1196.636,653.957,1193.945z"/>
	<path fill="#F3CBB2" d="M628.54,120.007c2.839,4.23,4.66,9.154,5.181,14.231c-2.255-1.322-4.877-1.511-7.327-1.946   c-0.773-2.141-1.248-4.391-1.574-6.641C624.498,124.775,624.756,124.901,628.54,120.007z"/>
	<path fill="#F3CBB2" d="M608.349,753.14c6.434,18.233,6.503,44.291,5.73,69.142c-67.539,21.204-126.153,10.762-151.118,26.098   c-18.227-11.535-39.219-18.319-60.589-20.797c-23.797-2.404-43.158,2.713-47.829,5.719c3.967-0.452,7.78-1.769,11.735-2.318   c35.973-6.194,76.189,5.513,103.678,26.762c14.844,11.644,21.542,32.31,31.188,48.951c6.663,11.421,47.194,75.759,73.04,113.57   c-11.592,15.204-17.832,49.478-6.829,85.411c-0.286-0.166-0.859-0.504-1.139-0.67c-3.023-5.043-6.904-9.531-10.276-14.346   c-43.312-59.381-62.163-78.083-99.104-111.601C333.443,866.659,344.589,877.788,338.733,871.033   c-15.428-17.603-21.341-36.901-16.458-59.982c9.56-46.472,29.064-43.673,173.192-120.045c11.764-6.234,24.358-12.995,37.84-20.357   l1.448,2.651c-2.473,16.189-2.673,32.676-1.643,48.997c2.021-5.541,5.919-23.791,21.513-41.372   c-2.33,17.821-6.698,47.176-6.852,51.069c3.452-7.826,6.881-21.57,21.118-33.964c2.685,25.577-12.451,54.904-29.43,74.231   c-2.685,3.131-5.988,5.69-8.49,8.982c24.095-8.375,29.081-21.387,34.502-28.377c-1.368,9.245-0.418,18.571,0.504,27.804   c3.429-8.913,6.137-18.113,9.468-27.072c3.211,11.77,8.81,22.051,18.582,32.252c-1.46-13.436-8.215-52.157-10.253-67.378   C586.699,720.859,602.396,735.629,608.349,753.14z"/>
	<path fill="#F3CBB2" d="M603.483,1056.028c0.384,3,4.013,42.516,1.809,63.749c-3.114,4.11-13.768,10.396-16.63,12.514   c-0.675,0.074-1.494,0.401-1.964-0.263c-5.083-4.895-19.252-42.122-11.753-93.712c0.618-3.572,2.152-11.993,5.977-11.821   C586.636,1029.735,594.519,1047.71,603.483,1056.028z"/>
	<path fill="#F3CBB2" d="M584.85,276.248c3.555,28.342-4.643,40.679-6.297,48.396c-1.237,5.387-1.712,10.94-3.234,16.269   c-3.166,10.568,0.235,27.701,2.267,38.429c-13.052-6.16-30.237-4.105-40.215,6.755c-4.78-54.143-22.893-66.806-39.448-83.539   c-0.057-0.057-0.109-0.109-0.166-0.166c-4.551-4.614-8.988-9.549-12.989-15.754c0.584-0.2,1.174-0.401,1.763-0.601   c1.918-0.406,2.324-2.897,1.42-4.374c-0.733-1.053-1.746-1.849-2.616-2.765c1.883,0.584,2.347,0.962,4.522,2.479   c4.311,4.465,9.148,11.913,28.302,20.402c2.089,0.967,4.534,1.494,6.039,3.383c-1.322-17.826-4.54-35.681-11.392-52.271   c3.75-0.63,3.773,0.04,6.663-4.654c6.904,14.895,14.071,32.476,15.485,37.278c-1.156,3.996-5.513,9.468-0.721,14.432   c-0.945-4.019-1.878-4.9,0.779-10.15c10.087-19.189,11.295-30.169,12.308-32.59c0.962,8.942,1.403,17.947,1.259,26.94   c0.046,3.675-0.63,7.373-0.235,11.037c4.127-17.031-1.174-56.044-2.41-65.81c3.521-0.017,4.236,0.721,7.562-4.814   c9.76,27.736,7.001,67.012,18.805,82.629c-1.878-5.862-4.654-3.887,3.658-29.814c1.523,0.864,3.057,2.17,4.94,1.889   C582.692,279.122,583.751,277.473,584.85,276.248z M584.621,288.018c-1.196-3.063-5.873-2.576-7.356-0.029   C582.28,286.816,580.058,286.421,584.621,288.018z"/>
	<path fill="#FF000A" d="M580.11,268.531c3.44-0.945,6.961,7.018,1.116,9.692c-1.832,0.424-3.544-0.927-4.585-2.301   C576.08,273.088,577.431,269.802,580.11,268.531z"/>
	<g>
		<path stroke="#000000" stroke-width="0.5" d="M1190.952,479.694c-1.969-4.03-6.308-5.959-9.4-8.948    c-3.395-5.215-2.862-17.929-0.275-24.135c4.03-13.029,6.171-20.534,3.841-26.379c-2.834-7.144-10.104-5.009-16.527-4.242    c0.372-3.458,1.277-3.578,0.292-8.146c-0.2-0.922-0.447-1.838-0.584-2.771c-0.189-1.231,0.664-4.648-6.337-5.908    c2.954-7.854,0.172-11.604-3.429-12.308c-0.79-0.155-1.568-0.544-2.33-0.83c-2.147-0.807-4.803-1.425-6.457-3.114    c-4.935-4.093,0.074-12.537-10.459-17.054c-11.587-4.86-22.171,3.034-29.344,6.045c-30.129,13.899-66.84-2.943-87.031-4.168    c-1.46-0.092-1.832-3.246-5.381-7.322c-7.081-8.135-18.41-13.413-29.23-11.232c-14.638,2.954-17.105,6.898-41.143,5.965    c-12.697-0.475-8.312-1.809-34.994-3.137c-5.622-0.281-62.312-0.613-67.413-1.735c-1.248-0.721-0.613-0.412-2.313-1.231    c-21.33-8.701-24.244-8.249-38.154-10.659c-6.549-1.139-46.444-1.952-64.808,29.47c-0.235-0.137-0.698-0.412-0.933-0.55    c-0.16-0.309-0.475-0.922-0.635-1.231c-0.664-2.691-2.49-4.814-3.83-7.173c-13.476-20.872-38.687-43.123-58.042-58.694    c-4.603-3.406-2.891-3.252-8.558-10.344c-0.281-0.349-0.578-0.716-0.893-1.099c1.924-6.881-1.712-26.791-6.595-34.909    c-2.112-3.624-5.358-6.383-8.724-8.787c1.259-4.087,3.137-26.196,13.802-38.166c2.387-3.326,6.732-4.906,8.312-8.862    c1.477-5.324-1.918-11.627-2.193-15.76c-0.406-6.017,4.717-20.437,1.42-41.475c-1.122-7.173-2.811-17.775-12.331-36.311    c-1.013-1.964-1.471-1.139-1.505-4.729c0-7.288,3.48-2.118,2.049-14.964c-0.475-4.288-8.89-14.958-8.352-14.094    c-1.889-3.045-4.86-5.083-7.453-7.453c-0.51-2.044-0.704-7.024-4.465-16.739c0.092,0.235,1.179,0.361,1.437,0.464    c1.059,0.412,2.061,1.179,3.046,1.763c0.481,0.292,1.328,1.105,1.872,0.71c0.824-0.601-0.452-1.374-0.864-1.855    c-1.082-1.265-8.736-15.725-27.421-23.872c-13.762-6.005-19.109-4.963-24.158-5.856c-5.536-0.985-10.178-2.685-14.552-3.148    c-11.564-1.242-42.831,5.776-56.593,15.651c-12.989,9.314-13.081,19.916-21.794,28.451c-5.186,5.261-13.619,8.026-15.954,18.983    c-2.17,9.56-0.498,43.146,11.037,64.15c7.528,13.688,21.273,29.029,21.273,29.029l9.978,11.793    c14.231,16.264,17.323,24.593,20.62,29.796l-0.332,0.269c0,0-2.885-0.578-4.826-0.578c-0.28,0-0.538,0.011-0.767,0.04    c-2.874,0.355-2.318,2.462-3.618,10.722c-0.509,3.217-0.412,15.903-0.395,16.493c0.052,2.021-0.046,2.015,0.578,2.364    c0.492,0.275,0.904,0.492,1.259,0.652c1.197,0.544,1.792,0.532,2.771,0.527c0.223,0,2.33,0.137,2.387-0.034    c-1.345,4.139,0.103,0.767-4.414,3.755c-12.817,8.484-14.163,15.8-15.445,10.9c-1.013-3.847-2.702-6.057-4.826-11.037    c-0.097,0-2.897-6.366-5.622-7.018c-2.736-0.658-5.41,0.378-6.549,3.04c-1.706,3.961,2.462,11.609,3.933,15.079    c-0.303-2.135,3.641,10.23,4.019,12.628c-0.189-1.208-11.707,15.645-12.777,20.986c-0.12,0.601-0.475,0.962-1.065,1.07    c-1.145-1.883-4.356-3.87-6.412-5.799c-5.255-4.946-3.933-5.261-8.232-7.717c-2.954-1.689-8.53-2.433-8.438,0.04    c0.069,1.901,3.801,6.463,4.116,7.104c2.015,4.116,5.272,9.594,8.89,12.955c2.324,2.158,3.858,3,4.683,3.727    c0.063,0.052,0.12,0.109,0.172,0.16c2.788,2.765-5.021,5.124-18.948,77.07c-5.192,26.791-10.774,65.443-10.15,94.473    c0.343,16.069,1.523,26.573,8.427,40.771c15.932,32.739,28.583,50.462,35.55,63.068c0.721,1.299,1.62,2.553,1.883,4.047    c-7.768,46.57-18.067,66.102-19.773,95.727c0.218,3.818,0.172,7.648,0.092,11.472c-135.072,68.918-155.915,75.834-168.36,101.451    c-20.666,47.274,7.121,76.097,8.123,77.98c5.003,8.799,58.923,53.439,75.021,69.748c11.506,10.184,11.506,10.299,11.827,11.85    c-3.961,15.25-6.692,32.665-9.474,48.167c-13.27,5.736-18.811,23.196-24.805,38.761c-0.223,0.572-5.049,13.178-5.37,14.477    c-0.309,1.236-0.343,2.662-1.34,3.607c-10.533,4.854-18.376,11.724-19.607,23.282c-0.24,1.025,0.029,2.393-0.979,3.086    c-10.396,7.997-10.573,15.622-10.963,17.088c-3.183,2.908-6.383,5.816-9.217,9.085c-6.057,7.545-11.037,16.126-13.521,25.532    c-10.247,2.811-17.38,8.547-20.74,20.156c-0.063,0.206-1.769,0.956-2.049,1.162c-7.522,5.542-48.527,63.783-48.527,64.659    c-17.311,24.805-114.635,214.174-114.635,215.096c-1.717,3.601-3.773,7.047-5.141,10.814l-0.281,0.172    c-1.208,2.233-2.399,4.505-3.04,6.984l0.326,0.223c0.206,0.361,0.612,1.076,0.819,1.431c-2.427,3.675-2.507,4.854-4.505,7.511    c-4.694-3.097-9.835-6.509-15.674-6.429c-2.731,0.069-7.207-0.767-11.598,3.229c-3.898,3.252-5.318,9.48-2.387,13.808    c1.145,2.708,3.944,3.853,6.257,5.33c-5.438,4.563-10.94,9.045-16.578,13.35c-18.565,15.977-50.829,26.408-68.575,59.982    c-6.646,12.583-14.323,35.67-3.418,44.932c17.082,14.512,47.142,2.404,69.537-7.757c44.005-19.549,33.678-27.598,45.934-44.669    c5.581,0.87-0.24,0.126,21.502,7.373c3.108,1.036,4.448,1.357,12.354-3.166c0.572-0.326,9.48-5.043,14.712-6.606    c0,0-0.206-5.891-0.166-18.267c0.011-2.931,0.945-5.393,1.546-8.232c2.559-12.085,1.923-16.756,3.549-20.334    c0.75-1.649,1.551-4.797,3.618-5.227c0.945-0.195,1.986,0.2,2.565,0.967c6.492,2.714,13.104,5.152,19.801,7.31    c1.7,0.544,19.572,5.095,19.572,5.37c1.151-0.149,2.284,0.509,3.418,0.681c15.107,2.273,15.622,0.487,19.172-5.656    c2.92-3,45.356-74.305,49.867-83.029c33.661-66.159,125.912-185.053,136.091-209.079l0.532-0.011l0.321-0.527l-0.223-0.475    c1.998-1.946,30.38-50.811,30.959-56.444c6.595-6.761,18.508-17.328,32.39-40.501c0.286-0.481,1.299-1.637,1.299-2.175    c13.172-22.005,21.421-43.415,23.997-48.287c5.547,5.547,21.353,27.793,36.408,48.041c14.375,19.343,28.073,36.861,31.508,36.277    c-0.647-0.595-1.265-1.196-1.878-1.775c3.292-2.078,6.623-4.127,9.543-6.721c0.292,4.276-0.796,8.524-0.99,12.806    c-1.941,27.369-8.192,33.46,5.146,31.565c3.584-0.51,7.03-1.46,10.568-2.044c1.174-0.195,2.359-0.344,3.566-0.429    c2.221-0.149,4.265-0.401,6.435-0.819c-1.448,4.74-1.466,4.213-3.355,8.627c1.901,0.378,3.79,0.853,5.719,1.076l0.183,0.55    c-0.378,2.736,3.503,15.342,9.022,19.773c1.534,16.939,7.505,18.29,11.924,22.898c1.975,3.916,3.452,8.535,7.31,11.066    c1.7,1.282,3.967,0.985,5.976,0.91c2.467-0.252,3.876-2.536,4.78-4.597c8.301,3.692,18.599,3.085,25.881-2.57    c18.668-15.325,17.649-41.36,20.053-44.64c-0.372,0.504,2.519,4.78,2.851,5.358c0.017,0.029,0.246,0.412,0.67,1.122    c7.928,13.235,83.476,139.165,92.383,158.027c21.141,42.442,26.991,85.983,16.653,134.728c0.12,1.505-0.343,1.528-1.271,4.5    c-2.433,9.205-8.804,20.059-9.406,21.937c-3.097,9.703-6.257,13.333-8.535,16.882c-5.061,7.917-5.129,6.526-7.345,8.02    c-7.024,4.734-7.849,6.515-19.16,5.816c-4.522-0.55-7.322,3.234-10.968,6.011c-2.25,1.712-6.732-0.143-10.356,2.565    c-2.021,1.511-4.832,7.093-1.448,13.384c5.765,10.716,16.516,10.098,17.494,10.276c-0.321,1.34,0.578,2.759,1.042,3.984    c8.799,23.099,36.981,27.661,61.03,22.486c4.162-1.105,38.332-6.766,43.198-18.107c5.862-10.287,2.049-19.063,8.644-38.538    c2.21-6.537,4.179-13.178,7.219-19.361c0.756-1.546,5.839-10.791,8.072-8.215l1.631,1.191c8.278,4.396,8.192,31.176,8.192,40.719    c0,0.573,0.813,41.314,0.481,47.119c-0.109,1.952-0.676,3.624-0.555,5.633c2.152,0.641,9.749,3.269,11.209,0.475    c0.527-1.007,0.212-1.694,0.561-13.418c1.134-37.548,3.103-64.087,16.916-93.231c1.076-2.267,1.62-5.69,4.454-5.724    c3.624-0.046,6.549,2.044,9.835,3.085c3.835,1.214,8.146,1.626,12.096,2.416c31.205,6.234,54.733,13.281,91.473,1.872    c2.135-0.658,12.583-2.399,13.029-4.917c4.104-23.167-22.326-29.499-59.278-47.48c-5.65-2.748-15.176-9.428-17.924-10.608    c-0.738-0.819,0.767-0.945,1.208-0.527c11.426-0.641,8.948-16.75-13.642-10.888c0,0,3.372-38.183,5.478-90.603    c3.332-62.455,6.852-163.718,6.852-163.718c4.15-75.765,10.562-131.001,4.563-146.824    c-4.328-11.409-69.685-122.718-76.183-133.056c-34.737-55.265-56.553-81.1-92.383-111.441c-1.992-1.683-4.94-2.805-5.999-5.37    c10.539-27.358,21.181-47.955,24.295-77.339c2.868-23.305-4.282-37.405-12.314-54.515c-5.478-11.672-5.953-13.31-7.327-17.546    c-0.532-1.654-1.208-3.71-2.376-6.915c-4.568-12.577-2.816-10.648-0.418-11.707c13.195-5.891,24.072-19.504,30.106-31.714    c21.507-2.794,36.969-14.918,55.03-24.398c8.387-4.683,17.065-8.804,25.503-13.378c16.138-9.131,23.671-20.517,36.162-29.619    c0.206-0.149,8.541-5.662,8.776-5.765c0.344-0.149,3.692-1.265,3.784-1.013c1.265,3.395,3.641,6.188,5.37,9.337    c-2.25-0.08-4.683-0.641-6.738,0.55c-5.656,2.57-2.799,9.841-0.286,21.129c0.177,0.813,2.421,9.692,2.376,9.698    c-7.969,0.939-7.213,7.293-4.127,8.558c1.408,0.572,2.788,1.202,4.19,1.792c0.286,0.573,0.223,1.277,0.092,1.431    c-2.101-0.469-4.54-1.437-6.349,0.235c-5.845,3.939-0.635,22.44,15.594,28.354c-4.076,7.74,3.177,12.571,12.09,12.462    c-0.842,5.169,11.249,13.207,24.055,12.319c11.993-0.819,22.125-10.115,25.434-20.076c1.34-3.383,1.26-3.418,4.356-4.454    c9.732-0.361,2.198,1.986,17.523,0.343c19.258-2.072,34.828-5.089,55.609-15.113c17.231-8.724,22.881-13.773,36.563-30.478    c9.365-11.844,13.985-21.479,15.874-48.819C1192.669,490.725,1192.4,485.064,1190.952,479.694z M126.517,1462.852    c-6.08-0.017-4.173,0.653-17.036,11.157c-1.208,0.916-2.381,2.599-4.122,2.026c-3.732-1.637-6.955-5.427-6.503-9.697    c0.681-7.184,9.354-11.014,15.645-9.159c3.71,0.406,7.047,2.227,10.321,3.904c0.527,0.384,1.551,0.492,1.597,1.317    C127.41,1461.306,127.662,1463.813,126.517,1462.852z M997.713,1434.338c6.961,0.532,9.068,5.427,6.331,7.505    c-2.227,1.918-5.358,0.865-7.888,0.275c-1.855-0.349-3.275-1.631-4.769-2.656c-1.826-1.351-3.778-2.565-5.267-4.288    C989.859,1433.782,993.82,1434.309,997.713,1434.338z M1167.132,402.738c1.317,2.049-0.504,4.975-2.845,5.009    c-6.074,0.435-11.753-2.336-17.746-2.788c3.589-2.359,7.946-3.063,11.85-4.751C1161.43,398.668,1165.106,400.283,1167.132,402.738    z M1157.423,386.939c2.015,0.79,6.909,1.895,4.889,9.417c-0.074,0.263-0.767,2.714-0.916,2.714    c-3.761-0.544-15.376,4.729-17.323,5.513C1145.94,398.348,1152.54,390.333,1157.423,386.939z M666.786,290.279    c0.006,0.006,0.011,0.017,0.011,0.023c13.189,20.568,24.112,42.511,33.712,64.963c-1.923-1.906-3.589-4.042-5.41-6.028    c-7.98-8.988-16.761-17.208-24.965-25.978c-37.239-40.221-60.446-53.164-102.527-74.254c-1.992-1.025-2.364-1.305-5.192-2.318    c0.052-0.681,0.115-1.357,0.177-2.027c0.132,0.034,0.269,0.069,0.406,0.109c17.334,4.751,66.657,28.777,99.333,53.359    C664.485,295.941,665.75,293.124,666.786,290.279z M581.226,278.223c-1.832,0.424-3.544-0.927-4.585-2.301    c-0.561-2.833,0.79-6.12,3.469-7.39C583.55,267.587,587.071,275.55,581.226,278.223z M577.425,204.593    c4.975-1.837,10.47-3.017,14.443-6.772c3.469-3.315,4.717-8.112,6.572-12.382c3.435-8.392,8.81-15.932,11.369-24.696    c6.589-22.108-12.285-26.539-0.95-54.149c0.401,24.055,18.324,40.885,24.461,42.791c1.643,0.613,3.16-0.458,4.54-1.231    c3.956,18.032,15.846,35.298,21.708,39.94c-2.65-5.879-12.096-14.81-22.017-43.536c-0.189,1.294-0.069,3.011-1.511,3.618    c-1.838,0.79-3.715-0.395-5.101-1.523c-17.809-14.878-22.395-36.929-18.737-45.27c2.725-6.183,10.367-9.257,14.535-3.206    c1.254,1.786,0.939,4.15,1.998,6.04c3.601,7.923,8.278,15.29,12.76,22.732c5.547,8.118,13.464,6.561,13.275,1.546    c-0.292-15.576-10.236-30.855-6.801-46.776c1.168-5.65-0.275-11.523-2.983-16.521c0.029-0.263,0.092-0.796,0.126-1.065    c6.789,6.938,17.397,19.435,14.724,28.778c-0.83,1.466-2.009,2.897-1.906,4.683c0.092,1.969-0.515,4.122,0.601,5.908    c0.006-0.046,0.011-0.097,0.023-0.143c0.029,0.057,0.057,0.109,0.092,0.16c-0.046,0.006-0.092,0.006-0.137,0.011    c0.08,0,1.803,3.486,1.838,3.561c20.208,40.908,6.606,67.304,10.121,80.802c0.681,3.211,2.353,6.635,0.985,9.886    c-1.328,2.599-4.024,4.047-5.971,6.119c-13.029,13.104-14.02,38.395-14.712,40.845c-2.668-1.631-5.473-3.011-8.306-4.316    c-1.895-23.831-8.747-50.525-11.152-54.956c0,3.131,0.922,6.148,1.506,9.199c3.211,14.953,6.085,29.974,8.541,45.07    c-4.5-1.895-8.856-4.133-13.39-5.953c-5.226-2.33-10.636-4.202-15.943-6.32c-0.074-0.578-4.992-38.2-5.599-40.158    c-1.179,9.944,2.004,29.55,4.333,39.711c-28.806-9.749-57.864-13.853-58.442-13.974    C560.795,210.564,569.056,207.415,577.425,204.593z M540.336,241.591c-0.023,0-0.052,0.006-0.074,0.006    c-0.561-0.962-0.773-2.044-0.681-3.143c0.258-7.991,0.326-16.132,2.628-23.86c1.58-0.017,3.538,0.074,5.822,0.281    c17.855,1.609,55.878,10.184,92.681,27.862c16.2,7.802,19.206,11.506,23.133,34.078c0.842,5.799,1.454,12.331-2.015,17.449    c-24.341-17.575-71.088-43.644-98.692-50.079c-0.166-0.046-0.338-0.08-0.504-0.12c-0.704-15.268-6.211-18.359-8.93-24.244    c-1.46-2.799-3.675-4.402-5.702-4.591c-2.061-0.189-3.927,1.076-4.62,4.007c-0.572,2.771,0.029,5.593,0.355,8.358    c0.71,4.729,1.162,9.491,1.975,14.208C543.913,241.769,542.133,241.505,540.336,241.591z M550.325,227.263    c-1.219,1.706-4.585,1.431-4.78-0.933c-0.218-2.742-1.254-6.085,0.687-8.415c2.582-1.563,5.072,1.208,6.022,3.429    C553.502,223.49,551.659,225.677,550.325,227.263z M511.947,250.779c-1.414-2.65-2.885-6.515-0.103-8.833    c1.351-0.573,3.223-0.527,4.167,0.773c1.477,1.666,3.24,4.11,1.763,6.331C516.733,250.888,513.585,253.018,511.947,250.779z     M481.075,278.835c0.67-0.366,1.225-0.298,1.969-0.286c0-0.017,0-0.034,0.006-0.046c0.195,0.006,0.183,0.052-0.006,0.046    c3.114,2.599,5.049,3.068,3.704,6.663c-0.097,0.338-2.124-0.418-2.318-0.635C482.838,283.037,480.937,281.211,481.075,278.835z     M497.922,302.558c-0.057-0.057-0.109-0.109-0.166-0.166c-4.551-4.614-8.988-9.549-12.989-15.754    c0.584-0.2,1.174-0.401,1.763-0.601c1.918-0.406,2.324-2.897,1.42-4.374c-0.733-1.053-1.746-1.849-2.616-2.765    c1.883,0.584,2.347,0.962,4.522,2.479c4.311,4.465,9.148,11.913,28.302,20.402c2.089,0.967,4.534,1.494,6.039,3.383    c-1.322-17.826-4.54-35.681-11.392-52.271c3.75-0.63,3.773,0.04,6.663-4.654c6.904,14.896,14.071,32.476,15.485,37.279    c-1.156,3.996-5.513,9.469-0.721,14.432c-0.945-4.019-1.878-4.9,0.779-10.15c10.087-19.189,11.295-30.169,12.308-32.59    c0.962,8.942,1.402,17.947,1.259,26.94c0.046,3.675-0.63,7.373-0.235,11.037c4.127-17.031-1.174-56.044-2.41-65.81    c3.521-0.017,4.236,0.721,7.562-4.814c9.76,27.736,7.001,67.012,18.805,82.629c-1.878-5.862-4.654-3.887,3.658-29.814    c1.523,0.865,3.057,2.17,4.94,1.889c1.792-0.143,2.851-1.792,3.95-3.017c3.555,28.342-4.643,40.679-6.297,48.396    c-1.236,5.387-1.712,10.94-3.234,16.269c-3.166,10.568,0.235,27.701,2.267,38.429c-13.052-6.16-30.237-4.104-40.215,6.755    C532.59,331.954,514.478,319.291,497.922,302.558z M500.246,473.013c-0.681-9.772-0.475-20.334,0.321-31.273    c2.851-39.265,13.321-83.361,17.924-112.872c0.103-0.303,0.309-0.91,0.412-1.208c24.65,37.788,7.339,58.522,35.515,172.459    c-16.143-15.84-19.229-48.098-39.402-57.904c1.677,1.586,10.499,7.293,15.09,17.494c-2.341,5.627-5.175,10.682-10.648,13.745    C513.544,476.717,506.074,476.242,500.246,473.013z M588.662,1132.291c-0.675,0.074-1.494,0.401-1.964-0.263    c-5.083-4.895-19.252-42.121-11.753-93.712c0.618-3.572,2.152-11.993,5.977-11.821c5.713,3.24,13.596,21.215,22.561,29.533    c0.384,3,4.013,42.517,1.809,63.749C602.178,1123.888,591.525,1130.173,588.662,1132.291z M561.099,995.376    c11.449-17.042,43.57-60.028,46.701-61.597c0.475,1.792-0.177,3.584-0.366,5.37c-1.883,16.55-4.202,76.841-4.202,77.419    c-13.006-3.154-22.211,4.236-24.833,4.03c-0.704-0.057-2.124-1.053-2.124-1.86C571.157,1011.033,565.592,1003.454,561.099,995.376    z M649.83,1222.316c-5.478-4.431-7.516-11.644-8.604-18.313c0.366-0.126,1.105-0.378,1.471-0.504    c-1.254,8.014,8.095,15.376,15.542,12.119c3.212,1.883,5.862,5.312,5.822,9.171c-0.04,2.479-3,3.658-5.124,3.16    C655.36,1227.148,652.617,1224.514,649.83,1222.316z M643.83,1202.91c3.16-3.206,6.509-6.274,10.127-8.965    c2.267,9.268,8.953,25.463-4.007,19.67C646.034,1211.829,642.537,1207.364,643.83,1202.91z M654.598,1228.665    c4.271,1.339,7.585,2.874,11.306-2.095c1.231,1.122,2.547,2.341,2.971,4.036C670.249,1236.53,662.218,1243.801,654.598,1228.665z     M694.877,1230.571c-2.656-3.149-5.547-5.032-9.045-27.667c-0.298-1.935-0.332-3.944-0.67-5.862    c-0.544-3.091-1.071-6.274-0.504-9.394c0,0,27.18-2.553,30.89-2.536C713.132,1198.788,706.875,1223.083,694.877,1230.571z     M783.567,1556.254c-1.591,5.948,0.177,12.382,3.704,17.305c-13.865,3.532-20.271-0.441-25.326-7.728    c-0.773-1.454-1.603-2.92-1.849-4.551c-0.469-3.412,0.922-7.385,4.288-8.787c2.542-1.42,5.479-0.882,8.14-0.166    c7.391-10.505,13.344-6.698,19.246-7.419C788.216,1547.971,784.993,1551.703,783.567,1556.254z M837.779,1552.602    c-8.781,8.232-16.767,17.718-27.501,23.505c-1.78,0.864-14.094-12.554-6.137-36.489c0.292-1.122,1.185-1.889,1.964-2.662    c9.114-8.53,12.297-20.408,16.762-29.029c3.383-6.675,6.377-13.607,7.946-20.958c3.664,17.987,21.187,30.644,31.737,42.894    C854.965,1538.159,845.57,1544.525,837.779,1552.602z M900.401,1521.517c-4.688,7.139-3.641,6.011-6.829,14.231    c-5.559,14.317-2.856,7.322-5.398,15.496c-5.416,28.182-1.351,33.598-20.597,41.835c-4.23,1.694-14.895,6.097-20.454,6.663    c0.538-0.057,1.729-1.443,2.198-1.792c20.809-15.502,14.077-53.084,39.19-77.064c4.208-4.019,10.562-5.324,15.983-3.194    C902.513,1518.289,901.471,1519.88,900.401,1521.517z M850.705,1505.179c-21.536-27.827-16.71-35.344-16.315-41.343    c21.61-8.106,46.169-7.396,71.706-18.101C961.688,1420.765,889.61,1555.642,850.705,1505.179z M923.969,1427.514    c-8.598,4.837-36.735,15.766-71.431,21.227c-5.301,0.95-10.693,1.294-15.983,2.318c-0.263-0.074-0.796-0.218-1.059-0.292    c1.391-46.392-8.455-75.839-26.098-108.658c-10.682-20.036-63.531-108.366-69.783-118.573    c-6.154-9.915-14.037-21.501-19.143-30.088c-2.032-3.423-3.629-6.366-4.5-8.541c3.91-0.67,7.969-0.87,11.701-2.307    c1.958-0.635,1.998-3.131,3.274-4.351c0.235-0.223,1.311-0.263,1.654-0.361c1.746-0.487,3.561-1.323,5.261-1.878    c6.526-2.13,21.398-4.98,36.603-7.557c21.318-3.618,43.278-6.715,43.747-6.589c1.168,1.689,2.026,4.185,3.246,6.4    c43.215,104.119,47.354,160.792,82.211,232.43C909.686,1412.149,919.028,1421.583,923.969,1427.514z M855.795,1059.274    c4.122,10.379,11.134,19.635,20.259,26.121c1.139,0.813,0.115,7.064,0.235,8.512c0.24,2.794,1.42,5.816,2.433,8.427    c0.017,0.275,0.04,0.824,0.057,1.094c-7.207,24.358-15.737,153.596-15.044,178.201c0.12,0.612-0.052,1.139-0.504,1.574    c-0.406-0.55-0.55-1.151-0.435-1.798c-1.111-6.623-20.093-64.951-24.85-76.595c0-0.572-16.075-39.58-18.645-43.392    c7.528-2.353,7.024-0.864,8.146-5.541c1.03-5.753-1.946-11.249-1.609-16.991c0.052-2.381,0.99-4.729,0.429-7.104    c-8.072-43.329-12.542-88.302-13.991-115.345c0.069-0.2,0.212-0.612,0.286-0.813c0.538,0.572,7.654,9.852,12.646,14.34    C854.329,1054.26,848.404,1040.669,855.795,1059.274z M832.856,631.934c0.246,0.544,0.452,1.099,0.635,1.66    c0.618,1.866,0.985,3.818,1.643,5.673c3.063,8.61,12.714,25.2,16.212,40.375c8.833,46.209-25.829,96.116-37.233,142.273    c-7.677,25.646-8.719,125.54-4.368,184.95c0,18.17,8.707,87.351,8.781,87.947l6.234,36.214c0.658,3.566-0.916,7.11-0.258,10.688    c0.819,5.347,2.925,10.951,1.156,16.321c-3.401,1.878-27.862,5.404-51.367,9.4c-15.067,2.553-29.739,5.307-38.212,7.934    c-1.735,0.538-3.395,1.448-5.192,1.729c-0.04-0.017-0.086-0.034-0.12-0.046c-0.653-5.341-1.242-10.779-3.354-15.777    c-2.897-6.692-4.568-17.231-4.345-20.494c0.097-2.026,0.544-4.139-0.372-6.034c-1.271,18.027,1.586,19.91,3.629,27.736    c0.332,1.299,5.524,17.025,0.258,18.485c-4.127,1.385-8.49,2.021-12.829,2.255c-4.024,0.263-8.02,0.83-12.045,1.076    c-28.961,2.525-66.234-0.183-74.231-2.576c2.078-5.524,3.813-11.255,3.732-17.134c-0.647,2.805-1.196,5.639-1.969,8.415    c-4.047,0.59-7.516,1.151-10.487,1.649c-10.482,1.74-14.878,2.61-17.345,0.55c-0.326-3.28,0.303-6.578,0.796-9.812    c2.376-11.856,5.673-46.175,5.994-54.492c1.088-34.244-3.091-41.606-2.089-91.639c1.649-56.267,15.891-213.201,10.779-243.238    c-1.529-10.087-0.882-15.571-9.302-34.176c-8.552-15.388-26.585-32.172-29.31-34.119c2.044,13.71,9.995,61.963,10.104,65.003    c-2.507-2.393-3.629-5.753-5.164-8.77c-5.49-11.06-5.57-20.477-6.887-24.164c-3.183,7.757-5.667,18.445-7.923,22.177    c-0.79-6.549,1.969-12.136,3.32-26.637c-5.095,7.637-15.748,29.138-25.646,34.491c1.849-3.475,31.256-37.078,25.079-77.311    c-4.345,2.53-7.356,6.663-10.882,10.144c-3.04,3.04-4.671,7.098-7.316,10.436c0.04-2.353,4.666-37.067,4.975-39.024    c-3.784,2.908-13.47,14.752-19.418,27.913c-1.54,3.16-2.261,6.726-4.385,9.583c-0.447-3.36-0.286-22.251,0.12-25.154    c0.372-4.356,1.042-8.747,0.498-13.115c-2.473,16.189-2.673,32.676-1.643,48.997c2.021-5.541,5.919-23.791,21.513-41.372    c-2.33,17.821-6.698,47.176-6.852,51.069c3.452-7.826,6.881-21.57,21.118-33.964c2.685,25.578-12.451,54.905-29.43,74.231    c-2.685,3.131-5.988,5.69-8.49,8.982c24.095-8.375,29.081-21.387,34.502-28.377c-1.368,9.245-0.418,18.571,0.504,27.804    c3.429-8.913,6.137-18.113,9.469-27.072c3.211,11.77,8.81,22.051,18.582,32.252c-1.46-13.436-8.215-52.157-10.253-67.378    c2.925,2.387,18.622,17.156,24.576,34.668c6.434,18.233,6.503,44.291,5.73,69.142c-67.539,21.204-126.153,10.762-151.118,26.098    c-18.227-11.535-39.219-18.319-60.589-20.797c-23.797-2.404-43.158,2.713-47.829,5.719c3.967-0.452,7.78-1.769,11.735-2.318    c35.973-6.194,76.189,5.513,103.678,26.762c14.844,11.644,21.542,32.31,31.188,48.951c6.663,11.421,47.193,75.759,73.04,113.57    c-11.592,15.205-17.832,49.478-6.829,85.411c-0.286-0.166-0.859-0.504-1.139-0.67c-3.023-5.043-6.904-9.531-10.276-14.346    c-43.312-59.381-62.163-78.083-99.104-111.601C333.443,866.659,344.589,877.788,338.733,871.033    c-15.428-17.603-21.341-36.901-16.458-59.982c9.56-46.472,29.064-43.673,173.192-120.044c11.764-6.234,24.358-12.995,37.84-20.357    c0.521-0.281,1.036-0.561,1.557-0.847c39.145-21.381,82.88-43.913,105.853-81.226c0.492-0.807,2.084-4.711,3.149-4.711    c2.679,0.424,5.381,0.893,8.112,0.767c3.046-0.011,9.428-1.162,14.243-3.166c1.603-0.67,3.034-1.431,4.105-2.278    c-11.798,2.467-20.517,8.959-43.913-4.729c5.455-0.532,11.054,0.464,16.429-0.721c-10.568-1.523-21.307-0.887-31.926-1.78    c-9.033-0.824-17.511-5.232-18.164-14.186c8.289-0.922,99.865-19.217,125.231-27.203c3.068-0.939,52.145-16.006,55.517-16.504    c0.784-0.349,1.574-0.681,2.37-0.996c0,0.143,0.057,0.286,0.183,0.412c1.964,1.906,3.166,4.603,4.837,6.784    c2.714,3.532,5.85,7.7,9.806,9.898c9.692,5.742,20.711,8.907,31.783,10.653c-2.158,21.129-3.372,35.315-21.845,72.548    c-20.402-1.597-20.431-1.162-32.871-8.163c-17.242-9.835-41.612-9.045-63.572-16.035c-7.808-2.416-14.512-6.629-37.983-6.95    c-0.166,0-0.326-0.006-0.492-0.006c1.076,0.315,2.175,0.624,3.326,0.653c21.919,0.155,31.542,7.86,43.931,10.064    c24.072,5.564,40.536,5.719,53.8,13.779c10.419,5.799,12.342,7.076,31.113,8.249c3.023,0.137,15.605,3.246,29.762,1.219    c0.023,0.023,0.046,0.046,0.069,0.069C828.202,620.084,832.261,630.606,832.856,631.934z M829.416,613.46    c-6.824,2.96-20.786,1.397-27.959,0.04c17.54-28.846,21.656-51.842,21.719-72.674c8.57-0.927,17.031-2.668,25.623-3.395    C886.828,534.364,860.569,600.569,829.416,613.46z M985.113,510.258c-14.586,6.509-24.089,20.059-37.078,28.875    c-8.552,5.999-18.302,9.926-27.392,14.993c-23.631,12.531-38.057,24.307-59.032,28.423c5.186-10.568,11.695-27.948,5.862-38.149    c-1.654-3.194-4.522-5.501-7.585-7.265c23.86-11.443,74.505-33.724,99.739-41.303c2.267-0.613,14.025-4.723,16.899,1.351    c6.142,12.434-36.036,11.443-43.015,38c1.523-2.233,2.582-4.751,4.225-6.904c10.23-13.905,28.291-17.391,35.561-21.124    c1.901-0.905,3.114-3.097,5.353-3.229c3.148-0.458,6.257-1.151,9.354-1.872c0.59,1.878,1.162,3.767,1.872,5.616    C988.376,508.695,986.727,509.456,985.113,510.258z M1155.717,563.657c-21.255,14.987-46.753,22.933-71.941,25.509    c-17.466,1.78-20.671-3.79-23.288,5.787c-4.019,10.654-13.018,17.014-22.921,18.473c-4.895,0.727-9.457,0.469-19.624-5.066    l0.103-0.017c-0.572-0.338-4.706-2.215-4.253-5.69c0.006-0.052,0.75,0.034,0.956-0.309c0.859-0.195,1.769-0.561,2.565-0.733    c-1.757-0.698-3.675-0.676-5.519-0.698c-1.305,0.04-2.313,0.006-7.224-1.775c-2.536-1.225-3.904-4.603-3.646-5.633    c0.212-0.824,1.248-1.425,1.901-1.889c1.345-0.95,2.433-0.63,7.076-0.481c0.269-0.109,0.802-0.326,1.065-0.435    c-1.345-0.092-2.616,0.063-3.944-0.269c-1.489-0.372-2.822-1.162-4.282-1.534c-10.27-2.616-14.695-9.72-17.947-18.17    c-0.99-1.294-0.475-5.101-0.126-6.143c1.574-3.446,5.375-1.843,6.085-1.769c2.565,0.246,1.591-3.315,0.664-4.368    c-1.271-1.448-5.73-1.305-4.763-4.15c1.317-3.887,3.469-2.25,4.62-1.969c1.013,0.24,1.998-0.258,2.994-0.017    c3.526,0.864,3.566,4.23,5.456,3.114c-0.807-2.009-2.765-3.83-4.637-4.849c-2.164-0.561-3.028-0.756-3.624-0.893    c-4.185-23.087-5.604-26.178-2.651-28.732c2.496-1.843,5.925-1.185,8.667-0.275c0.658-0.149,1.334-0.286,2.015-0.412    c-6.641-8.478-8.095-14.151-8.902-15.914c-0.504-0.601-0.687-1.277-0.555-2.021c-1.254-9.222-6.778-30.804,1.838-42.711    c4.408-6.085,14.22-11.38,20.248-6.452c-0.011,0.04-0.029,0.074-0.046,0.109c0,3.389-0.12,5.221,1.277,7.848    c1.265,2.393,3.177,5.433,5.542,6.858c1.465,2.719,2.307,3.509,2.885,4.814c2.089,4.843,2.049,5.685,3.435,9.726    c0.819,2.387,2.181,4.454,3.103,6.767c0.006-0.006,0.023-0.017,0.029-0.023c2.61,7.465,1.534,7.402,10.522,11.993    c3.744,1.918,7.986,2.799,12.216,2.616c0.573,0.172,2.502-0.143,3.595-0.962c5.404,0.12,15.233-4.688,17.277-6.778    c7.391-7.528,1.276-25.915,19.017-25.286c5.089,0.177,9.331,5.032,10.974,8.822c6.578,16.315-0.796,29.138,20.511,43.702    c1.168,0.801,3.881,3.538,5.387,3.383c-0.132,0.011-0.269,0.029-0.401,0.04c13.768,7.093,27.856,15.199,35.366,28.806    C1161.602,558.922,1161.253,559.523,1155.717,563.657z M1187.168,518.959c-2.834,13.825-11.707,25.097-23.356,37.187    c-7.568-17.815-29.688-27.421-37.782-32.716c-18.038-11.81-17.689-21.204-19.366-33.22c-3.784-27.192-23.74-23.637-29.041-13.882    c-4.396,8.072,0.916,18.319-15.039,23.259c-8.507,2.651-10.59,0.011-15.101-7.511c-10.195-18.462-3.744-33.935,7.453-39.551    c5.999-3.211,14.249-2.542,14.769,1.775c0.195,1.706-1.248,2.925-2.044,4.271c5.118-2.834,2.754-7.173,0-8.438    c-9.772-4.608-26.442,5.347-27.163,21.851c-0.859,12.915,6.852,26.82,13.596,29.934c-0.784,0.613-1.752,0.807-2.736,0.842    c-25.938-2.444-21.152-21.107-29.676-33.575c-2.582-3.841-6.766-6.623-8.255-11.157c-0.733-1.918-0.212-3.939,0.092-5.879    c-0.023-0.011-0.057-0.029-0.086-0.046l0.046-0.052c-3.206-2.822-9.755-4.396-17.094,1.179l0.029,0.04    c-15.227,9.76-11.432,32.092-8.587,47.995c-3.395,0.561-6.801,1.053-10.11,2.009c0.71-1.878,1.551-3.921,0.882-5.936    c-0.733-2.834-3.521-4.631-6.268-5.129c-15.937-2.788-96.127,35.435-113.261,44.566c-2.817-0.561-5.627-1.34-8.524-1.122    c-18.45,0.876-21.307,5.106-33.81,2.673c-4.545-0.882-10.367-2.645-18.685-5.77c-2.484-0.864-4.9-1.975-7.098-3.429    c-2.347-1.557-4.001-3.469-5.885-5.576c-1.563-1.752-3.292-3.418-4.551-5.415c-1.168-1.849-2.084-3.887-3.652-5.45    c6.12-2.33,12.548-3.835,18.782-5.862c45.001-15.462,81.564-20.975,95.303-35.716c2.857-3.057,4.723-6.515,5.479-10.539    c-3.435,5.164-2.278,6.818-9.778,13.189c-7.631,6.824-22.824,10.808-47.577,18.261c-162.945,52.317-185.396,50.657-241.389,63.148    c-31.067,4.677-31.354-16.126-44.177-66.697c-12.983-52.981-16.498-97.81-16.006-101.028c9.165-9.846,27.238-12.125,39.7-7.173    h0.006c0.246,0.097,0.481,0.195,0.721,0.298c1.591,5.645,3.103,11.318,4.889,16.91c5.513,19.452,21.387,53.181,35.607,71.775    c0.286-0.006,0.853-0.023,1.133-0.029c-27.57-37.931-49.128-104.417-42.299-127.882c2.089-7.413,2.158-15.313,5.112-22.492    c4.803-12.417,5.908-25.99,4.488-39.156c9.669,3.275,23.385,7.036,33.706,20.465c6.452,8.346,12.794,17.448,14.185,28.188    c-0.967-1.454-8.094-13.521-15.737-17.786c2.141,2.919,23.923,21.776,21.547,53.817c-0.412,6.297-1.174,12.829,1.156,18.874    c-10.024-2.444-20.248,0.527-30.369-0.252c-2.479-0.16-4.832-1.03-7.259-1.443c10.184,7.482,37.41-3.584,43.822,8.598    c3.12,5.839,3.046,12.686,5.124,18.88c5.301,14.357,10.035,29.069,17.866,42.316c-3.246-0.744-6.595-0.698-9.875-0.206    c-13.333,1.947-23.001-4.391-26.596-5.753c0.784,0.927,1.677,1.786,2.714,2.462c14.186,9.343,25.715,3.687,32.184,5.106    c4.202,1.197,7.03,4.792,9.944,7.803c-17.214,5.793-41.08,10.173-56.027,17.592c-4.98,2.479-8.97,5.284-11.398,8.598    c26.013-17.969,25.102-8.822,113.456-39.002c18.324-6.852,68.128-22.927,84.169-45.087c-7.339,5.043-10.505,12.938-42.585,27.22    c-33.197,13.527-60.807,22.807-64.625,23.568c0.074-0.177,10.104-17.924,14.603-28.279c11.008-21.942,13.705-40.009,25.165-58.448    c13.67-19.326,34.577-27.684,55.878-26.82c8.077-0.401,16.63,1.031,24.936,3.372c22.108,6.234,42.442,18.96,47.257,20.935    c-7.053-5.066-14.855-8.959-22.463-13.092c29.47,3,59.221,1.276,88.662,4.734c8.93,0.927,18.055,1.466,27.003,0.515    c3.973-0.424,7.917-1.139,11.793-2.244c12.199-3.297,29.018-10.482,44.297,10.636c0.521,0.721,0.59,1.5,0.882,2.318    c-5.788-1.048-15.651-1.551-25.978-0.475c-2.061-1.07-12.577-8.678-28.079-8.335c-0.893-0.006-1.797,0.023-2.685,0.137    c-0.842,0.109-1.672,0.292-2.473,0.601c7.018,1.557,13.665-0.126,31.617,7.791c-4.311,1.259-8.804,2.078-12.806,4.208    c8.736-2.187,17.013-7.98,53.628-0.75c24.633,4.935,49.203,12.502,72.347,4.202c11.289-4.099,21.662-13.659,34.445-7.499    c7.121,3.372,5.175,12.039,8.083,15.411c2.21,2.462,7.494,4.396,7.694,4.242c-5.862,4.545-10.917,10.516-12.88,17.792    c-1.609,0.698-3.378,1.019-4.883,1.946c2.524-0.435,5.055-1.254,7.659-0.83c5.971,0.727,11.655,3.412,17.769,3.074    c1.58-0.057,2.983-0.865,4.396-1.511c0.137,2.748,0.2,5.507-0.08,8.249c-0.716,0.303-1.42,0.607-2.101,0.927    c0.87-0.006,1.763-0.052,2.673-0.126c6.99-0.544,14.695-2.336,16.149,6.114c2.233,13.344-11.569,28.726-5.564,47.193    c1.797,6.2,11.037,4.66,11.226,16.641C1190.734,497.257,1189.361,508.225,1187.168,518.959z"/>
		<path stroke="#000000" stroke-width="0.5" d="M1147.153,489.317c-0.887-0.309-1.563,1.288-0.658,1.603    c5.85,2.794,12.451,4.007,18.92,3.647c8.53-0.326,11.461-8.318,12.617-16.819C1177.826,479.242,1168.626,490.783,1147.153,489.317    z"/>
		<path stroke="#000000" stroke-width="0.5" d="M1170.487,421.899c1.391-0.046,3.297-1.494,2.45-3.005    c-1.551-0.733-3.343-0.716-5.009-0.779c1.328,0.813,2.885,1.111,4.351,1.66c-0.727,0.469-1.385,1.139-2.296,1.088    c-3.068,0.246-6.148,0.137-9.194,0.567C1163.903,422.357,1167.269,422.093,1170.487,421.899z"/>
		<path stroke="#000000" stroke-width="0.5" d="M1170.721,472.481c-1.62-0.721-3.48-0.905-4.912-1.998    c-2.691-1.981-3.744-5.902-2.221-8.913c1.036-2.582,3.509-4.013,5.667-5.547c-14.535-4.912-29.081,2.565-34.119,16.515    c3.034-1.111,11.3-6.182,26.087-7.242C1162.707,470.289,1165.34,472.916,1170.721,472.481z"/>
		<path stroke="#000000" stroke-width="0.5" d="M1163.926,434.212c-1.941-1.162-4.385-1.7-5.719-3.675    c-1.54-1.918-1.437-4.465-1.609-6.766C1154.074,428.602,1158.505,434.974,1163.926,434.212z"/>
		<path stroke="#000000" stroke-width="0.5" d="M1062.492,460.093c-2.341,0.756-3.017,3.509-4.986,4.746    c-1.941,0.607-9.297-0.807-7.562,5.856c0.784,2.593,3.246,4.167,4.305,6.623c2.862,5.868,6.286,7.379,11.707,1.655    c-1.803-1.368-3.996-2.25-5.461-4.019c2.147-1.5,5.312,0.469,7.179-1.689c1.248-1.299,0.172-2.954-0.658-4.122    C1071.732,462.984,1066.122,458.771,1062.492,460.093z M1066.82,470.409c0.675,0.83,0.343,2.084-0.676,2.439    c-1.786,0.384-3.635-0.269-5.404,0.172c-1.425,0.418-2.261,2.404-1.242,3.595c1.053,1.025,2.347,1.763,3.503,2.679    c-1.214,0.595-2.473,1.62-3.898,1.191c-1.775-0.756-2.227-2.828-3.12-4.333c-0.996-2.152-2.897-3.669-4.024-5.719    c-0.647-1.082-0.366-2.822,0.956-3.229c1.941-0.429,4.127,0.092,5.902-1.025c1.591-1.162,2.261-3.154,3.773-4.396    c2.656-1.706,7.47,1.82,4.047,7.018c-0.933,0.544-1.889,1.025-2.788,1.614C1064.817,470.357,1065.893,469.842,1066.82,470.409z"/>
		<path stroke="#000000" stroke-width="0.5" d="M1065.046,482.717c-1.803,1.322-4.093,0.578-6.12,0.555    c-1.242-0.103-2.462,1.134-2.21,2.376c0.166,0.847,1.071,0.979,1.74,1.317c0.029-0.452,0.086-1.357,0.115-1.815    c2.359,0.544,4.786,0.355,6.984-0.71c-0.584,8.741-8.14,13.035-12.165,10.859c-4.042-2.112-8.089-14.93-8.707-19.32    c-0.744-4.82,0.664-10.047,4.105-13.567c1.276-1.385,3.103-2.009,4.58-3.137c-3.303,0.017-6.079,2.387-7.894,4.957    c-5.747,8.18-1.38,19.424,2.759,28.142c5.891,12.806,22.492,0.223,17.409-11.358    C1065.492,481.44,1065.194,482.293,1065.046,482.717z"/>
		<path stroke="#000000" stroke-width="0.5" d="M1008.429,545.412c6.148,12.634,23.906,34.21,39.786,39.357    C1033.663,574.906,1021.871,559.758,1008.429,545.412z"/>
		<path stroke="#000000" stroke-width="0.5" d="M1034.762,584.34c-20.975-12.176-18.393-11.839-27.764-17.603    C1010.645,571.849,1023.187,582.897,1034.762,584.34z"/>
		<path stroke="#000000" stroke-width="0.5" d="M933.821,387.975c0.521-2.027,1.551-3.87,2.078-5.891    c-12.668,11.918,1.878,52.008,16.744,62.472c-1.374-2.754-3.652-4.912-5.249-7.522    C934.319,418.378,931.033,397.981,933.821,387.975z"/>
		<path stroke="#000000" stroke-width="0.5" d="M935.406,364.08c15.766-5.187,16.029-1.889,23.517-0.733    C953.176,357.085,938.675,358.785,935.406,364.08z"/>
		<path stroke="#000000" stroke-width="0.5" d="M929.819,368.614c-19.595-2.158-39.15,9.56-40.324,20.952    c-0.24,2.639,0,5.736,2.204,7.557c-0.573-3.143-3.939-9.944,6.852-17.992c14.867-10.762,29.253-9.348,35.807-9.211    C933.065,368.906,931.365,368.843,929.819,368.614z"/>
		<path stroke="#000000" stroke-width="0.5" d="M853.785,374.327c-13.991-9.045-24.415-13.728-32.092-24.45    c2.124,7.19,9.01,11.919,60.784,44.388c22.074,14.678,31.531,18.691,37.903,27.409c9.652,12.113,4.986,31.789-5.215,43.902    c-1.397,1.878-3.034,3.864-4.889,5.936c-17.924,20.007-56.204,47.926-94.003,61.843c-0.739,0.16-1.145,0.779-1.46,1.408    c0.189-0.069,0.378-0.132,0.561-0.2c54.338-19.475,95.337-56.507,105.67-73.985c5.69-9.594,8.53-21.587,4.849-32.413    C921.227,414.13,910.43,410.1,853.785,374.327z"/>
		<path stroke="#000000" stroke-width="0.5" d="M905.364,399.458c-0.99-13.539,5.129-17.008,7.184-20.683    C903.435,382.393,901.711,396.195,905.364,399.458z"/>
		<path stroke="#000000" stroke-width="0.5" d="M624.069,124.1c-0.492,3.263,0.338,6.68,2.032,9.497    c3.217-1.242,6.142,1.253,8.793,2.736c-0.137-6.211-2.084-12.651-6.446-17.208C626.651,120.465,625.426,122.36,624.069,124.1z     M633.721,134.238c-2.256-1.323-4.877-1.511-7.328-1.947c-0.773-2.141-1.248-4.391-1.574-6.64    c-0.321-0.876-0.063-0.75,3.721-5.645C631.379,124.237,633.2,129.16,633.721,134.238z"/>
		<path stroke="#000000" stroke-width="0.5" d="M625.139,109.365c0.223,2.044,0.332,4.11-0.212,6.12    c-0.927-1.54-1.843-3.223-3.647-3.87c0.441-3.32,1.036-5.576-6.028-7.952c0.882-1.465,1.981-3.022,3.709-3.538    c2.141-0.372,4.477,0.681,5.582,2.564c0.796,1.219,0.693,2.736,0.922,4.116c1.849-6.514-5.622-9.577-9.079-6.366    c-5.587,4.574-3.103,21.851,6.377,32.642c-1.093-2.816-10.081-14.294-7.763-28.663c2.072,0.589,4.248,1.671,5.29,3.658    c0.79,1.838-0.447,3.589-1.569,4.946c1.328-0.115,3.005-0.601,3.835,0.819c2.015,2.221,0.097,5.146-0.521,7.528    C625.128,119.2,628.185,112.599,625.139,109.365z"/>
		<path stroke="#000000" stroke-width="0.5" d="M584.621,288.018c-1.196-3.063-5.873-2.576-7.356-0.029    C582.28,286.816,580.058,286.421,584.621,288.018z"/>
	</g>
	<path fill="#FF000A" d="M552.254,221.343c1.248,2.147-0.595,4.334-1.929,5.919c-1.219,1.706-4.585,1.431-4.78-0.933   c-0.218-2.742-1.254-6.085,0.687-8.415C548.814,216.352,551.304,219.122,552.254,221.343z"/>
	<path fill="#BDEAFF" d="M554.418,500.119c-16.143-15.84-19.229-48.098-39.402-57.904l-14.449-0.475   c2.851-39.265,13.321-83.361,17.924-112.872c0.103-0.303,0.309-0.91,0.412-1.208C543.553,365.449,526.242,386.183,554.418,500.119z   "/>
	<path fill="#BDEAFF" d="M530.106,459.71c-2.341,5.627-5.175,10.682-10.648,13.745c-5.914,3.263-13.384,2.788-19.212-0.441   c-0.681-9.772-0.475-20.334,0.321-31.273l14.449,0.475C516.693,443.801,525.515,449.508,530.106,459.71z"/>
	<path fill="#FF000A" d="M516.012,242.719c1.477,1.666,3.24,4.11,1.763,6.331c-1.042,1.838-4.19,3.967-5.828,1.729   c-1.414-2.65-2.885-6.515-0.103-8.833C513.195,241.374,515.067,241.42,516.012,242.719z"/>
	<path fill="#FF000A" d="M483.044,278.549c3.114,2.599,5.049,3.068,3.704,6.663c-0.097,0.338-2.124-0.418-2.318-0.635   c-1.591-1.54-3.492-3.366-3.355-5.742C481.744,278.469,482.3,278.538,483.044,278.549z"/>
</g>
</svg>