<?xml version="1.0" encoding="UTF-8" standalone="no"?>
<svg xmlns:rdf="http://www.w3.org/1999/02/22-rdf-syntax-ns#" xmlns="http://www.w3.org/2000/svg" height="1458pt" width="1487pt" version="1.1" xmlns:cc="http://creativecommons.org/ns#" xmlns:dc="http://purl.org/dc/elements/1.1/" viewBox="0 0 1487 1458">
<path d="m855 6.9562c-3.4856 0.022875-6.958 0.29679-10.364 0.81875-3.4061 0.52196-6.7461 1.2926-9.9688 2.3047-1.6113 0.50605-3.1931 1.0715-4.739 1.6984-1.546 0.6269-3.0558 1.3143-4.5234 2.0609-1.4677 0.74663-2.8924 1.5535-4.2688 2.4188-1.3763 0.86524-2.7045 1.7891-3.9766 2.7719-2.99 1.815-5.8205 3.8891-8.6391 5.9891-2.8186 2.0999-5.6253 4.2256-8.5703 6.1406-1.9113 0.59688-3.7421 1.2906-5.4953 2.075-1.7533 0.78438-3.4291 1.6587-5.0298 2.6156-1.6006 0.95689-3.1263 1.9965-4.5797 3.1109-1.4533 1.1144-2.8339 2.304-4.1453 3.5609s-2.5533 2.5812-3.7282 3.9656c-1.1748 1.3844-2.2828 2.8296-3.3266 4.3266-1.0437 1.497-2.0227 3.0461-2.9406 4.6406-0.91792 1.5945-1.7744 3.2339-2.5719 4.9109-1.595 3.3541-2.9545 6.8589-4.1 10.453-1.1455 3.5943-2.0766 7.2777-2.8156 10.992-0.73904 3.7145-1.287 7.4587-1.6625 11.173-0.3756 3.7147-0.57944 7.4003-0.6344 10.995-0.20752 2.3425-0.2408 4.6844-0.14528 7.025 0.0954 2.3406 0.32008 4.6804 0.62656 7.0172 0.6128 4.6737 1.5556 9.3374 2.4594 13.984 0.45184 2.3235 0.8932 4.6423 1.2797 6.9562 0.3864 2.3139 0.71792 4.6226 0.94688 6.925 0.22888 2.3024 0.35512 4.5984 0.33432 6.8875-0.0207 2.2891-0.18904 4.5716-0.55152 6.8453-2.0887 1.435-4.0882 2.9767-5.9922 4.6156s-3.7119 3.3752-5.4203 5.1984c-1.7085 1.8232-3.3166 3.7339-4.8188 5.7219-1.5021 1.988-2.8994 4.0529-4.1843 6.1859-1.285 2.1331-2.4586 4.3336-3.5157 6.5922s-1.9972 4.5746-2.8156 6.9391c-0.81848 2.3645-1.5154 4.7773-2.0844 7.2281-0.56896 2.4508-1.01 4.9403-1.3187 7.4578-1.0325 1.485-2.1515 2.915-3.3282 4.3078-1.1766 1.3928-2.4101 2.7488-3.6734 4.0875-2.5266 2.6774-5.1696 5.2839-7.6984 7.9734-1.2644 1.3447-2.5009 2.7107-3.6797 4.1156s-2.3002 2.8485-3.3359 4.3516c-1.0358 1.5031-1.985 3.0653-2.8203 4.7047-0.83536 1.6394-1.5569 3.3566-2.1344 5.1703-0.69752 1.545-1.2 3.0912-1.5438 4.6375-0.34376 1.5462-0.52944 3.0931-0.59376 4.6406-0.0643 1.5475-0.006 3.0949 0.1344 4.6437 0.14072 1.5489 0.3644 3.0982 0.63592 4.6484 0.54304 3.1006 1.2737 6.2046 1.8938 9.3109 0.31008 1.5532 0.59312 3.1078 0.81096 4.6625 0.21776 1.5547 0.37064 3.1094 0.42184 4.6656-3.8194 1.1006-7.5632 2.3418-11.239 3.7078s-7.2842 2.8561-10.834 4.4547c-3.5502 1.5986-7.042 3.3063-10.484 5.1047-3.4424 1.7984-6.835 3.6877-10.188 5.6531-3.3525 1.9655-6.6634 4.0065-9.9438 6.1062-3.2805 2.0998-6.5299 4.258-9.7562 6.4594-6.4526 4.4027-12.814 8.9766-19.158 13.589-6.3434 4.6125-12.668 9.2648-19.045 13.825-6.3774 4.5602-12.808 9.0275-19.363 13.273-3.2771 2.123-6.5846 4.1907-9.9328 6.1859-3.3482 1.9953-6.7378 3.9183-10.175 5.7531s-6.9232 3.5818-10.467 5.2234c-3.544 1.6416-7.1453 3.1781-10.814 4.5938-7.87 3.0625-15.866 5.8812-23.878 8.6844-8.0117 2.8031-16.039 5.59-23.97 8.5875-3.9659 1.4988-7.9082 3.0504-11.813 4.6828-3.9043 1.6324-7.7707 3.3459-11.586 5.1688-3.8152 1.8228-7.5798 3.7551-11.278 5.825-3.6983 2.0699-7.3306 4.2778-10.884 6.6516-3.1175 1.7625-6.1531 3.6533-9.1297 5.6359s-5.8939 4.0572-8.7766 6.1859c-5.7653 4.2574-11.39 8.7328-17.061 13.13-2.8356 2.1984-5.6831 4.3778-8.5656 6.5s-5.8002 4.1876-8.7766 6.1594-6.011 3.8496-9.1282 5.5969-6.3169 3.3638-9.6218 4.8125c-0.94248 0.59-1.839 0.86101-2.6875 0.89375-0.84856 0.0327-1.649-0.17262-2.3984-0.53438-0.74944-0.36176-1.4474-0.87993-2.0922-1.4734-0.6448-0.5935-1.2369-1.2625-1.7718-1.925-8.4225-8.11-16.692-16.378-24.808-24.797-8.1154-8.4186-16.077-16.988-23.878-25.7-7.8014-8.7119-15.443-17.566-22.923-26.556-7.4804-8.9899-14.799-18.115-21.952-27.367-5.0975-5.95-10.025-12.088-14.941-18.25-4.9154-6.1624-9.8187-12.35-14.866-18.397-2.5234-3.0235-5.0834-6.0122-7.6985-8.9453-2.615-2.9332-5.2854-5.8107-8.0312-8.6125-2.7459-2.8018-5.567-5.5267-8.4828-8.1562s-5.9266-5.1634-9.0516-7.5797c-2.15-0.705-4.467-1.808-6.8687-2.9812-2.4017-1.1733-4.8873-2.4166-7.3766-3.4047-1.2446-0.49405-2.4908-0.92477-3.7266-1.25-1.2358-0.32524-2.4623-0.54556-3.6688-0.62031-1.2064-0.0747-2.3934-0.003-3.55 0.25469-1.1566 0.25741-2.2825 0.70062-3.3687 1.3719-2.7778-0.32156-5.543-0.46444-8.2906-0.44375-3.3201 0.025-6.6149 0.2885-9.8766 0.76562-3.2617 0.47713-6.4906 1.1682-9.6781 2.0453-3.1874 0.87718-6.3338 1.9405-9.4313 3.1656-3.0974 1.2252-6.1458 2.6117-9.1375 4.1328-2.9916 1.5211-5.9253 3.1773-8.7953 4.9422-2.8701 1.7649-5.6767 3.6386-8.4094 5.5953s-5.3923 3.9958-7.9719 6.0922c-2.5795 2.0964-5.0784 4.2503-7.489 6.4344-4.895 5.6725-9.79 11.376-14.609 17.148-4.8194 5.7729-9.5638 11.615-14.156 17.569-4.5926 5.9538-9.0326 12.019-13.247 18.234-2.1072 3.1077-4.1579 6.2524-6.1422 9.4406-1.9842 3.1882-3.9028 6.4197-5.7453 9.6984-3.4575 5.9988-6.7107 12.08-9.7656 18.234-3.055 6.1549-5.9122 12.384-8.5782 18.68-2.6659 6.2953-5.1408 12.657-7.4313 19.077s-4.3963 12.899-6.325 19.428c-1.9286 6.5291-3.679 13.109-5.2594 19.731-1.5803 6.6224-2.9903 13.287-4.236 19.988-1.2456 6.7001-2.327 13.435-3.2515 20.197-0.92448 6.762-1.6925 13.551-2.3094 20.359-0.61696 6.8083-1.0834 13.636-1.4062 20.475-0.32296 6.8388-0.50128 13.689-0.54376 20.542-0.04248 6.8537 0.05216 13.711 0.27656 20.564 0.22432 6.8528 0.57864 13.701 1.0562 20.538 0.4776 6.8363 1.078 13.66 1.7953 20.464 0.71736 6.804 1.5518 13.588 2.4954 20.344 0.94344 6.7561 1.9955 13.484 3.1515 20.177 1.1561 6.6925 2.4154 13.349 3.7703 19.963 0.91936 7.5638 1.9442 15.125 3.0766 22.677 1.1324 7.5516 2.3717 15.093 3.7203 22.622 1.3486 7.5286 2.8067 15.043 4.375 22.537 1.5682 7.4946 3.2478 14.969 5.039 22.419 1.7912 7.4496 3.695 14.875 5.7125 22.269 2.0174 7.3938 4.1483 14.756 6.3954 22.083 2.247 7.3269 4.6091 14.618 7.089 21.867 2.4799 7.2491 5.0776 14.457 7.7938 21.617 2.7161 7.1603 5.5506 14.274 8.5062 21.334 2.9556 7.0606 6.0328 14.069 9.2312 21.019 3.1985 6.95 6.518 13.842 9.9626 20.67 3.4446 6.8284 7.0138 13.593 10.708 20.289 3.6941 6.6959 7.5142 13.323 11.461 19.875 3.9468 6.5524 8.0206 13.03 12.223 19.428 4.2029 6.398 8.5346 12.716 12.997 18.948 4.4623 6.2326 9.0547 12.38 13.78 18.436 10.795 12.43 21.987 24.702 32.875 37.167 5.4438 6.2324 10.812 12.512 16.016 18.884 5.2034 6.3725 10.242 12.838 15.03 19.438-4.4262 6.28-8.8976 12.55-13.431 18.784-4.5336 6.2345-9.1302 12.434-13.805 18.576-4.6745 6.1421-9.4277 12.226-14.277 18.228-4.849 6.0026-9.7932 11.923-14.85 17.739-5.0569 5.8159-10.225 11.527-15.523 17.109-5.2983 5.5822-10.727 11.036-16.3 16.338-5.5733 5.3014-11.292 10.451-17.173 15.425-5.8818 4.9736-11.926 9.7716-18.15 14.37-1.785 1.2975-3.4865 2.6802-5.125 4.1265-1.6385 1.4464-3.2134 2.9565-4.7469 4.5094-3.067 3.1058-5.9669 6.3813-8.8625 9.6594s-5.7879 6.5583-8.8438 9.6703c-1.5278 1.556-3.0965 3.0709-4.7266 4.5219s-3.3215 2.8384-5.0953 4.1422c-3.1975 2.4775-6.3186 5.1738-9.2422 8.0812-1.4618 1.4537-2.874 2.96-4.2218 4.5188s-2.6309 3.169-3.8344 4.8312c-1.2034 1.6623-2.3274 3.3766-3.3562 5.1407-1.0287 1.7641-1.9622 3.5778-2.7859 5.4421-0.82368 1.8644-1.5383 3.7792-2.1266 5.7422-0.58832 1.963-1.051 3.9744-1.3734 6.0344-0.03248 0.7738 0.0224 1.5787 0.15624 2.3906s0.34656 1.6304 0.63128 2.4328c0.28472 0.8025 0.6408 1.5888 1.0609 2.3344 0.42016 0.7456 0.90376 1.4509 1.4438 2.0922 0.54008 0.6413 1.1368 1.2184 1.7813 1.7078 0.64448 0.4894 1.3369 0.8912 2.0703 1.1812 0.73344 0.29 1.5071 0.4679 2.3141 0.511 0.80696 0.043 1.6474-0.049 2.5125-0.3 0.82752-0.3025 1.4692-0.3986 1.9718-0.3344 0.50264 0.064 0.86632 0.2883 1.1344 0.6282 0.26808 0.3398 0.44192 0.7943 0.5656 1.3187 0.12376 0.5245 0.19752 1.1194 0.2672 1.7375 0.13936 1.2362 0.26016 2.5682 0.72504 3.6328 0.2324 0.5323 0.5508 0.9971 1 1.35 0.4492 0.353 1.0297 0.5941 1.7859 0.6766 1.3 0.031 2.5738-0.01 3.825-0.1156 1.2513-0.1065 2.4805-0.2787 3.6875-0.5094 2.4141-0.4616 4.7444-1.1594 7.0094-2.0375 2.265-0.8782 4.4644-1.9377 6.6172-3.1251 2.1529-1.1872 4.2584-2.5016 6.3359-3.8905 4.155-2.7781 8.1969-5.8522 12.272-8.7923 2.0375-1.47 4.0834-2.9068 6.1562-4.2562s4.1722-2.6115 6.3172-3.7328c3.01-2.085 6.1329-3.951 9.3375-5.6562s6.4901-3.2489 9.8297-4.6891c3.3396-1.4401 6.7318-2.7773 10.147-4.0672 3.415-1.2899 6.8534-2.5331 10.284-3.7875 3.431-1.2544 6.855-2.5195 10.242-3.8531 3.3872-1.3336 6.7378-2.7364 10.022-4.2641 3.284-1.5277 6.5007-3.1807 9.6218-5.0172 3.1212-1.8364 6.1466-3.8556 9.0454-6.1156 1.3138-1.0487 2.4467-2.1866 3.4281-3.3984 0.98144-1.2119 1.8109-2.4984 2.5172-3.8422 0.7064-1.3439 1.2896-2.746 1.7782-4.1907 0.48856-1.4445 0.88288-2.9312 1.211-4.4453 0.65608-3.0282 1.0485-6.1638 1.4062-9.2828 0.35768-3.1189 0.68088-6.2212 1.1984-9.1812 2.4075-3.9376 4.9105-7.8062 7.4954-11.614 2.5848-3.8079 5.2511-7.5556 7.9874-11.252 2.7364-3.696 5.5428-7.3391 8.4047-10.941 2.8619-3.6016 5.779-7.1609 8.7406-10.686 5.9231-7.05 12.021-13.965 18.187-20.814 6.1665-6.8493 12.402-13.633 18.605-20.423 0.66-0.6375 1.3756-1.1973 2.1266-1.7079 0.75104-0.5104 1.5371-0.972 2.3359-1.414 1.5977-0.8838 3.2482-1.6884 4.7782-2.6484 2.7387 2.1062 5.547 4.1027 8.411 6.0109 2.8638 1.9083 5.7835 3.7284 8.7453 5.4813 5.9234 3.5057 12.016 6.7426 18.167 9.8828 6.1513 3.1401 12.361 6.1827 18.522 9.2984 6.161 3.1158 12.273 6.305 18.225 9.7375 9.1138 4.5513 18.289 8.9904 27.522 13.309 9.2332 4.319 18.525 8.5171 27.873 12.588 9.3489 4.0704 18.755 8.0134 28.216 11.819 9.461 3.8055 18.978 7.4744 28.547 10.998 9.5694 3.524 19.192 6.9034 28.866 10.13 9.6741 3.2263 19.4 6.2986 29.175 9.2109 9.7752 2.9123 19.599 5.6635 29.472 8.2453 9.8725 2.5819 19.793 4.9947 29.759 7.2297 8.0425 2.0913 16.114 4.1293 24.212 6.0906 8.0982 1.9614 16.223 3.8468 24.372 5.6297 8.149 1.783 16.322 3.4643 24.517 5.0203s16.411 2.9866 24.647 4.2672 16.492 2.4105 24.764 3.3672c8.2721 0.9567 16.561 1.7392 24.864 2.3234 8.3034 0.5842 16.62 0.9712 24.95 1.1344 8.3298 0.1633 16.672 0.1031 25.023-0.2031 3.18 0.81 6.3597 1.7197 9.5297 2.7297-4.21 7.5775-8.6375 15.045-13.286 22.375-2.3242 3.6652-4.7045 7.2954-7.1391 10.889-2.4346 3.5937-4.9246 7.15-7.4702 10.666-2.5456 3.5157-5.146 6.9923-7.8031 10.424-2.6572 3.4312-5.3699 6.8176-8.1391 10.158-2.7692 3.3402-5.5947 6.6339-8.4766 9.8766-2.8818 3.2427-5.8206 6.4347-8.8156 9.5734-1.4862 1.41-2.8938 2.9355-4.2047 4.5563s-2.5246 3.3365-3.625 5.1265-2.0874 3.6541-2.9422 5.5719c-0.85472 1.9178-1.5775 3.8897-2.1515 5.8937-0.57408 2.004-0.9996 4.0404-1.2578 6.0891-0.25816 2.0488-0.34896 4.1091-0.25624 6.1609 0.0928 2.0519 0.3696 4.0959 0.84848 6.1095 0.4788 2.0135 1.1594 3.9974 2.0594 5.9312 2.6838 1.1224 5.4108 2.0793 8.1703 2.8812 2.7594 0.802 5.551 1.4486 8.3672 1.9532 2.8161 0.5044 5.6557 0.8666 8.5094 1.0968 2.8537 0.2303 5.7216 0.3287 8.5938 0.3078 2.8721-0.021 5.7488-0.1606 8.6203-0.4094 2.8714-0.2488 5.7388-0.6057 8.5906-1.0593s5.6886-1.0038 8.5016-1.6391c2.813-0.6352 5.6013-1.3562 8.3562-2.15 6.615 0.54 13.241 0.9216 19.873 1.1766 6.6321 0.2549 13.27 0.3832 19.911 0.4156 6.6407 0.032 13.283-0.032 19.923-0.1594 6.6408-0.1276 13.28-0.3187 19.912-0.5437 3.3275 0.3025 6.917 0.5117 10.536 0.4406 1.8095-0.035 3.6261-0.1414 5.4219-0.3406s3.5694-0.4919 5.2937-0.9015c1.7243-0.4097 3.3986-0.9362 4.9938-1.6032s3.1121-1.4741 4.5203-2.4453c1.4082-0.9711 2.7083-2.1059 3.8719-3.4281s2.1903-2.8316 3.0516-4.5516c0.81749-0.6675 1.5836-1.7318 2.175-2.9484 0.59136-1.2166 1.0073-2.5857 1.125-3.8594 0.0588-0.6369 0.0435-1.2504-0.0625-1.8094-0.10601-0.559-0.30286-1.0633-0.60469-1.4828-0.30181-0.4195-0.70893-0.7533-1.2375-0.9718-0.52856-0.2187-1.1778-0.322-1.9641-0.2782-1.275 0.3138-2.5374 0.5517-3.7875 0.7203-1.2501 0.1687-2.4878 0.2683-3.7156 0.3063-2.4556 0.076-4.8699-0.094-7.2516-0.4532-2.3816-0.3588-4.7312-0.9069-7.0594-1.5844-2.3282-0.6773-4.6344-1.4846-6.9297-2.364-4.5906-1.7588-9.1367-3.8056-13.719-5.6734-2.291-0.9339-4.5898-1.823-6.9094-2.6094s-4.6594-1.4697-7.0281-1.9922c-0.975-1.4825-2.1037-2.935-3.3203-4.3734s-2.5209-2.8623-3.8484-4.2891c-2.655-2.8537-5.4021-5.7179-7.7172-8.7203-1.1575-1.5012-2.2062-3.0363-3.0828-4.6234-0.87657-1.5872-1.5803-3.2257-2.0453-4.9313-0.2325-0.8528-0.40581-1.7224-0.51094-2.6109-0.10512-0.8886-0.14171-1.7968-0.10312-2.725 0.0386-0.9283 0.15293-1.8764 0.35156-2.8484 0.19864-0.9722 0.48125-1.9676 0.85625-2.9876 2.3-5.32 4.7425-10.577 7.3109-15.772 2.5684-5.1951 5.2628-10.329 8.0641-15.405 2.8012-5.0757 5.7094-10.092 8.7078-15.053 2.9984-4.9615 6.0869-9.8679 9.2469-14.72 5.5862 0.2538 11.17 0.4194 16.752 0.5016 5.5812 0.082 11.16 0.08 16.736 0 5.576-0.077 11.148-0.2301 16.719-0.4547 5.5705-0.2245 11.138-0.5198 16.703-0.8796 11.13-0.7197 22.249-1.6978 33.355-2.886s22.198-2.5868 33.278-4.1468 22.146-3.2822 33.198-5.1172c11.053-1.8352 22.092-3.7835 33.116-5.7969 22.047-4.0269 44.033-8.3135 65.953-12.474 6.3968-0.7362 12.782-1.5498 19.155-2.4375 6.3722-0.8876 12.731-1.8489 19.078-2.8828 6.3467-1.034 12.68-2.1404 19-3.3156 6.3203-1.1753 12.627-2.4198 18.92-3.7313 6.2929-1.3114 12.573-2.6902 18.838-4.1328 6.2647-1.4425 12.515-2.9485 18.75-4.5172 12.471-3.1373 24.883-6.5215 37.231-10.133 12.348-3.6113 24.633-7.4504 36.852-11.495 12.219-4.0448 24.372-8.2965 36.453-12.734 12.082-4.438 24.093-9.0612 36.03-13.852 11.937-4.7904 23.799-9.7476 35.584-14.85 2.4638-1.2925 4.9912-2.502 7.5609-3.6594 2.5698-1.1574 5.1816-2.2625 7.8125-3.3469 5.2619-2.1687 10.602-4.2532 15.839-6.5031 2.6187-1.125 5.2124-2.2911 7.7578-3.5297 2.5454-1.2385 5.0416-2.5497 7.4688-3.9641 2.4271-1.4143 4.7843-2.932 7.0484-4.5844 2.2641-1.6523 4.4359-3.4396 6.4922-5.3921 1.1875-0.3313 2.2826-0.8095 3.2859-1.4094 1.0034-0.6 1.9155-1.322 2.7375-2.1406 0.8221-0.8187 1.5533-1.7331 2.1969-2.7203 0.6436-0.9873 1.199-2.0472 1.6672-3.1532 0.4681-1.1058 0.8498-2.2583 1.1453-3.4328 0.2955-1.1744 0.5055-2.371 0.6313-3.564 0.1257-1.193 0.1676-2.3823 0.1265-3.5438-0.041-1.1615-0.1653-2.295-0.3703-3.375-0.6538-2.07-1.4723-4.0206-2.4281-5.8688-0.9558-1.848-2.0481-3.5933-3.2531-5.2546s-2.5221-3.239-3.9235-4.7485c-1.4014-1.5094-2.8878-2.9511-4.4328-4.3437-3.09-2.7851-6.415-5.3708-9.7625-7.8984s-6.7175-4.9969-9.9-7.5469c-8.2612-5.1463-16.48-10.362-24.653-15.647-8.1735-5.2852-16.302-10.64-24.383-16.066-8.0812-5.4251-16.116-10.92-24.1-16.486-7.9846-5.5662-15.92-11.203-23.803-16.911-7.8834-5.7081-15.716-11.488-23.494-17.339-7.778-5.8511-15.501-11.774-23.169-17.769-7.668-5.9951-15.281-12.063-22.834-18.203-7.5538-6.1402-15.049-12.353-22.484-18.639-9.2438-6.8425-18.389-13.808-27.442-20.889-9.0532-7.081-18.015-14.277-26.888-21.578-8.8729-7.3011-17.658-14.708-26.361-22.211-8.7028-7.5032-17.323-15.103-25.866-22.791-8.5428-7.6872-17.008-15.461-25.402-23.314-8.3931-7.853-16.714-15.785-24.967-23.786-8.2535-8.0006-16.44-16.07-24.564-24.2-8.1241-8.13-16.186-16.32-24.191-24.561-6.3662-6.0962-12.67-12.272-18.944-18.489-6.2732-6.2175-12.515-12.477-18.758-18.739-12.486-12.525-24.973-25.065-37.714-37.312-6.3703-6.1238-12.805-12.174-19.333-18.114-6.5281-5.94-13.15-11.77-19.898-17.45-6.7485-5.68-13.623-11.211-20.655-16.555-3.5158-2.6719-7.0719-5.2968-10.67-7.8703-3.5984-2.5735-7.2394-5.0953-10.928-7.5609-1.305-1-2.719-1.9034-4.2078-2.7422-1.4888-0.83878-3.0524-1.6136-4.6547-2.3531-3.2047-1.479-6.5669-2.8213-9.8031-4.275-1.6181-0.72684-3.2046-1.4803-4.725-2.2938-1.5204-0.81344-2.9742-1.6864-4.3266-2.6484-1.3523-0.962-2.6033-2.0134-3.7172-3.1859-1.1138-1.1725-2.0903-2.4659-2.8953-3.9109 4.2838-6.115 8.4215-12.325 12.419-18.62 3.9973-6.2957 7.8546-12.677 11.575-19.137 3.7204-6.4604 7.3048-13 10.758-19.609 3.4531-6.609 6.775-13.288 9.9703-20.03 3.1953-6.7416 6.2638-13.545 9.211-20.403 2.9471-6.8581 5.7727-13.77 8.4812-20.728 2.7085-6.9585 5.3002-13.963 7.7797-21.006 2.4795-7.0429 4.8462-14.125 7.1062-21.236 4.725-4.06 9.7221-7.9462 14.725-11.862 5.0029-3.9163 10.011-7.8628 14.758-12.045 2.3734-2.0913 4.6814-4.2419 6.8906-6.4766s4.3201-4.5534 6.2984-6.9828 3.824-4.9684 5.5047-7.6438c1.6807-2.6753 3.1963-5.4869 4.5125-8.4594 4.0525-8.8475 8.0755-17.734 12.155-26.602 4.0791-8.8671 8.2148-17.714 12.494-26.484 4.2789-8.7707 8.6999-17.465 13.352-26.023 2.3258-4.2792 4.7094-8.5238 7.1609-12.728 2.4515-4.2043 4.9716-8.3678 7.5703-12.483 0.9113-0.0825 1.7687 0.009 2.5813 0.24062 0.8126 0.23126 1.5799 0.60123 2.314 1.0781 0.7342 0.47689 1.435 1.0597 2.111 1.7141s1.3275 1.3815 1.9656 2.1453c1.2762 1.5275 2.4963 3.2046 3.7422 4.7609 0.6229 0.77814 1.2527 1.5262 1.8984 2.2094 0.6457 0.68313 1.3081 1.3019 1.9969 1.8219 2.5069 2.2325 5.0567 4.3996 7.6469 6.5078s5.2201 4.1581 7.8859 6.1531c5.3317 3.9901 10.807 7.7647 16.395 11.369 5.5879 3.604 11.289 7.0368 17.072 10.344 5.7825 3.3069 11.646 6.4872 17.561 9.5859 11.831 6.1974 23.866 12.068 35.858 17.966 5.996 2.949 11.981 5.9049 17.925 8.9125 5.9438 3.0076 11.846 6.0669 17.676 9.2219 0.45 0.39 0.8875 0.85992 1.1875 1.3938 0.3 0.53382 0.4625 1.1316 0.3625 1.7766-3.1794 2.6356-6.2918 5.3493-9.3453 8.1312-3.0535 2.782-6.0485 5.6327-8.9953 8.5391-5.8936 5.8127-11.592 11.851-17.174 18.03-5.581 6.1783-11.044 12.496-16.466 18.864-5.4212 6.3681-10.8 12.787-16.214 19.169-5.4142 6.3819-10.864 12.727-16.424 18.947-5.5597 6.2199-11.23 12.315-17.088 18.197-2.9289 2.941-5.9053 5.8295-8.9375 8.6531-3.0321 2.8236-6.1205 5.583-9.275 8.2672-3.1544 2.6842-6.3745 5.2929-9.6703 7.8156-3.2958 2.5228-6.6672 4.9591-10.123 7.2984-1.9825 2.4275-4.0388 4.8822-6.1938 7.2719-2.1549 2.3897-4.4084 4.7152-6.7859 6.8844s-4.8782 4.1825-7.5281 5.9484c-1.325 0.88299-2.6882 1.7036-4.0907 2.4516-1.4025 0.74792-2.845 1.4225-4.3312 2.0125-1.2569 0.23812-2.4806 0.38904-3.6735 0.45937-1.1928 0.0703-2.3552 0.0602-3.4859-0.025s-2.2295-0.24488-3.3-0.47344c-1.0704-0.22856-2.1113-0.52626-3.1234-0.88593-2.0243-0.71935-3.9351-1.689-5.7375-2.8594-1.8025-1.1704-3.4979-2.5419-5.0938-4.0656s-3.0922-3.199-4.4968-4.9781c-1.4047-1.7792-2.7167-3.6616-3.9454-5.5984s-2.3742-3.9283-3.4422-5.925c-1.0679-1.9967-2.0588-3.9991-2.9812-5.9578-0.24375-0.9825-0.68724-1.8928-1.2781-2.7047-0.59088-0.8119-1.3288-1.526-2.1594-2.1172-0.83052-0.59122-1.7545-1.0593-2.7172-1.3797-0.96265-0.32042-1.9643-0.49266-2.9516-0.49219-0.6582 0.00031-1.3099 0.0774-1.9391 0.23906-0.6292 0.16164-1.2359 0.40782-1.8047 0.74531-0.05 1.3612 0.014 2.6977 0.16718 4.0141s0.3951 2.6126 0.70469 3.8938c0.61919 2.5622 1.5044 5.063 2.4688 7.5422 0.96434 2.4792 2.0083 4.9375 2.9438 7.4109 0.93544 2.4735 1.7628 4.9628 2.2953 7.5078-5.6525-0.78751-11.347-1.8277-17.066-2.8516-5.7182-1.0239-11.46-2.031-17.208-2.7516-2.874-0.36029-5.7487-0.64953-8.6234-0.83281-2.8747-0.18329-5.7494-0.26119-8.6203-0.2-2.871 0.0612-5.7388 0.26126-8.6016 0.63438-2.8627 0.37311-5.7203 0.91936-8.5703 1.6719-0.165 1.3875-0.36247 2.904-0.45 4.3984-0.0875 1.4944-0.065 2.9665 0.21251 4.264 0.13873 0.6488 0.34111 1.2543 0.625 1.7969 0.28389 0.54262 0.64907 1.0234 1.114 1.4219 0.465 0.39847 1.0289 0.7149 1.711 0.93124 0.68201 0.21636 1.4822 0.33188 2.4172 0.32813 2.3362 0.14125 4.6541 0.36415 6.9531 0.66251 2.2991 0.29835 4.5796 0.67156 6.8422 1.1156 2.2625 0.44406 4.5061 0.95914 6.7328 1.5375s4.4366 1.2206 6.6281 1.9219c4.383 1.4025 8.6959 3.04 12.942 4.8656 4.2463 1.8256 8.4256 3.8394 12.541 5.9969 2.4088 1.6162 4.8888 3.0776 7.4266 4.4172s5.133 2.5573 7.7703 3.6844c2.6374 1.127 5.3175 2.1635 8.025 3.1422 2.7074 0.97865 5.4424 1.8994 8.1906 2.7938 5.4963 1.7888 11.044 3.4728 16.526 5.3094 2.7411 0.9183 5.466 1.8751 8.1594 2.9016 2.6934 1.0264 5.3556 2.1231 7.9719 3.3219-1.05 4.385-2.663 8.8515-3.9078 13.356-0.6224 2.2524-1.1526 4.5142-1.475 6.7797-0.1612 1.1328-0.2699 2.2676-0.3125 3.4016-0.043 1.134-0.019 2.2678 0.086 3.4016 3.8525-3.4625 7.5224-7.1294 11.103-10.898 3.5807-3.7691 7.0723-7.6403 10.57-11.514 3.498-3.8738 7.0018-7.75 10.606-11.527 3.6044-3.7766 7.3094-7.4538 11.209-10.931 3.3306-4.085 6.7672-8.057 10.295-11.931 3.5281-3.8742 7.1469-7.6515 10.845-11.344 3.6984-3.6923 7.4755-7.2999 11.317-10.839 3.8416-3.5391 7.7485-7.0086 11.706-10.423 7.9156-6.8296 16.036-13.44 24.253-19.945 8.2173-6.5052 16.532-12.906 24.834-19.317 8.3022-6.4112 16.592-12.832 24.762-19.38 4.0851-3.2738 8.1402-6.5801 12.152-9.9312 4.0114-3.3512 7.9785-6.7474 11.889-10.205 3.9106-3.4573 7.7642-6.9749 11.547-10.567 3.7827-3.5923 7.4958-7.2596 11.124-11.016 3.6276-3.756 7.1701-7.6014 10.616-11.55 3.4455-3.9486 6.7934-8.0003 10.03-12.17 1.15-2.07 2.8751-4.3276 4.6578-6.6891s3.6224-4.8274 5.0031-7.3156c0.6904-1.2441 1.2667-2.4926 1.6625-3.7375 0.3959-1.2449 0.6124-2.4858 0.5844-3.7109-0.014-0.61256-0.09-1.2212-0.2344-1.825-0.1442-0.60375-0.3578-1.203-0.6484-1.7953-0.2906-0.59236-0.6578-1.1778-1.1109-1.7562-0.4532-0.5784-0.9916-1.1491-1.6235-1.7109-11.238-10.798-22.419-21.7-33.678-32.53s-22.596-21.587-34.145-32.097c-5.7747-5.2547-11.602-10.448-17.5-15.556-5.8976-5.1084-11.866-10.132-17.92-15.05-6.054-4.9181-12.194-9.7305-18.438-14.414-6.244-4.6836-12.592-9.2388-19.059-13.644-3.5888-2.045-7.1234-4.1675-10.616-6.3516-3.4923-2.184-6.9422-4.4294-10.359-6.7219-6.8345-4.585-13.54-9.3567-20.203-14.192-6.6631-4.8355-13.284-9.7353-19.947-14.577-6.6633-4.8413-13.37-9.624-20.205-14.227 0.7775-1.4194 1.4165-2.8656 1.9266-4.3297s0.8906-2.9455 1.15-4.4375 0.3979-2.9951 0.4234-4.4984c0.026-1.5033-0.061-3.0069-0.2531-4.5047-0.1918-1.4978-0.4875-2.99-0.8797-4.4656s-0.8803-2.9351-1.4563-4.3719c-0.5759-1.4368-1.2398-2.8501-1.9828-4.2313-0.743-1.3811-1.5661-2.7303-2.4593-4.0391-0.8933-1.3088-1.8576-2.5772-2.8844-3.7969s-2.1158-2.3908-3.2594-3.5047-2.3422-2.1711-3.5859-3.1625c-1.2437-0.99143-2.5324-1.9165-3.8594-2.7688-1.3271-0.85221-2.6923-1.6319-4.0859-2.3281-1.3937-0.69626-2.8159-1.3092-4.2594-1.8328-1.4436-0.52361-2.9077-0.9564-4.3844-1.2906-1.4767-0.33423-2.9662-0.57031-4.4594-0.69844-1.2 0.0263-2.3309-0.11981-3.4109-0.39219s-2.1097-0.67172-3.1047-1.1531c-1.9901-0.96282-3.8446-2.2528-5.7047-3.5141-0.93-0.63062-1.8609-1.2542-2.8109-1.825-0.95006-0.57081-1.92-1.0895-2.925-1.5109-1.005-0.42141-2.0456-0.74575-3.1406-0.92813-1.095-0.18239-2.2441-0.22281-3.4641-0.0766-2.0388-0.055-4.0695-0.24687-6.0781-0.56875-2.0086-0.32189-3.9947-0.77306-5.9453-1.3469-1.9506-0.57381-3.8648-1.2705-5.7297-2.0812-1.8648-0.81079-3.68-1.736-5.4312-2.7688s-3.4386-2.1726-5.0484-3.4125c-1.6098-1.2398-3.1422-2.5806-4.5828-4.0125s-2.7908-2.955-4.0344-4.5641-2.3812-3.3038-3.4-5.075c-2.2138-4.0862-4.2126-8.2815-6.0656-12.55s-3.5601-8.6111-5.1891-12.992c-3.2578-8.7621-6.2046-17.678-9.3859-26.472-1.5906-4.3968-3.2392-8.764-5.0156-13.064-1.7765-4.3001-3.6808-8.5336-5.7797-12.667-1.0495-2.0668-2.1474-4.1082-3.3031-6.1203s-2.3694-3.9951-3.6484-5.9438c-1.279-1.9486-2.6228-3.8626-4.0422-5.7391s-2.9138-3.7153-4.4906-5.5109c-1.4492-1.7262-3.0022-3.3388-4.6469-4.8391-1.6446-1.5003-3.3812-2.8889-5.1938-4.1656s-3.7018-2.4413-5.6547-3.4969-3.9688-2.0007-6.0344-2.8375c-2.0656-0.83678-4.1805-1.5656-6.3312-2.1859-2.18-0.3866-4.37-0.899-6.58-1.3053s-4.44-0.707-6.68-0.9016c-2.23-0.1946-4.48-0.2835-6.72-0.2688zm-141.74 342.18c0.43304 0.0179 0.83808 0.0888 1.2031 0.22812 0.36504 0.13929 0.69056 0.34705 0.96096 0.63594 0.2704 0.2889 0.48688 0.65989 0.63592 1.1266 0.14912 0.46668 0.23016 1.0289 0.23128 1.7016 0.26496 4.4562 0.65648 8.9121 1.125 13.367 0.46856 4.4551 1.0149 8.9092 1.5891 13.364 1.1483 8.9097 2.4101 17.821 3.3937 26.734 0.49184 4.4569 0.91344 8.9142 1.2172 13.373 0.30384 4.4592 0.48832 8.9205 0.50624 13.383 0.0179 4.4624-0.13096 8.9258-0.49688 13.392-0.36584 4.4664-0.94776 8.935-1.7953 13.406-1.1262 4.71-2.113 9.4396-2.9859 14.184-0.87288 4.7448-1.6326 9.5043-2.3016 14.277-0.66896 4.7722-1.2479 9.556-1.7625 14.348-0.51456 4.7924-0.96376 9.5932-1.3734 14.398-0.81936 9.6105-1.4782 19.24-2.175 28.858-0.69672 9.6182-1.4316 19.226-2.4016 28.794-1.605 1.21-3.3328 2.2234-5.1328 3.0938-1.8 0.87031-3.6722 1.5975-5.5672 2.2375 0.63624-1.7588 1.2317-3.7662 1.7422-5.9281 0.51056-2.1619 0.93656-4.4787 1.2344-6.8531 0.29784-2.3745 0.4676-4.8067 0.4656-7.2031s-0.17528-4.7566-0.564-6.9844c-0.1944-1.1139-0.44264-2.1952-0.75-3.2312-0.30744-1.036-0.67496-2.0266-1.1062-2.9609-0.43136-0.93432-0.92616-1.8115-1.4922-2.6203-0.56608-0.80879-1.2023-1.55-1.9141-2.2094-0.71168-0.65942-1.4989-1.2372-2.3671-1.7234-0.86832-0.48624-1.8175-0.88108-2.8532-1.1703-1.0356-0.28923-2.1578-0.47379-3.3718-0.54219-1.2139-0.0684-2.5203-0.02-3.9234 0.15625-2-1.185-4.0625-2.2545-6.1625-3.2422-2.1-0.98766-4.2375-1.8934-6.3875-2.7484-0.76496-0.97251-1.6039-1.8787-2.5046-2.7188-0.9008-0.84008-1.8629-1.6139-2.8782-2.3203-1.0153-0.70636-2.0837-1.3458-3.1922-1.9172-1.1086-0.57141-2.257-1.0742-3.4375-1.5094-1.1805-0.43516-2.3923-0.80234-3.6234-1.1-1.2312-0.29765-2.4816-0.52706-3.7422-0.68593-1.2606-0.15888-2.5313-0.2468-3.8-0.26563-1.2688-0.0188-2.5366 0.0322-3.7922 0.15468-1.2556 0.1225-2.499 0.31618-3.7203 0.58126-1.2212 0.26507-2.4203 0.602-3.5859 1.0109-1.1656 0.40893-2.2973 0.88968-3.3859 1.4438-1.0886 0.55406-2.133 1.1808-3.1234 1.8812-0.99048 0.70046-1.9274 1.4737-2.7985 2.3219-0.87096 0.84813-1.6759 1.7717-2.4062 2.7688-0.73024 0.99706-1.3848 2.0684-1.9531 3.2156-0.56824 1.1473-1.0509 2.37-1.4359 3.6688-0.72872 1.4038-1.2987 2.831-1.7359 4.2766s-0.74208 2.9094-0.94224 4.3875c-0.20008 1.478-0.29496 2.9708-0.31248 4.4719-0.0175 1.5011 0.0425 3.0103 0.15312 4.525 0.22128 3.0294 0.6444 6.0774 1.0516 9.1047s0.79872 6.0344 0.95624 8.9844c-5.7887-1.0188-11.555-2.1796-17.297-3.4703-5.7415-1.2908-11.459-2.7119-17.148-4.2531-5.6898-1.5412-11.352-3.2017-16.986-4.9719-5.6337-1.7701-11.238-3.6491-16.811-5.6266-5.5732-1.9775-11.115-4.0539-16.623-6.2172-5.5082-2.1633-10.983-4.4131-16.422-6.7406-5.4386-2.3275-10.84-4.733-16.205-7.2031-5.3647-2.4701-10.692-5.0056-15.978-7.5969-9.2-4.385-18.687-8.4145-27.872-12.966-4.5925-2.2756-9.1091-4.6824-13.477-7.3281-2.1838-1.3229-4.3314-2.7044-6.4313-4.1609-2.0998-1.4565-4.1525-2.9872-6.15-4.6047 0.4944-0.96687 1.0346-1.8678 1.6156-2.7078 0.58112-0.84004 1.2031-1.6198 1.8625-2.3453 1.3188-1.4509 2.7859-2.6837 4.3672-3.75 1.5814-1.0663 3.2767-1.9656 5.0531-2.7453s3.6335-1.44 5.5375-2.0312c3.8081-1.1825 7.8049-2.0872 11.719-3.1047 1.957-0.50876 3.8929-1.0462 5.775-1.6609 1.8822-0.6147 3.71-1.3062 5.45-2.125 8.795-2.3925 17.633-4.8187 26.422-7.4359 4.3942-1.3086 8.7755-2.6653 13.133-4.0891 4.3573-1.4237 8.6906-2.914 12.987-4.4922 4.297-1.5782 8.559-3.2438 12.772-5.0156 4.213-1.7719 8.3773-3.6514 12.483-5.6562 4.1054-2.0049 8.1521-4.1353 12.127-6.4125 3.9745-2.2772 7.8769-4.7003 11.697-7.2891 5.4462-3.6088 10.84-7.305 16.2-11.058 5.3601-3.7528 10.687-7.562 15.998-11.398 10.622-7.6729 21.182-15.453 31.83-23.097 5.3241-3.8222 10.67-7.6101 16.056-11.334 5.3862-3.7242 10.813-7.3857 16.298-10.952 5.4854-3.5658 11.03-7.0359 16.652-10.383 5.6216-3.3469 11.321-6.57 17.116-9.6375 0.93096-0.41344 2.1342-0.95281 3.3828-1.3766 1.2486-0.42375 2.5428-0.73189 3.6562-0.68594z" fill="#f0b9b5"/>
<path d="m855 6.9562c-13.942 0.091499-27.664 4.2116-37.841 12.073 3.78 17.61 1.9412 35.62 2.1312 53.43 17.86-1.83 37.649-12.929 55.459-3.2688 30.92 27.61 30.9 71.209 43.2 107.87 7.02 22.57 8.7306 46.4 4.7406 69.77 2.39 3 5.7888 3.2903 9.1688 1.8703 30.32-7.09 61.091-12.41 91.961-16.47 7.2-7.24 18.84-8.3391 25.03-16.489 12.44-22.71-10.419-52.211-34.309-54.261-9.6 0.21-14.801-10.57-24.561-9.4-16.31-0.44-32.1-9.6597-40.25-23.83-17.71-32.69-21.69-72.329-46.92-101.06-11.59-13.809-29.88-20.351-47.81-20.234zm-55.05 24.203c-30.58 9.55-40.59 44.06-41.03 72.82-1.66 18.74 7.85 37.451 4.95 55.641-16.71 11.48-27.68 29.799-30.15 49.939-8.26 11.88-22.05 20.201-26.67 34.711-5.58 12.36 1.3494 24.759 1.7594 37.209 14.73 1.18 24.83-11.76 38.97-13.37 23.34-15.18 51.9-21.79 77.12-34.1 0.48-0.26 1.4294-0.79 1.9094-1.05-23.65-15.69-34.529-43.78-46.019-68.65-10.23-25.79-11.971-62.099 12.239-81.239 18.96-10.25 3.9803-35.511 6.9203-51.911z" fill="#dfab20"/>
<path d="m869.47 124.36c-5.95 0.04-20.591 13.58-11.911 15.4 1.11-4.95 17.671-14.1 11.911-15.4zm3.13 24.14c-6.82 2.49-10.32 10.479-13.5 16.509 8.18 3.81 24.83-14.209 13.5-16.509zm-75.572 2.6625c-0.7925 0.0137-1.5493 0.10032-2.2281 0.25781 0 1.43 8.2297 3.5697 11.03 3.8797-1.2675-2.8844-5.3671-4.197-8.8016-4.1375zm32.122 16.017c-2.42 7.69 2.8794 18.99 4.4594 27.37 9.41 3.03 3.25-10.461 1.85-14.041-2.26-3.7-0.9094-13.04-6.3094-13.33zm-32.081 1.7938c-0.5112-0.0106-1.0279 0.004-1.5485 0.0469 1.06 6.7 11.279 15.08 18.409 13.05-2.6813-6.9656-9.1935-12.938-16.861-13.097zm111.84 43.217c-17.09 12.53-25.549 52.299-53.839 41.889-8.57-7.29-16.231-19.86-28.261-21.12-0.48 0.26-1.4294 0.79-1.9094 1.05 7.65 5.42 19.42 9.2106 21.25 19.641 1.61 3.67 4.41 6.7003 8 8.5203 28.63 4.63 45.539-27.87 54.759-49.98zm-56.344 4.0172c-0.3942-0.008-0.7974 0.0216-1.2062 0.0922-2.9 6.13-11.46-0.16-13.33 6.55 5.48 3.14 12.2 12.599 18.15 5.2094 6.2906-3.1969 2.2984-11.729-3.6141-11.852z" fill="#1a1a1a"/>
<g>
<path d="m1048.8 215.74c-6.19 8.15-17.83 9.2491-25.03 16.489-0.02 18.37-13.601 32.73-18.911 49.67-17 34.37-31.969 72.74-64.509 95.47-20.67 21.82-53.37 19.45-80.72 24.9-45.03-1.21-88.009-32.2-103.36-74.62-5.61-19.36-13.601-39.071-8.5406-59.541-14.14 1.61-24.24 14.55-38.97 13.37-61.11 17.61-102.7 71.28-161.4 93.93-31.48 12.25-64.979 20.61-93.409 39.6-24.94 14.1-44.619 36.43-71.059 48.02-3.77 2.36-6.81-0.38907-8.95-3.0391-33.69-32.44-64.951-67.41-93.561-104.42-20.39-23.8-38.07-50.611-63.07-69.941-8.55-2.82-19.82-12-28.51-6.63 22.54 1.97 39.37 25.029 35.6 47.109-2.88 41.29-16.849 81.051-22.109 122.13-12.3 66.92-8.4303 135.6-3.5703 203.09 14.27 123.88 42.709 247.74 96.709 360.55 11.63 24.41 26.211 47.37 43.491 68.18 32.67 31.68 66.019 63.71 104.14 88.87 79.61 57.45 181.49 81.95 278.39 68.55 25.87 2.21 51.039-4.7094 75.759-11.259 8.37-2.2 17.381-6.46 26.041-3.25 32.67-15.25 67.799-25.58 101.76-37.83 5.19-3.93 11.181-6.71 17.741-7.25 116.62-36.08 234.78-71.591 357.62-75.391 43.84-3.35 88.429-7.5103 131.96-0.02 11.79 3.67 19.89 13.59 29.97 20.18 12.28 9.53 17.79 28.74 4.8297 40.47 9.5-2.65 13.06-14.699 11.42-23.339-5.23-16.56-20.97-25.461-33.7-35.661-66.09-41.17-129.44-86.769-188.92-137.06-73.95-54.74-141.64-117.4-205.68-183.33-50.93-48.77-97.88-102.64-156.9-142.09-10.44-8-27.89-9.8494-34.33-21.409 34.27-48.92 59.22-103.88 77.3-160.77 18.9-16.24 42.159-29.69 52.689-53.47 16.21-35.39 31.941-71.4 52.731-104.32 7.29-0.66 11.099 9.8103 16.609 13.97 40.11 35.72 91.38 54.819 138.02 80.059 0.9 0.78 1.75 1.8803 1.55 3.1703-50.87 42.17-84.411 104.48-139.71 141.91 8.49 6.08 13.391 28.03 0.061 30.6-4.11 10.31-10.95 19.289-15.2 29.589 4.88 2.34 3.2794 12.221-3.6906 9.2109-2.1 8.77-6.4494 17.869-5.6094 26.939 15.41-13.85 27.889-30.96 43.489-44.87 53.29-65.36 133.59-101.9 185.37-168.62 4.6-8.28 18.401-19.551 8.2906-28.541-44.95-43.19-89.001-88.051-140.74-123.29-28.71-16.36-53.99-37.659-81.33-56.069zm-126.16 31.089c1.35 35.37-14.09 69.44-37.97 94.78-11.76 11.28-28.87 2.1012-40.02-5.2188-20.19-19.91-18.01-54.58-0.8797-75.62 3.39-1.1 6.9397 0.9 10.33 1.4-3.59-1.82-6.39-4.8503-8-8.5203-27.81 24.03-26.499 80.76 11.541 93.63 12.37 7.86 28.76 1.23 36.38-10.3 14.54-20.87 28.869-43.77 31.139-69.72 1.58-6.27 1.68-13.769 6.65-18.559-3.38 1.42-6.7788 1.1297-9.1688-1.8703zm-209.38 102.31c1.732 0.0715 3.0268 1.0016 3.0312 3.6922 2.12 35.65 12.319 71.25 5.5391 107.02-9.01 37.68-9.12 76.589-13 114.86 1.23 0.89 2.2109 2.7009 4.0109 2.0609 22-4.36 39.47-19.69 54.4-35.53 14.51-13.45 28.409-28.33 36.439-46.65 0.96-2.56 1.8297-6.6-1.8203-7.55-10.22-4.89-20.54-10.3-28.21-18.84-1.05-1.94-2.0394-6.2394 3.3906-4.1094 18.73-2.63 38.429-2.6709 55.789-11.211 16.02-11.37 20.97-31.77 30.53-47.7 16.56-1.61 33.32-4.46 49.47-9.1-0.91 28.34-22.049 57.471-48.789 68.891-15.04 7.33-13.651 26.859-21.261 39.789-28.21 58.49-84.099 102.05-144.81 122.82 13.02 55.57 30.649 110.88 36.439 168-8.2 20.92-18.949 40.87-30.869 59.92-3.35 3.22-5.1103 10.41-11.07 9.3-9.78-19.46-17-40.13-23.52-60.87-4.49-7.26 7.7194-11.62 3.9594-18.85-8.24-24.18-4.6688-49.85-2.6688-74.72 5.39-36.11 4.6994-72.73 2.9594-109.05-0.15-4.84 6.3503-4.4291 9.4203-5.5391 7.92-1.83 10.939-9.9397 15.509-15.73 5.09-14.07 7.55-44.09-14.9-41.27-7.24 8.75-10.85 20.029-13.47 30.909-4.36 6.46-14.15-2.5-11.35-8.55-1.15-11.38 8.7503-18.53 12.27-28.35-12.24-15.56-43.22-14.25-49.38 6.5297-5.83 11.23-1.4597 23.95-0.8297 35.75-46.31-8.15-91.18-25.35-133.47-46.08-18.4-8.77-37.95-16.119-53.93-29.059 7.91-15.47 27.46-13.92 41.38-20.47 35.18-9.57 71.06-19.681 101.62-40.391 43.57-28.87 83.79-63.319 130.15-87.859 1.8619-0.82687 4.8121-2.1544 7.0391-2.0625zm-478.98 58.172c8.45 0.8 9.4806 12.891 13.841 18.491 10.47 11.39 16.28 27.12 30.67 34.4 9.36 14.38 24.709 30.901 43.839 22.741 12.25-8.21 29.29-6.2112 39.35-18.181 5.51-5.79 16.47-1.81 15.32 5.5-21.16 14.77-45.7 24.981-71.23 28.811-17.72-3.93-26.39-21.04-37-34.1-2.95-2.9-8.92-7.0603-11.85-2.3203-0.57 19.3 7.87 37.34 13.8 55.32 3.04 10.77 11.84 20.28 22.82 22.57 43.63-16.6 87.609-32.02 132.22-45.37 1.61 2.84 2.1303 6.1897 1.7703 9.4297-40.09 11.53-78.03 29.7-117.27 43.93-11.31 5.91-23.48 11.65-36.65 10.23-4.8-8.73-14.05-14.63-15.58-25.03-12.86-20.09-29.499-39.319-36.089-62.339 5.85-11.57 15.71 8.7094 19.65-2.5406-4.33-14.62-12.361-28.56-11.511-44.33-2.75-5.67-4.76-15.731 3.9-17.211zm260.98 30.09c-23.52 18.43-53.679 29.751-72.219 53.791-38.32 14.6-78.271 24.61-115.96 40.9-8.77 2.99-23.84 6.6794-27.2-5.1406-8.13-20.49-20.489-41.54-19.039-64.03 11.6 6.91 17.02 19.95 25.18 30.07 8.73 6.06 19.85 12.919 30.73 7.8094 33.75-5.13 59.491-30.03 91.891-39.12 7.85-0.25 8.9091-10.529 16.639-10.539 21.8-4.16 43.58-8.4812 65.17-13.531 1.2-0.05 3.6094-0.15938 4.8094-0.20938zm151.94 88.519c8.078-0.004 17.07 2.4938 18.338 9.5812-9 10.88-19.061 40.1 3.9391 39.35 7.13-9.48 6.3997-29.581 21.08-32.891 13.72 11.91 8.1706 34.891-2.9094 46.711-4.22 7.09-19.86 2.93-17.45 14.35 3.08 46.43-1.0594 92.499-5.4594 138.76-2.94 16.6 3.1391 32.51 5.0391 48.7-18.28 23.28-42.16 41.511-61.28 64.061-6.9 9.62-13.46-3.5713-9.1203-10.081 10.35-84.78 29.111-169.22 44.441-253.41-27.83-4.46-30.05-55.82-4.0703-64.37 2.17-0.48 4.7605-0.75953 7.4531-0.76094z" fill="#629d9d"/>
<path d="m1023.8 232.23c-30.87 4.06-61.641 9.3803-91.961 16.47-4.97 4.79-5.07 12.289-6.65 18.559-2.27 25.95-16.599 48.85-31.139 69.72-7.62 11.53-24.01 18.16-36.38 10.3-38.02-12.87-39.33-69.6-11.52-93.63-1.83-10.43-13.6-14.221-21.25-19.641-25.22 12.31-53.78 18.92-77.12 34.1-5.06 20.47 2.9306 40.181 8.5406 59.541 15.35 42.42 58.329 73.41 103.36 74.62 27.35-5.45 60.05-3.08 80.72-24.9 32.54-22.73 47.509-61.1 64.509-95.47 5.31-16.94 18.891-31.3 18.911-49.67zm-843.31 46.327c-26.561 0.20002-51.504 15.701-70.789 33.173-19.58 22.69-39.16 45.861-53.9 72.091-55.32 95.98-58.241 212.95-36.561 318.76 14.71 121.02 56.47 241.19 132.07 338.09 21.59 24.86 44.77 49.089 63.92 75.489 26.77-34.71 54.78-68.6 80.18-104.28-54-112.81-82.439-236.67-96.709-360.55-4.86-67.49-8.7297-136.17 3.5703-203.09 5.26-41.08 19.229-80.841 22.109-122.13 3.77-22.08-13.06-45.139-35.6-47.109-2.7778-0.32156-5.543-0.46444-8.2906-0.44375zm466.69 247.36c-2.6926 0.001-5.2831 0.28094-7.4531 0.76094-25.98 8.55-23.76 59.91 4.0703 64.37-15.33 84.19-34.091 168.63-44.441 253.41-4.34 6.51 2.2203 19.701 9.1203 10.081 19.12-22.55 43-40.781 61.28-64.061-1.9-16.19-7.9791-32.1-5.0391-48.7 4.4-46.26 8.5394-92.329 5.4594-138.76-2.41-11.42 13.23-7.26 17.45-14.35 11.08-11.82 16.629-34.801 2.9094-46.711-14.68 3.31-13.95 23.411-21.08 32.891-23 0.75-12.939-28.47-3.9391-39.35-1.2675-7.0875-10.26-9.5855-18.338-9.5812zm-308.26 554.18c-27.03 23.29-48.19 53.3-71.15 80.7 21.91 16.85 48.26 26.681 72.07 40.411 72.91 36.41 149.7 65.65 229.43 83.53 64.34 16.73 130.54 30.08 197.35 27.63 3.18 0.81 6.3597 1.7197 9.5297 2.7297 15.42-26.79 30.3-53.919 44.72-81.259 1.87-3.29 2.8297-7.0497 2.3797-10.83-8.66-3.21-17.671 1.05-26.041 3.25-24.72 6.55-49.889 13.469-75.759 11.259-96.9 13.4-198.78-11.1-278.39-68.55-38.12-25.16-71.469-57.19-104.14-88.87zm1035.8 18.236c-24.812 0.1793-49.709 2.3203-74.369 4.2047-122.84 3.8-241 39.311-357.62 75.391-6.56 0.54-12.551 3.32-17.741 7.25-25.45 42.06-55.369 81.38-79.559 124.3 89.38 4.06 178.13-14.61 265.81-31.25 102.35-11.78 201.61-43.261 295.89-84.081 19.71-10.34 43.53-15.36 59.98-30.98 12.96-11.73 7.4503-30.94-4.8297-40.47-10.08-6.59-18.18-16.51-29.97-20.18-19.044-3.2769-38.292-4.3239-57.591-4.1844z" fill="#282f57"/>
<path d="m912.83 396.08c-16.15 4.64-32.91 7.49-49.47 9.1-9.56 15.93-14.51 36.33-30.53 47.7-17.36 8.54-37.059 8.5809-55.789 11.211-5.43-2.13-4.4406 2.1694-3.3906 4.1094 7.67 8.54 17.989 13.951 28.209 18.841 3.65 0.95 2.7803 4.99 1.8203 7.55-8.03 18.32-21.929 33.2-36.439 46.65-14.93 15.84-32.4 31.17-54.4 35.53-1.8 0.64-2.7809-1.1709-4.0109-2.0609-3.21 2.42-6.91 4.0512-10.7 5.3312-4.57 5.79-7.5894 13.9-15.509 15.73-3.07 1.11-9.5703 0.69907-9.4203 5.5391 1.74 36.32 2.4306 72.94-2.9594 109.05-2 24.87-5.5712 50.54 2.6688 74.72 3.76 7.23-8.4494 11.59-3.9594 18.85 6.52 20.74 13.74 41.41 23.52 60.87 5.96 1.11 7.7203-6.08 11.07-9.3 11.92-19.05 22.669-39 30.869-59.92-5.79-57.12-23.419-112.43-36.439-168 60.71-20.77 116.6-64.33 144.81-122.82 7.61-12.93 6.2209-32.459 21.261-39.789 26.74-11.42 47.879-40.551 48.789-68.891zm-417.57 41.32c-1.2 0.05-3.6094 0.15938-4.8094 0.20938-21.59 5.05-43.37 9.3712-65.17 13.531-7.73 0.01-8.7891 10.289-16.639 10.539-32.4 9.09-58.141 33.99-91.891 39.12-10.88 5.11-22-1.7494-30.73-7.8094-8.16-10.12-13.58-23.16-25.18-30.07-1.45 22.49 10.909 43.54 19.039 64.03 3.36 11.82 18.43 8.1306 27.2 5.1406 37.69-16.29 77.641-26.3 115.96-40.9 18.54-24.04 48.699-35.361 72.219-53.791zm175.42 95.38c-3.52 9.82-13.42 16.97-12.27 28.35-2.8 6.05 6.99 15.01 11.35 8.55 2.62-10.88 6.2303-22.159 13.47-30.909-4-2.37-8.25-4.2806-12.55-5.9906zm387.59 38.611c-20.06 11.92-43.781 5.4691-64.811 6.1391 15.81 8.5 31.921 21.02 49.611 23.45 4.25-10.3 11.09-19.279 15.2-29.589z" fill="#c9dddd"/>
<path d="m283.67 1058.2c-0.3664 0.015-0.7257 0.066-1.0719 0.1562-46.56 49.99-78.711 111.22-124.84 161.41-26.74 25.87-57.66 47.581-80.95 76.941-5.95 8.27 11.841 4.1097 16.111 4.4297 30.82-34.56 69.54-61.6 96.42-99.78 32.43-44.61 64.849-89.31 100.54-131.42 6.525-4.125-0.7127-11.959-6.2078-11.736zm570 175.53c-2.2088-0.014-4.5881 0.385-6.0656 0.7563-5.06 0.98-13.029 0.1903-14.659 6.6203-18.63 36.05-40.369 70.39-59.909 105.95-3.28 7.2-6.4212 14.729-6.9312 22.709 5.55 4.22 12.401-0.7788 13.991-6.7688 24.57-42.23 55.661-80.341 78.241-123.71 2.225-4.3625-0.9844-5.5331-4.6656-5.5563z" fill="#fbdddd"/>
</g>
</svg>